<?xml version="1.0" encoding="utf-8"?>
<!-- Generator: Adobe Illustrator 16.0.4, SVG Export Plug-In . SVG Version: 6.00 Build 0)  -->
<!DOCTYPE svg PUBLIC "-//W3C//DTD SVG 1.1//EN" "http://www.w3.org/Graphics/SVG/1.1/DTD/svg11.dtd">
<svg version="1.1" id="Layer_1" xmlns="http://www.w3.org/2000/svg" xmlns:xlink="http://www.w3.org/1999/xlink" x="0px" y="0px"
	 width="488px" height="80px" viewBox="0 0 488 80" enable-background="new 0 0 488 80" xml:space="preserve">
<linearGradient id="SVGID_1_" gradientUnits="userSpaceOnUse" x1="243.9995" y1="1" x2="243.9995" y2="79.0005">
	<stop  offset="0" style="stop-color:#F1F2F2"/>
	<stop  offset="1" style="stop-color:#BCBEC0"/>
</linearGradient>
<path fill="url(#SVGID_1_)" stroke="#666666" stroke-miterlimit="10" d="M486.857,71c0,4.418-3.582,8-8,8H9.142
	c-4.418,0-8-3.582-8-8V9c0-4.418,3.582-8,8-8h469.715c4.418,0,8,3.582,8,8V71z"/>
<path fill="none" d="M486.858,71c0,4.418-3.582,8-8,8H9.143c-4.418,0-8-3.582-8-8V9c0-4.418,3.582-8,8-8h469.716
	c4.418,0,8,3.582,8,8V71z"/>
<text transform="matrix(1 0 0 1 62.4077 52.166)" display="none" fill="#CC0000" font-family="'ITCAvantGardeStd-Md'" font-size="34">DEALS &amp; PROMOTIONS</text>
<g>
	<path fill="#CC0000" d="M64.891,27.421h7.785c3.365,0,7.547,0.51,10.335,4.079c1.903,2.278,2.754,5.168,2.754,8.465
		c0,7.343-3.978,12.612-12.817,12.612h-8.057V27.421z M68.902,49.043h4.249c5.916,0,8.636-3.773,8.636-9.009
		c0-2.414-0.646-4.726-2.04-6.425c-1.326-1.53-3.332-2.652-6.562-2.652h-4.283V49.043z"/>
	<path fill="#CC0000" d="M88.826,27.421h14.075v3.535H92.838v7.14h9.928v3.501h-9.928v7.445h10.063v3.535H88.826V27.421z"/>
	<path fill="#CC0000" d="M108.614,52.578h-4.352l10.335-25.157h3.638L128.4,52.578h-4.352l-2.38-5.949h-10.743L108.614,52.578z
		 M116.264,32.079l-4.25,11.321h8.567L116.264,32.079z"/>
	<path fill="#CC0000" d="M130.51,27.421h4.012v21.622h8.873v3.535H130.51V27.421z"/>
	<path fill="#CC0000" d="M148.02,45.133c0.271,3.773,2.924,4.521,4.249,4.521c2.244,0,4.182-1.768,4.182-4.012
		c0-2.787-2.379-3.434-5.609-4.623c-1.972-0.646-6.357-2.107-6.357-6.833c-0.033-4.691,3.978-7.241,7.922-7.241
		c3.229,0,7.275,1.768,7.581,6.935h-3.943c-0.272-1.36-0.884-3.536-3.774-3.536c-2.039,0-3.808,1.394-3.808,3.536
		c0,2.448,1.87,3.06,5.916,4.556c3.128,1.326,6.051,2.923,6.051,7.003s-2.753,7.615-8.125,7.615c-4.997,0-8.193-3.061-8.261-7.922
		H148.02z"/>
	<path fill="#CC0000" d="M193.577,37.314l-4.317,8.194l5.031,5.133l-2.447,2.38l-4.487-4.624c-1.36,2.618-3.298,4.658-7.344,4.658
		c-4.964,0-8.058-3.365-8.058-7.174c0-4.045,3.332-6.153,5.576-7.343c-1.7-1.802-2.822-3.434-2.89-5.609
		c0-3.298,2.72-5.983,6.221-5.983c3.536,0,6.153,2.686,6.153,5.881c0,3.366-2.583,4.861-4.487,5.881l4.352,4.419l2.958-5.813
		H193.577z M179.741,40.748c-2.788,1.394-3.91,2.993-3.91,4.828c0,2.243,1.802,4.079,4.317,4.079s3.706-1.393,4.828-3.568
		L179.741,40.748z M180.862,29.937c-1.632,0-2.72,1.326-2.72,2.788c0,1.734,1.326,2.924,2.312,3.978
		c2.073-1.156,3.297-2.006,3.297-3.91c0-1.496-1.121-2.855-2.855-2.855H180.862z"/>
	<path fill="#CC0000" d="M213.503,27.421c3.909,0,5.575,0.51,7.071,1.7c1.768,1.36,2.787,3.773,2.787,6.187
		c0,2.414-1.054,4.93-2.617,6.188c-1.7,1.326-3.4,1.869-6.867,1.869h-3.536v9.213h-4.012V27.421H213.503z M210.341,39.83h3.468
		c1.598,0,2.821-0.17,3.909-0.85c1.021-0.578,1.802-1.904,1.802-3.604c0-1.7-0.781-2.992-1.835-3.604
		c-1.122-0.68-2.347-0.816-4.012-0.816h-3.332V39.83z"/>
	<path fill="#CC0000" d="M225.369,27.421h7.104c3.944,0,5.983,0.544,7.31,1.461c2.074,1.36,3.332,3.978,3.332,6.799
		c0,1.768-0.51,3.468-1.428,4.794c-1.292,1.801-2.924,2.414-4.862,2.753l5.916,9.349h-4.25l-6.901-11.354h0.884
		c1.734,0,3.842-0.067,5.032-1.088c1.155-1.02,1.733-2.481,1.733-4.113c0-1.7-0.815-3.366-2.142-4.25
		c-1.088-0.68-2.481-0.816-4.283-0.816h-3.434v21.622h-4.012V27.421z"/>
	<path fill="#CC0000" d="M244.408,40.136c0-7.921,6.086-13.19,13.157-13.19c7.513,0,13.19,5.813,13.19,13.055
		s-5.678,13.055-13.225,13.055c-7.581,0-13.123-5.949-13.123-12.885V40.136z M248.387,40c0,5.235,3.875,9.52,9.246,9.52
		c5.474,0,9.111-4.59,9.111-9.486c0-4.929-3.638-9.553-9.145-9.553c-5.474,0-9.213,4.419-9.213,9.485V40z"/>
	<path fill="#CC0000" d="M273.784,52.578V27.421h5.508l7.819,19.48l7.717-19.48h5.474v25.157h-3.706l0.103-21.213l-8.329,21.213
		h-2.618l-8.329-21.213l0.102,21.213H273.784z"/>
	<path fill="#CC0000" d="M303.364,40.136c0-7.921,6.085-13.19,13.157-13.19c7.513,0,13.189,5.813,13.189,13.055
		s-5.677,13.055-13.225,13.055c-7.58,0-13.122-5.949-13.122-12.885V40.136z M307.342,40c0,5.235,3.875,9.52,9.247,9.52
		c5.474,0,9.11-4.59,9.11-9.486c0-4.929-3.637-9.553-9.145-9.553c-5.473,0-9.213,4.419-9.213,9.485V40z"/>
	<path fill="#CC0000" d="M334.916,30.957h-5.779v-3.535h15.57v3.535h-5.779v21.622h-4.012V30.957z"/>
	<path fill="#CC0000" d="M346.713,27.421h4.012v25.157h-4.012V27.421z"/>
	<path fill="#CC0000" d="M353.785,40.136c0-7.921,6.086-13.19,13.157-13.19c7.513,0,13.19,5.813,13.19,13.055
		s-5.678,13.055-13.225,13.055c-7.581,0-13.123-5.949-13.123-12.885V40.136z M357.764,40c0,5.235,3.875,9.52,9.246,9.52
		c5.474,0,9.111-4.59,9.111-9.486c0-4.929-3.638-9.553-9.145-9.553c-5.474,0-9.213,4.419-9.213,9.485V40z"/>
	<path fill="#CC0000" d="M399.99,46.561l-0.068-19.139h3.875v25.157h-3.672l-13.156-19.173l0.068,19.173h-3.876V27.421h3.774
		L399.99,46.561z"/>
	<path fill="#CC0000" d="M410.701,45.133c0.271,3.773,2.924,4.521,4.249,4.521c2.244,0,4.182-1.768,4.182-4.012
		c0-2.787-2.38-3.434-5.609-4.623c-1.972-0.646-6.357-2.107-6.357-6.833c-0.034-4.691,3.978-7.241,7.921-7.241
		c3.23,0,7.275,1.768,7.582,6.935h-3.943c-0.272-1.36-0.885-3.536-3.774-3.536c-2.04,0-3.808,1.394-3.808,3.536
		c0,2.448,1.87,3.06,5.916,4.556c3.127,1.326,6.051,2.923,6.051,7.003s-2.754,7.615-8.125,7.615c-4.998,0-8.193-3.061-8.262-7.922
		H410.701z"/>
</g>
</svg>
