<?xml version="1.0" encoding="utf-8"?>
<!-- Generator: Adobe Illustrator 16.0.4, SVG Export Plug-In . SVG Version: 6.00 Build 0)  -->
<!DOCTYPE svg PUBLIC "-//W3C//DTD SVG 1.1//EN" "http://www.w3.org/Graphics/SVG/1.1/DTD/svg11.dtd">
<svg version="1.1" id="Layer_1" xmlns="http://www.w3.org/2000/svg" xmlns:xlink="http://www.w3.org/1999/xlink" x="0px" y="0px"
	 width="290px" height="80px" viewBox="0 0 290 80" enable-background="new 0 0 290 80" xml:space="preserve">
<linearGradient id="SVGID_1_" gradientUnits="userSpaceOnUse" x1="144.9995" y1="1" x2="144.9995" y2="79.0005">
	<stop  offset="0" style="stop-color:#CC0000"/>
	<stop  offset="1" style="stop-color:#990000"/>
</linearGradient>
<path fill="url(#SVGID_1_)" stroke="#666666" stroke-miterlimit="10" d="M289,71c0,4.418-3.582,8-8,8H9c-4.418,0-8-3.582-8-8V9
	c0-4.418,3.582-8,8-8h272c4.418,0,8,3.582,8,8V71z"/>
<g>
	<path fill="#FFFFFF" d="M40.723,27.421h13.123v3.535h-9.111V38.3h8.975v3.501h-8.975v10.777h-4.012V27.421z"/>
	<path fill="#FFFFFF" d="M56.805,27.421h4.012v25.157h-4.012V27.421z"/>
	<path fill="#FFFFFF" d="M81.827,46.561l-0.068-19.14h3.876v25.157h-3.672L68.806,33.404l0.068,19.174h-3.876V27.421h3.774
		L81.827,46.561z"/>
	<path fill="#FFFFFF" d="M89.818,27.421h7.785c3.366,0,7.547,0.51,10.335,4.079c1.904,2.277,2.754,5.168,2.754,8.465
		c0,7.344-3.978,12.613-12.816,12.613h-8.058V27.421z M93.83,49.043h4.25c5.916,0,8.635-3.773,8.635-9.01
		c0-2.414-0.646-4.726-2.04-6.426c-1.326-1.529-3.332-2.651-6.561-2.651H93.83V49.043z"/>
	<path fill="#FFFFFF" d="M123.853,52.578h-4.352l10.335-25.157h3.638l10.165,25.157h-4.352l-2.38-5.949h-10.743L123.853,52.578z
		 M131.502,32.078l-4.25,11.32h8.567L131.502,32.078z"/>
	<path fill="#FFFFFF" d="M157.717,45.133c0.271,3.773,2.924,4.521,4.249,4.521c2.244,0,4.182-1.768,4.182-4.012
		c0-2.787-2.38-3.434-5.609-4.623c-1.972-0.646-6.357-2.107-6.357-6.834c-0.034-4.691,3.978-7.24,7.921-7.24
		c3.23,0,7.275,1.768,7.582,6.935h-3.943c-0.272-1.36-0.885-3.536-3.774-3.536c-2.04,0-3.808,1.395-3.808,3.536
		c0,2.448,1.87,3.06,5.916,4.556c3.127,1.326,6.051,2.924,6.051,7.004c0,4.079-2.754,7.615-8.125,7.615
		c-4.998,0-8.193-3.061-8.262-7.922H157.717z"/>
	<path fill="#FFFFFF" d="M176.586,30.956h-5.779v-3.535h15.57v3.535h-5.779v21.622h-4.012V30.956z"/>
	<path fill="#FFFFFF" d="M185.801,40.135c0-7.92,6.085-13.189,13.156-13.189c7.514,0,13.19,5.812,13.19,13.055
		c0,7.24-5.677,13.055-13.225,13.055c-7.581,0-13.122-5.95-13.122-12.885V40.135z M189.777,40c0,5.234,3.876,9.519,9.248,9.519
		c5.473,0,9.11-4.59,9.11-9.485c0-4.93-3.638-9.553-9.146-9.553c-5.473,0-9.213,4.42-9.213,9.484V40z"/>
	<path fill="#FFFFFF" d="M215.04,27.421h7.105c3.944,0,5.983,0.544,7.31,1.462c2.074,1.359,3.332,3.978,3.332,6.799
		c0,1.768-0.511,3.468-1.429,4.794c-1.291,1.802-2.923,2.413-4.861,2.753l5.916,9.35h-4.25l-6.901-11.355h0.884
		c1.734,0,3.842-0.067,5.032-1.088c1.155-1.02,1.733-2.48,1.733-4.113c0-1.699-0.816-3.365-2.142-4.249
		c-1.088-0.681-2.482-0.816-4.284-0.816h-3.434v21.622h-4.012V27.421z"/>
	<path fill="#FFFFFF" d="M235.202,27.421h14.074v3.535h-10.062v7.14h9.927v3.502h-9.927v7.445h10.062v3.535h-14.074V27.421z"/>
</g>
</svg>
