<?xml version="1.0" encoding="utf-8"?>
<!-- Generator: Adobe Illustrator 16.0.4, SVG Export Plug-In . SVG Version: 6.00 Build 0)  -->
<!DOCTYPE svg PUBLIC "-//W3C//DTD SVG 1.1//EN" "http://www.w3.org/Graphics/SVG/1.1/DTD/svg11.dtd">
<svg version="1.1" id="Layer_1" xmlns="http://www.w3.org/2000/svg" xmlns:xlink="http://www.w3.org/1999/xlink" x="0px" y="0px"
	 width="290px" height="80px" viewBox="0 0 290 80" enable-background="new 0 0 290 80" xml:space="preserve">
<linearGradient id="SVGID_1_" gradientUnits="userSpaceOnUse" x1="144.9995" y1="1" x2="144.9995" y2="79.0005">
	<stop  offset="0" style="stop-color:#F1F2F2"/>
	<stop  offset="1" style="stop-color:#BCBEC0"/>
</linearGradient>
<path fill="url(#SVGID_1_)" stroke="#666666" stroke-miterlimit="10" d="M289,71c0,4.418-3.582,8-8,8H9c-4.418,0-8-3.582-8-8V9
	c0-4.418,3.582-8,8-8h272c4.418,0,8,3.582,8,8V71z"/>
<text transform="matrix(1 0 0 1 78.5479 35.5)" display="none"><tspan x="0" y="0" display="inline" fill="#CC0000" font-family="'ITCAvantGardeStd-Md'" font-size="34">DEALS &amp;</tspan><tspan x="-44.353" y="34" display="inline" fill="#CC0000" font-family="'ITCAvantGardeStd-Md'" font-size="34">PROMOTIONS</tspan></text>
<g>
	<path fill="#CC0000" d="M80.367,10.421h7.786c3.365,0,7.547,0.51,10.335,4.079c1.903,2.278,2.753,5.168,2.753,8.465
		c0,7.343-3.978,12.613-12.817,12.613h-8.057V10.421z M84.379,32.043h4.25c5.916,0,8.635-3.773,8.635-9.009
		c0-2.414-0.646-4.726-2.04-6.425c-1.326-1.53-3.332-2.652-6.562-2.652h-4.284V32.043z"/>
	<path fill="#CC0000" d="M104.303,10.421h14.075v3.535h-10.063v7.14h9.927v3.501h-9.927v7.445h10.063v3.536h-14.075V10.421z"/>
	<path fill="#CC0000" d="M124.091,35.579h-4.352l10.335-25.157h3.638l10.165,25.157h-4.352l-2.38-5.949h-10.743L124.091,35.579z
		 M131.74,15.079l-4.25,11.321h8.567L131.74,15.079z"/>
	<path fill="#CC0000" d="M145.987,10.421h4.011v21.622h8.873v3.536h-12.884V10.421z"/>
	<path fill="#CC0000" d="M163.496,28.133c0.271,3.773,2.924,4.521,4.25,4.521c2.244,0,4.182-1.768,4.182-4.012
		c0-2.788-2.379-3.434-5.609-4.623c-1.973-0.646-6.357-2.108-6.357-6.833c-0.033-4.691,3.977-7.241,7.922-7.241
		c3.229,0,7.275,1.768,7.58,6.935h-3.943c-0.271-1.36-0.883-3.536-3.773-3.536c-2.039,0-3.809,1.394-3.809,3.536
		c0,2.448,1.871,3.06,5.916,4.556c3.129,1.326,6.051,2.924,6.051,7.003s-2.752,7.615-8.125,7.615c-4.996,0-8.193-3.06-8.26-7.921
		H163.496z"/>
	<path fill="#CC0000" d="M209.055,20.314l-4.318,8.193l5.031,5.133l-2.447,2.38l-4.486-4.624c-1.361,2.618-3.299,4.658-7.344,4.658
		c-4.965,0-8.059-3.366-8.059-7.173c0-4.046,3.332-6.153,5.576-7.343c-1.699-1.802-2.822-3.434-2.889-5.609
		c0-3.298,2.719-5.983,6.221-5.983c3.535,0,6.152,2.686,6.152,5.881c0,3.366-2.582,4.861-4.486,5.881l4.352,4.419l2.957-5.813
		H209.055z M195.219,23.748c-2.789,1.394-3.91,2.992-3.91,4.828c0,2.244,1.801,4.08,4.316,4.08s3.707-1.394,4.828-3.569
		L195.219,23.748z M196.34,12.937c-1.633,0-2.721,1.326-2.721,2.788c0,1.734,1.326,2.924,2.312,3.978
		c2.074-1.156,3.297-2.006,3.297-3.91c0-1.496-1.121-2.855-2.855-2.855H196.34z"/>
	<path fill="#CC0000" d="M43.783,44.422c3.91,0,5.575,0.51,7.071,1.699c1.768,1.359,2.788,3.773,2.788,6.188
		s-1.054,4.93-2.618,6.188c-1.7,1.326-3.4,1.869-6.867,1.869h-3.536v9.213H36.61V44.422H43.783z M40.622,56.83h3.467
		c1.598,0,2.822-0.17,3.91-0.85c1.02-0.578,1.802-1.904,1.802-3.604c0-1.701-0.782-2.992-1.835-3.604
		c-1.122-0.682-2.346-0.816-4.012-0.816h-3.332V56.83z"/>
	<path fill="#CC0000" d="M55.649,44.422h7.105c3.944,0,5.983,0.543,7.31,1.461c2.074,1.359,3.332,3.979,3.332,6.799
		c0,1.768-0.51,3.469-1.428,4.795c-1.292,1.801-2.924,2.412-4.862,2.752l5.916,9.35h-4.25l-6.901-11.355h0.884
		c1.734,0,3.842-0.066,5.032-1.088c1.156-1.02,1.734-2.48,1.734-4.113c0-1.699-0.816-3.365-2.142-4.248
		c-1.088-0.682-2.482-0.816-4.284-0.816h-3.434v21.621h-4.012V44.422z"/>
	<path fill="#CC0000" d="M74.689,57.135c0-7.92,6.085-13.189,13.157-13.189c7.513,0,13.19,5.812,13.19,13.055
		c0,7.24-5.677,13.055-13.225,13.055c-7.581,0-13.123-5.949-13.123-12.885V57.135z M78.667,57c0,5.234,3.875,9.52,9.247,9.52
		c5.473,0,9.111-4.59,9.111-9.486c0-4.93-3.638-9.553-9.145-9.553c-5.473,0-9.213,4.42-9.213,9.484V57z"/>
	<path fill="#CC0000" d="M104.065,69.578V44.422h5.508l7.819,19.479l7.717-19.479h5.474v25.156h-3.706l0.102-21.213l-8.329,21.213
		h-2.618l-8.329-21.213l0.102,21.213H104.065z"/>
	<path fill="#CC0000" d="M133.645,57.135c0-7.92,6.085-13.189,13.158-13.189c7.512,0,13.189,5.812,13.189,13.055
		c0,7.24-5.678,13.055-13.225,13.055c-7.581,0-13.123-5.949-13.123-12.885V57.135z M137.623,57c0,5.234,3.875,9.52,9.247,9.52
		c5.475,0,9.111-4.59,9.111-9.486c0-4.93-3.637-9.553-9.145-9.553c-5.474,0-9.213,4.42-9.213,9.484V57z"/>
	<path fill="#CC0000" d="M165.197,47.957h-5.779v-3.535h15.57v3.535h-5.779v21.621h-4.012V47.957z"/>
	<path fill="#CC0000" d="M176.994,44.422h4.012v25.156h-4.012V44.422z"/>
	<path fill="#CC0000" d="M184.066,57.135c0-7.92,6.086-13.189,13.156-13.189c7.514,0,13.191,5.812,13.191,13.055
		c0,7.24-5.678,13.055-13.225,13.055c-7.582,0-13.123-5.949-13.123-12.885V57.135z M188.045,57c0,5.234,3.875,9.52,9.246,9.52
		c5.473,0,9.111-4.59,9.111-9.486c0-4.93-3.639-9.553-9.145-9.553c-5.475,0-9.213,4.42-9.213,9.484V57z"/>
	<path fill="#CC0000" d="M230.271,63.561l-0.068-19.139h3.875v25.156h-3.672L217.25,50.404l0.068,19.174h-3.877V44.422h3.775
		L230.271,63.561z"/>
	<path fill="#CC0000" d="M240.982,62.133c0.271,3.773,2.924,4.521,4.248,4.521c2.244,0,4.182-1.768,4.182-4.012
		c0-2.787-2.379-3.434-5.609-4.623c-1.971-0.646-6.357-2.107-6.357-6.834c-0.033-4.691,3.979-7.24,7.922-7.24
		c3.23,0,7.275,1.768,7.582,6.936h-3.943c-0.273-1.361-0.885-3.537-3.775-3.537c-2.039,0-3.807,1.395-3.807,3.537
		c0,2.447,1.869,3.059,5.916,4.555c3.127,1.326,6.051,2.924,6.051,7.004s-2.754,7.615-8.125,7.615c-4.998,0-8.193-3.061-8.262-7.922
		H240.982z"/>
</g>
</svg>
