<?xml version="1.0" encoding="utf-8"?>
<!-- Generator: Adobe Illustrator 16.0.4, SVG Export Plug-In . SVG Version: 6.00 Build 0)  -->
<!DOCTYPE svg PUBLIC "-//W3C//DTD SVG 1.1//EN" "http://www.w3.org/Graphics/SVG/1.1/DTD/svg11.dtd">
<svg version="1.1" id="Layer_1" xmlns="http://www.w3.org/2000/svg" xmlns:xlink="http://www.w3.org/1999/xlink" x="0px" y="0px"
	 width="42px" height="42px" viewBox="0 0 42 42" enable-background="new 0 0 42 42" xml:space="preserve">
<g>
	<path d="M40.504,3.161c-0.328-0.329-0.721-0.495-1.172-0.495s-0.841,0.166-1.172,0.495l-3.385,3.36
		c-1.857-1.754-3.984-3.112-6.381-4.075C26,1.482,23.533,1,21,1c-4.775,0-8.941,1.446-12.501,4.336
		c-3.56,2.891-5.902,6.662-7.031,11.315v0.182c0,0.226,0.082,0.422,0.247,0.586c0.166,0.165,0.36,0.247,0.586,0.247h5.183
		c0.382,0,0.643-0.2,0.78-0.599c0.731-1.735,1.19-2.751,1.38-3.047c1.217-1.979,2.831-3.533,4.845-4.662
		C16.502,8.23,18.674,7.666,21,7.666c3.489,0,6.52,1.188,9.09,3.568l-3.596,3.594C26.166,15.158,26,15.549,26,16
		s0.166,0.842,0.494,1.172c0.331,0.33,0.721,0.495,1.174,0.495h11.666c0.451,0,0.844-0.165,1.172-0.495
		C40.836,16.842,41,16.451,41,16V4.333C41,3.882,40.836,3.491,40.504,3.161z"/>
	<path d="M39.516,24.334h-5.002c-0.381,0-0.641,0.199-0.779,0.6c-0.73,1.736-1.189,2.752-1.381,3.047
		c-1.217,1.979-2.831,3.533-4.846,4.662c-2.014,1.127-4.184,1.692-6.51,1.692c-1.684,0-3.309-0.313-4.869-0.938
		c-1.563-0.625-2.961-1.51-4.193-2.656l3.567-3.567c0.33-0.329,0.495-0.721,0.495-1.171c0-0.452-0.165-0.843-0.495-1.172
		c-0.33-0.331-0.72-0.495-1.172-0.495H2.666c-0.451,0-0.844,0.164-1.174,0.495C1.165,25.159,1,25.55,1,26.002v11.667
		c0,0.451,0.165,0.842,0.492,1.172c0.33,0.329,0.723,0.495,1.174,0.495c0.451,0,0.842-0.166,1.172-0.495l3.359-3.36
		c1.857,1.771,3.972,3.135,6.342,4.09c2.37,0.955,4.822,1.43,7.357,1.43c4.757,0,8.907-1.443,12.446-4.336
		c3.543-2.891,5.869-6.662,6.98-11.314c0.018-0.035,0.025-0.096,0.025-0.182c0-0.227-0.082-0.422-0.248-0.587
		C39.937,24.417,39.74,24.334,39.516,24.334z"/>
</g>
</svg>
