<?xml version="1.0" encoding="utf-8"?>
<!-- Generator: Adobe Illustrator 16.0.4, SVG Export Plug-In . SVG Version: 6.00 Build 0)  -->
<!DOCTYPE svg PUBLIC "-//W3C//DTD SVG 1.1//EN" "http://www.w3.org/Graphics/SVG/1.1/DTD/svg11.dtd">
<svg version="1.1" id="new_phone" xmlns="http://www.w3.org/2000/svg" xmlns:xlink="http://www.w3.org/1999/xlink" x="0px" y="0px"
	 width="172px" height="106px" viewBox="0 0 172 106" enable-background="new 0 0 172 106" xml:space="preserve">
<g>
	<path fill="#CC0000" d="M153.945,74.648H65.789v10.88l-21.393,0.157c0,0-6.606-10.888-15.822-11.782
		c-9.221-0.892-14.908,4.919-14.908,4.919H4.015c0,0-4.099,2.836-2.738,6.706c1.356,3.878,3.891,5.822,3.891,5.822h7.603
		c0,0,2.915-11.634,13.204-11.634c10.457,0,13.056,11.634,13.056,11.634h29.889l4.676-3.659l35.029,0.525
		c0,0,2.544-9.667,11.931-10.442c9.092-0.736,13.713,6.862,13.713,6.862h31.686V81.76h-6.788L153.945,74.648z"/>
	<path fill="#CC0000" d="M132.428,92.12c0,5.633-4.575,10.208-10.212,10.208c-5.64,0-10.207-4.575-10.207-10.208
		c0-5.64,4.567-10.207,10.207-10.207C127.853,81.913,132.428,86.48,132.428,92.12z"/>
	<path fill="#CC0000" d="M35.957,94.126c0,5.632-4.575,10.208-10.208,10.208c-5.64,0-10.208-4.575-10.208-10.208
		c0-5.641,4.568-10.208,10.208-10.208C31.382,83.918,35.957,88.485,35.957,94.126z"/>
	<path fill="#CC0000" d="M60.566,33.884c0,0-2.6-0.678-5.883-0.678c-3.281,0-8.495,0-14.614,3.123
		C34.948,38.949,19.8,55.262,19.8,55.262s-2.714,1.129-8.054,2.684c-9.213,2.683-8.815,4.912-9.213,7.9
		c-0.394,2.961,1.317,7.751,1.317,7.751l8.196,0.149c0,0,6.582-6.882,17.146-5.366c12.327,1.767,16.842,11.822,16.842,11.822h14.61
		L60.566,33.884z M54.119,55.203l-24.503-0.094c0,0,9.959-13.102,14.531-14.912c4.587-1.817,9.972-0.626,9.972-0.626V55.203z"/>
	<path fill="#CC0000" d="M65.789,0.998v67.822H171V0.998H65.789z M133.375,55.724l-14.862-10.81l-14.728,11.014l5.536-17.697
		L94.461,27.42l18.283-0.125l5.539-17.689l5.757,17.619l18.288-0.129l-14.719,11.019L133.375,55.724z"/>
</g>
</svg>
