<?xml version="1.0" encoding="utf-8"?>
<!-- Generator: Adobe Illustrator 16.0.4, SVG Export Plug-In . SVG Version: 6.00 Build 0)  -->
<!DOCTYPE svg PUBLIC "-//W3C//DTD SVG 1.1//EN" "http://www.w3.org/Graphics/SVG/1.1/DTD/svg11.dtd">
<svg version="1.1" id="Layer_1" xmlns="http://www.w3.org/2000/svg" xmlns:xlink="http://www.w3.org/1999/xlink" x="0px" y="0px"
	 width="45px" height="45px" viewBox="14.858 14.859 45 45" enable-background="new 14.858 14.859 45 45" xml:space="preserve">
<path fill="#FFFFFF" d="M58.482,58.48L48.317,43.371c0.677-1.229,1.15-2.585,1.382-4.023l10.159-1.99l-10.159-1.987
	c-0.851-5.31-5.041-9.5-10.351-10.35l-1.991-10.161L35.37,25.021c-1.438,0.23-2.794,0.704-4.023,1.381L16.235,16.238l10.163,15.11
	c-0.675,1.229-1.148,2.585-1.379,4.021l-10.161,1.988l10.161,1.99c0.848,5.308,5.041,9.5,10.351,10.35l1.988,10.162l1.988-10.162
	c1.438-0.23,2.794-0.703,4.022-1.38L58.482,58.48z M37.358,27.241c5.579,0,10.12,4.539,10.12,10.117c0,1.308-0.254,2.56-0.711,3.711
	l-4.284-6.37l-2.462-2.465l-6.371-4.286C34.8,27.496,36.049,27.241,37.358,27.241z M37.358,47.478
	c-5.579,0-10.118-4.542-10.118-10.12c0-1.308,0.252-2.558,0.706-3.706l4.287,6.368l2.46,2.463l6.373,4.284
	C39.917,47.223,38.667,47.478,37.358,47.478z M37.361,31.427l1.252,3.871h4.073l-3.296,2.395l1.258,3.871l-3.288-2.393l-3.295,2.393
	l1.259-3.871l-3.294-2.395H36.1L37.361,31.427z"/>
</svg>
