<?xml version="1.0" encoding="utf-8"?>
<!-- Generator: Adobe Illustrator 16.0.4, SVG Export Plug-In . SVG Version: 6.00 Build 0)  -->
<!DOCTYPE svg PUBLIC "-//W3C//DTD SVG 1.1//EN" "http://www.w3.org/Graphics/SVG/1.1/DTD/svg11.dtd">
<svg version="1.1" id="Layer_1" xmlns="http://www.w3.org/2000/svg" xmlns:xlink="http://www.w3.org/1999/xlink" x="0px" y="0px"
	 width="50px" height="50px" viewBox="0 0 50 50" enable-background="new 0 0 50 50" xml:space="preserve">
<g>
	<g>
		<path fill="#999999" d="M8.301,19.434c0-6.148,4.984-11.133,11.133-11.133s11.134,4.984,11.134,11.133
			s-4.985,11.132-11.134,11.132S8.301,25.583,8.301,19.434L8.301,19.434z M46.396,42.202L33.15,28.954
			c1.879-2.703,2.982-5.981,2.982-9.521c0-9.223-7.48-16.699-16.701-16.699c-9.221,0-16.7,7.477-16.7,16.699
			c0,9.223,7.479,16.7,16.7,16.7c3.54,0,6.819-1.104,9.521-2.98L42.2,46.398c1.153,1.156,3.045,1.156,4.196,0
			C47.559,45.247,47.559,43.355,46.396,42.202"/>
	</g>
</g>
</svg>
