<?xml version="1.0" encoding="utf-8"?>
<!-- Generator: Adobe Illustrator 16.0.4, SVG Export Plug-In . SVG Version: 6.00 Build 0)  -->
<!DOCTYPE svg PUBLIC "-//W3C//DTD SVG 1.1//EN" "http://www.w3.org/Graphics/SVG/1.1/DTD/svg11.dtd">
<svg version="1.1" id="Layer_1" xmlns="http://www.w3.org/2000/svg" xmlns:xlink="http://www.w3.org/1999/xlink" x="0px" y="0px"
	 width="40px" height="40px" viewBox="0 0 40 40" enable-background="new 0 0 40 40" xml:space="preserve">
<g>
	<path fill="#FFFFFF" d="M29.675,25.674c5.187-5.187,5.187-13.596,0-18.784c-5.188-5.187-13.597-5.187-18.785,0
		c-5.187,5.188-5.187,13.597,0,18.784l9.392,11.895L29.675,25.674z M29.675,25.674"/>
	<g>
		<defs>
			<rect id="SVGID_1_" x="4" y="0.5" width="32" height="40"/>
		</defs>
		<clipPath id="SVGID_2_">
			<use xlink:href="#SVGID_1_"  overflow="visible"/>
		</clipPath>
		<path clip-path="url(#SVGID_2_)" fill="none" stroke="#D5D5D5" stroke-miterlimit="10" d="M29.5,26
			c5.361-5.513,5.361-13.922,0.175-19.11c-5.188-5.187-13.597-5.187-18.785,0c-5.187,5.188-5.187,13.597,0,18.784l9.392,11.895
			L29.5,26L29.5,26z M29.5,26"/>
	</g>
	<path fill="#D71E00" d="M26.464,24.163l-6.181-4.358l-6.181,4.358l2.36-6.591l-6.181-3.899h7.642l2.36-7.05l2.361,7.05h7.639
		l-6.181,3.899L26.464,24.163z M26.464,24.163"/>
</g>
</svg>
