<?xml version="1.0" encoding="utf-8"?>
<!-- Generator: Adobe Illustrator 16.0.4, SVG Export Plug-In . SVG Version: 6.00 Build 0)  -->
<!DOCTYPE svg PUBLIC "-//W3C//DTD SVG 1.1//EN" "http://www.w3.org/Graphics/SVG/1.1/DTD/svg11.dtd">
<svg version="1.1" id="Layer_1" xmlns="http://www.w3.org/2000/svg" xmlns:xlink="http://www.w3.org/1999/xlink" x="0px" y="0px"
	 width="35px" height="50px" viewBox="0 0 35 50" enable-background="new 0 0 35 50" xml:space="preserve">
<g>
	<path fill-rule="evenodd" clip-rule="evenodd" fill="#505050" d="M13.57,16.282c-0.091,0.404,0.733,0.528,0.879,0.044
		c0.078-0.26-0.033-0.741,0.007-1.233c0.377-4.572-2.087-13.344,1.781-13.835c4.474-0.568,7.414,6.607,7.667,11.503
		c0.064,1.277-0.014,2.586-0.1,2.865c-0.146,0.477,0.568,0.626,0.715,0.137c0.17-0.57,0.129-1.85,0.064-3.016
		c-0.305-5.61-3.533-13.056-8.583-12.127c-2.104,0.387-2.687,2.46-2.838,5.393c-0.168,3.25,0.795,6.581,0.487,9.077
		C13.587,15.588,13.612,16.089,13.57,16.282L13.57,16.282z"/>
	<path fill-rule="evenodd" clip-rule="evenodd" fill="#B13438" d="M33.754,12.446l-3.498,30.38L6,41.892l0.228-31.858
		C6.228,10.033,33.627,12.328,33.754,12.446L33.754,12.446z"/>
	<polygon fill-rule="evenodd" clip-rule="evenodd" fill="#80050B" points="26.748,13.631 27.408,40.726 33.592,43.466 
		33.766,12.498 26.748,13.631 	"/>
	<path fill-rule="evenodd" clip-rule="evenodd" fill="#4B0003" d="M26.748,13.631L26.293,25.01l2.295-0.038l0.402-9.645
		C28.99,15.327,26.643,13.531,26.748,13.631L26.748,13.631z"/>
	<path fill-rule="evenodd" clip-rule="evenodd" fill="#4B0003" d="M28.445,39.126l0.025,10.111l0.301,0.22l4.82-5.991
		c0,0-5.252-4.675-5.146-4.663V39.126z"/>
	<polygon fill-rule="evenodd" clip-rule="evenodd" fill="#80050B" points="6.059,32.812 6.228,10.033 7.179,11.75 	"/>
	<polygon fill-rule="evenodd" clip-rule="evenodd" fill="#4B0003" points="6.424,38.095 1.463,12.915 7.179,11.75 	"/>
	<path fill-rule="evenodd" clip-rule="evenodd" fill="#D43438" d="M28.99,15.327l-0.219,34.13L1.237,44.771l0.227-31.856
		C1.463,12.915,28.863,15.208,28.99,15.327L28.99,15.327z"/>
	<circle fill-rule="evenodd" clip-rule="evenodd" fill="#0A0A0A" cx="9.595" cy="16.759" r="0.485"/>
	<circle fill-rule="evenodd" clip-rule="evenodd" fill="#0A0A0A" cx="19.734" cy="17.407" r="0.486"/>
	<path fill-rule="evenodd" clip-rule="evenodd" fill="#3A3A3A" d="M20.117,17.282c0.092,0.406-0.734,0.53-0.881,0.045
		c-0.076-0.259-0.176-0.8-0.219-1.293c-0.377-4.57,1.746-13.974-2.123-14.466C12.419,1,9.824,8.807,9.57,13.702
		c-0.065,1.279,0.226,2.646,0.312,2.925c0.146,0.478-0.569,0.626-0.715,0.137c-0.169-0.569-0.341-1.908-0.278-3.073
		c0.307-5.611,3.194-13.688,8.243-12.76c2.101,0.387,2.685,2.46,2.835,5.393c0.168,3.251-0.451,7.214-0.145,9.707
		C19.885,16.529,20.074,17.089,20.117,17.282L20.117,17.282z"/>
	<polygon fill="#FFFFFF" points="14.538,20.946 12.093,28.209 4.188,27.379 10.584,32.746 8.142,40.031 14.538,36.068 
		20.936,41.395 18.492,33.573 24.889,29.553 16.98,28.722 	"/>
</g>
</svg>
