<?xml version="1.0" encoding="utf-8"?>
<!-- Generator: Adobe Illustrator 16.0.4, SVG Export Plug-In . SVG Version: 6.00 Build 0)  -->
<!DOCTYPE svg PUBLIC "-//W3C//DTD SVG 1.1//EN" "http://www.w3.org/Graphics/SVG/1.1/DTD/svg11.dtd">
<svg version="1.1" id="Layer_1" xmlns="http://www.w3.org/2000/svg" xmlns:xlink="http://www.w3.org/1999/xlink" x="0px" y="0px"
   width="160px" height="310px" viewBox="0 0 160 310" enable-background="new 0 0 160 310" xml:space="preserve">
<g>
  <path fill="#030303" d="M134.25,2.105H26.419c-13.237,0-23.967,10.728-23.967,23.963v257.87c0,13.233,10.729,23.959,23.967,23.959
    H134.25c13.234,0,23.963-10.726,23.963-23.959V26.072C158.213,12.833,147.484,2.105,134.25,2.105 M68.546,27.532h23.569
    c1.76,0,3.189,1.429,3.189,3.19c0,1.765-1.425,3.192-3.189,3.192H68.546c-1.761,0-3.194-1.427-3.194-3.192
    C65.354,28.96,66.785,27.532,68.546,27.532 M54.814,26.31c2.098,0,3.803,1.704,3.803,3.805c0,2.1-1.706,3.804-3.803,3.804
    c-2.104,0-3.806-1.702-3.806-3.804C51.005,28.013,52.71,26.31,54.814,26.31 M80.334,294.969c-8.272,0-14.979-6.703-14.979-14.974
    c0-8.274,6.709-14.978,14.979-14.978c8.27,0,14.977,6.701,14.977,14.978C95.311,288.266,88.604,294.969,80.334,294.969
     M146.23,254.354H14.435V55.652H146.23V254.354z"/>
  <path fill="#ED2224" d="M141.098,186.628c0,2.877-2.332,5.209-5.209,5.209H24.78c-2.875,0-5.207-2.332-5.207-5.209v-65.969
    c0-2.877,2.332-5.209,5.207-5.209h111.109c2.877,0,5.209,2.332,5.209,5.209V186.628z"/>
  <polygon fill="#FFFFFF" points="80.361,123.697 75.03,140.073 57.672,140.073 71.733,150.251 66.408,166.635 80.338,156.496
    94.354,166.682 88.994,150.224 102.998,140.073 85.693,140.073  "/>
  <g>
    <path fill="#FFFFFF" d="M65.41,173.859L65.41,173.859c-0.172,0.191-0.299,0.371-0.402,0.552c-0.099,0.175-0.174,0.339-0.234,0.487
      l-0.048,0.147l-0.048-0.147c-0.002,0-0.089-0.195-0.209-0.42c-0.12-0.227-0.269-0.486-0.393-0.619
      c-0.294-0.351-0.669-0.619-1.112-0.807c-0.443-0.18-0.945-0.273-1.495-0.273c-0.306,0-0.837,0.043-1.398,0.296
      c-0.561,0.261-1.15,0.728-1.574,1.573l-0.101,0.181v-0.201v-0.778v-0.854h-0.184H58.03v4.445v4.445h0.184h0.184v-2.576v-2.494
      c0-0.594,0.07-1.107,0.207-1.553c0.139-0.438,0.35-0.822,0.638-1.15c0.242-0.312,0.586-0.576,0.977-0.752
      c0.393-0.174,0.828-0.266,1.255-0.248c0.532,0.016,1.003,0.117,1.406,0.297c0.404,0.186,0.738,0.449,1.007,0.789
      c0.207,0.279,0.371,0.566,0.483,0.943c0.114,0.377,0.176,0.842,0.176,1.487c0,0.043-0.002,0.086-0.002,0.132
      c0,0.043,0,0.092-0.002,0.141v2.451v2.533h0.184h0.184v-2.533v-2.451c0-0.687,0.025-1.172,0.127-1.586
      c0.103-0.412,0.276-0.756,0.58-1.148c0.298-0.387,0.702-0.652,1.125-0.822c0.421-0.164,0.862-0.231,1.239-0.231
      c0.46,0,0.872,0.062,1.23,0.194c0.355,0.129,0.661,0.324,0.911,0.582c0.315,0.314,0.545,0.717,0.702,1.215
      c0.153,0.498,0.23,1.097,0.23,1.797v2.451v2.533h0.184h0.184v-2.533v-2.451c0-0.748-0.083-1.395-0.255-1.93
      c-0.17-0.545-0.425-0.983-0.762-1.312c-0.294-0.292-0.644-0.516-1.048-0.663c-0.406-0.146-0.864-0.217-1.375-0.217
      c-0.499,0-0.988,0.095-1.431,0.286C66.11,173.251,65.718,173.521,65.41,173.859"/>
    <path fill="#FFFFFF" d="M72.3,177.457v-0.004v-0.012c0-1.234,0.464-2.314,1.233-3.088c0.77-0.779,1.849-1.24,3.075-1.24
      c0.903,0,1.744,0.26,2.442,0.72c0.696,0.462,1.245,1.118,1.562,1.925c0.101,0.237,0.18,0.492,0.229,0.762
      c0.05,0.265,0.08,0.541,0.08,0.821c0.007,0.276-0.008,0.552-0.052,0.821c-0.043,0.271-0.114,0.529-0.207,0.773
      c-0.312,0.881-0.845,1.59-1.539,2.076c-0.69,0.487-1.537,0.762-2.461,0.762c-1.419,0-2.504-0.545-3.239-1.354
      C72.688,179.609,72.31,178.533,72.3,177.457 M71.932,177.441c0,1.129,0.408,2.299,1.199,3.185c0.789,0.88,1.958,1.483,3.477,1.483
      c0.932,0,1.767-0.224,2.471-0.652c0.704-0.424,1.278-1.055,1.69-1.863l0.099-0.203l0.002,0.226v1.1v1.179h0.181h0.188v-4.451
      v-4.445h-0.188H80.87v1.199v1.127v0.238l-0.104-0.224c-0.24-0.635-0.756-1.276-1.472-1.758c-0.719-0.483-1.638-0.802-2.686-0.802
      c-1.518,0-2.688,0.601-3.477,1.482C72.34,175.143,71.932,176.314,71.932,177.441"/>
    <path fill="#FFFFFF" d="M81.646,177.457c0,1.16,0.414,2.32,1.213,3.195c0.801,0.869,1.986,1.457,3.55,1.457
      c0.991,0,1.903-0.293,2.649-0.801c0.748-0.514,1.33-1.25,1.651-2.15h-0.228h-0.187c-0.217,0.625-0.677,1.275-1.351,1.77
      c-0.672,0.498-1.559,0.838-2.617,0.848c-0.576,0-1.133-0.11-1.646-0.312c-0.51-0.201-0.98-0.502-1.377-0.891
      c-0.42-0.396-0.738-0.875-0.955-1.408c-0.223-0.529-0.334-1.113-0.334-1.723c0-0.599,0.123-1.203,0.34-1.742
      c0.222-0.541,0.535-1.023,0.916-1.367c0.482-0.43,0.938-0.73,1.431-0.928c0.493-0.195,1.019-0.287,1.644-0.291
      c0.741-0.012,1.567,0.188,2.288,0.635c0.722,0.441,1.341,1.119,1.681,2.061h0.188h0.224c-0.392-1.117-1.105-1.875-1.912-2.351
      c-0.812-0.483-1.717-0.679-2.484-0.679c-1.334,0-2.506,0.498-3.344,1.334C82.154,174.951,81.646,176.123,81.646,177.457"/>
    <path fill="#FFFFFF" d="M97.604,172.996c-0.011,0.033-0.896,2.109-1.773,4.174c-0.881,2.068-1.754,4.129-1.754,4.129l-0.049,0.131
      l-0.047-0.131c0,0-0.828-2.061-1.646-4.129c-0.828-2.064-1.652-4.141-1.665-4.174H90.48h-0.224
      c0.025,0.074,0.911,2.299,1.784,4.509c0.881,2.21,1.748,4.397,1.748,4.397l0.006,0.021l-0.012,0.021c0,0-0.369,0.853-0.752,1.728
      c-0.387,0.873-0.779,1.765-0.805,1.832h0.231h0.19c0.017-0.03,1.353-3.124,2.687-6.224c1.341-3.1,2.683-6.209,2.72-6.284h-0.25
      L97.604,172.996L97.604,172.996z"/>
    <path fill="#FFFFFF" d="M98.064,175.047c0.026,0.747,0.281,1.219,0.699,1.551c0.418,0.336,1.002,0.53,1.686,0.729
      c0.77,0.171,1.314,0.414,1.674,0.768c0.352,0.356,0.521,0.827,0.536,1.438c0,0.01,0,0.025,0,0.037
      c0.006,0.01,0.006,0.021,0.006,0.031c0,0.297-0.054,0.577-0.161,0.836c-0.1,0.262-0.253,0.494-0.443,0.694
      c-0.201,0.207-0.444,0.371-0.721,0.478c-0.27,0.11-0.572,0.168-0.885,0.168c-0.694,0-1.271-0.226-1.682-0.629
      c-0.406-0.396-0.646-0.963-0.66-1.648h-0.187h-0.186c0,0.021-0.007,0.043-0.007,0.064c0,0.016,0,0.037,0,0.059
      c0,0.312,0.061,0.607,0.164,0.885c0.106,0.271,0.267,0.523,0.479,0.746c0.253,0.271,0.573,0.488,0.928,0.637
      c0.354,0.144,0.747,0.223,1.149,0.223c0.371,0,0.726-0.073,1.05-0.207c0.323-0.137,0.612-0.338,0.855-0.594
      c0.234-0.248,0.414-0.533,0.525-0.848c0.117-0.312,0.165-0.65,0.145-0.995c-0.049-0.923-0.383-1.462-0.85-1.817
      c-0.467-0.354-1.074-0.514-1.668-0.68l-0.037-0.009l-0.037-0.012c-0.631-0.175-1.117-0.366-1.451-0.651
      c-0.34-0.291-0.524-0.678-0.553-1.246c-0.016-0.253,0.027-0.502,0.107-0.729c0.078-0.224,0.207-0.431,0.371-0.604
      c0.189-0.195,0.418-0.344,0.676-0.449c0.262-0.102,0.553-0.153,0.865-0.153c0.279-0.007,0.551,0.036,0.789,0.123
      c0.242,0.088,0.456,0.222,0.63,0.391c0.171,0.164,0.298,0.371,0.387,0.604c0.091,0.23,0.14,0.492,0.144,0.783h0.187h0.187
      c-0.017-0.674-0.244-1.229-0.652-1.615c-0.396-0.393-0.975-0.614-1.668-0.627c-0.594,0-1.191,0.181-1.643,0.552
      C98.367,173.695,98.064,174.262,98.064,175.047"/>
    <path fill="#FFFFFF" stroke="#FFFFFF" stroke-width="0.0813" d="M65.41,173.859L65.41,173.859
      c-0.172,0.191-0.299,0.371-0.402,0.552c-0.099,0.175-0.174,0.339-0.234,0.487l-0.048,0.147l-0.048-0.147
      c-0.002,0-0.089-0.195-0.209-0.42c-0.12-0.227-0.269-0.486-0.393-0.619c-0.294-0.351-0.669-0.619-1.112-0.807
      c-0.443-0.18-0.945-0.273-1.495-0.273c-0.306,0-0.837,0.043-1.398,0.296c-0.561,0.261-1.15,0.728-1.574,1.573l-0.101,0.181v-0.201
      v-0.778v-0.854h-0.184H58.03v4.445v4.445h0.184h0.184v-2.576v-2.494c0-0.594,0.07-1.107,0.207-1.553
      c0.139-0.438,0.35-0.822,0.638-1.15c0.242-0.312,0.586-0.576,0.977-0.752c0.393-0.174,0.828-0.266,1.255-0.248
      c0.532,0.016,1.003,0.117,1.406,0.297c0.404,0.186,0.738,0.449,1.007,0.789c0.207,0.279,0.371,0.566,0.483,0.943
      c0.114,0.377,0.176,0.842,0.176,1.487c0,0.043-0.002,0.086-0.002,0.132c0,0.043,0,0.092-0.002,0.141v2.451v2.533h0.184h0.184
      v-2.533v-2.451c0-0.687,0.025-1.172,0.127-1.586c0.103-0.412,0.276-0.756,0.58-1.148c0.298-0.387,0.702-0.652,1.125-0.822
      c0.421-0.164,0.862-0.231,1.239-0.231c0.46,0,0.872,0.062,1.23,0.194c0.355,0.129,0.661,0.324,0.911,0.582
      c0.315,0.314,0.545,0.717,0.702,1.215c0.153,0.498,0.23,1.097,0.23,1.797v2.451v2.533h0.184h0.184v-2.533v-2.451
      c0-0.748-0.083-1.395-0.255-1.93c-0.17-0.545-0.425-0.983-0.762-1.312c-0.294-0.292-0.644-0.516-1.048-0.663
      c-0.406-0.146-0.864-0.217-1.375-0.217c-0.499,0-0.988,0.095-1.431,0.286C66.11,173.251,65.718,173.521,65.41,173.859"/>
    <path fill="#FFFFFF" stroke="#FFFFFF" stroke-width="0.0813" d="M72.3,177.457v-0.004v-0.012c0-1.234,0.464-2.314,1.233-3.088
      c0.77-0.779,1.849-1.24,3.075-1.24c0.903,0,1.744,0.26,2.442,0.72c0.696,0.462,1.245,1.118,1.562,1.925
      c0.101,0.237,0.18,0.492,0.229,0.762c0.05,0.265,0.08,0.541,0.08,0.821c0.007,0.276-0.008,0.552-0.052,0.821
      c-0.043,0.271-0.114,0.529-0.207,0.773c-0.312,0.881-0.845,1.59-1.539,2.076c-0.69,0.487-1.537,0.762-2.461,0.762
      c-1.419,0-2.504-0.545-3.239-1.354C72.688,179.609,72.31,178.533,72.3,177.457 M71.932,177.441c0,1.129,0.408,2.299,1.199,3.185
      c0.789,0.88,1.958,1.483,3.477,1.483c0.932,0,1.767-0.224,2.471-0.652c0.704-0.424,1.278-1.055,1.69-1.863l0.099-0.203
      l0.002,0.226v1.1v1.179h0.181h0.188v-4.451v-4.445h-0.188H80.87v1.199v1.127v0.238l-0.104-0.224
      c-0.24-0.635-0.756-1.276-1.472-1.758c-0.719-0.483-1.638-0.802-2.686-0.802c-1.518,0-2.688,0.601-3.477,1.482
      C72.34,175.143,71.932,176.314,71.932,177.441"/>
    <path fill="#FFFFFF" stroke="#FFFFFF" stroke-width="0.0813" d="M81.646,177.457c0,1.16,0.414,2.32,1.213,3.195
      c0.801,0.869,1.986,1.457,3.55,1.457c0.991,0,1.903-0.293,2.649-0.801c0.748-0.514,1.33-1.25,1.651-2.15h-0.228h-0.187
      c-0.217,0.625-0.677,1.275-1.351,1.77c-0.672,0.498-1.559,0.838-2.617,0.848c-0.576,0-1.133-0.11-1.646-0.312
      c-0.51-0.201-0.98-0.502-1.377-0.891c-0.42-0.396-0.738-0.875-0.955-1.408c-0.223-0.529-0.334-1.113-0.334-1.723
      c0-0.599,0.123-1.203,0.34-1.742c0.222-0.541,0.535-1.023,0.916-1.367c0.482-0.43,0.938-0.73,1.431-0.928
      c0.493-0.195,1.019-0.287,1.644-0.291c0.741-0.012,1.567,0.188,2.288,0.635c0.722,0.441,1.341,1.119,1.681,2.061h0.188h0.224
      c-0.392-1.117-1.105-1.875-1.912-2.351c-0.812-0.483-1.717-0.679-2.484-0.679c-1.334,0-2.506,0.498-3.344,1.334
      C82.154,174.951,81.646,176.123,81.646,177.457"/>
    <path fill="#FFFFFF" stroke="#FFFFFF" stroke-width="0.0813" d="M97.604,172.996c-0.011,0.033-0.896,2.109-1.773,4.174
      c-0.881,2.068-1.754,4.129-1.754,4.129l-0.049,0.131l-0.047-0.131c0,0-0.828-2.061-1.646-4.129
      c-0.828-2.064-1.652-4.141-1.665-4.174H90.48h-0.224c0.025,0.074,0.911,2.299,1.784,4.509c0.881,2.21,1.748,4.397,1.748,4.397
      l0.006,0.021l-0.012,0.021c0,0-0.369,0.853-0.752,1.728c-0.387,0.873-0.779,1.765-0.805,1.832h0.231h0.19
      c0.017-0.03,1.353-3.124,2.687-6.224c1.341-3.1,2.683-6.209,2.72-6.284h-0.25L97.604,172.996L97.604,172.996z"/>
    <path fill="#FFFFFF" stroke="#FFFFFF" stroke-width="0.0813" d="M98.064,175.047c0.026,0.747,0.281,1.219,0.699,1.551
      c0.418,0.336,1.002,0.53,1.686,0.729c0.77,0.171,1.314,0.414,1.674,0.768c0.352,0.356,0.521,0.827,0.536,1.438
      c0,0.01,0,0.025,0,0.037c0.006,0.01,0.006,0.021,0.006,0.031c0,0.297-0.054,0.577-0.161,0.836c-0.1,0.262-0.253,0.494-0.443,0.694
      c-0.201,0.207-0.444,0.371-0.721,0.478c-0.27,0.11-0.572,0.168-0.885,0.168c-0.694,0-1.271-0.226-1.682-0.629
      c-0.406-0.396-0.646-0.963-0.66-1.648h-0.187h-0.186c0,0.021-0.007,0.043-0.007,0.064c0,0.016,0,0.037,0,0.059
      c0,0.312,0.061,0.607,0.164,0.885c0.106,0.271,0.267,0.523,0.479,0.746c0.253,0.271,0.573,0.488,0.928,0.637
      c0.354,0.144,0.747,0.223,1.149,0.223c0.371,0,0.726-0.073,1.05-0.207c0.323-0.137,0.612-0.338,0.855-0.594
      c0.234-0.248,0.414-0.533,0.525-0.848c0.117-0.312,0.165-0.65,0.145-0.995c-0.049-0.923-0.383-1.462-0.85-1.817
      c-0.467-0.354-1.074-0.514-1.668-0.68l-0.037-0.009l-0.037-0.012c-0.631-0.175-1.117-0.366-1.451-0.651
      c-0.34-0.291-0.524-0.678-0.553-1.246c-0.016-0.253,0.027-0.502,0.107-0.729c0.078-0.224,0.207-0.431,0.371-0.604
      c0.189-0.195,0.418-0.344,0.676-0.449c0.262-0.102,0.553-0.153,0.865-0.153c0.279-0.007,0.551,0.036,0.789,0.123
      c0.242,0.088,0.456,0.222,0.63,0.391c0.171,0.164,0.298,0.371,0.387,0.604c0.091,0.23,0.14,0.492,0.144,0.783h0.187h0.187
      c-0.017-0.674-0.244-1.229-0.652-1.615c-0.396-0.393-0.975-0.614-1.668-0.627c-0.594,0-1.191,0.181-1.643,0.552
      C98.367,173.695,98.064,174.262,98.064,175.047"/>
    <polygon fill="#FFFFFF" points="98.717,171.1 98.484,170.391 98.25,171.1 97.498,171.1 98.107,171.546 97.879,172.256
      98.484,171.814 99.088,172.26 98.859,171.546 99.465,171.1    "/>
  </g>
</g>
</svg>
