<?xml version="1.0" encoding="utf-8"?>
<!-- Generator: Adobe Illustrator 16.0.4, SVG Export Plug-In . SVG Version: 6.00 Build 0)  -->
<!DOCTYPE svg PUBLIC "-//W3C//DTD SVG 1.1//EN" "http://www.w3.org/Graphics/SVG/1.1/DTD/svg11.dtd">
<svg version="1.1" id="Layer_1" xmlns="http://www.w3.org/2000/svg" xmlns:xlink="http://www.w3.org/1999/xlink" x="0px" y="0px"
	 width="60px" height="60px" viewBox="0 0 60 60" enable-background="new 0 0 60 60" xml:space="preserve">
<linearGradient id="SVGID_1_" gradientUnits="userSpaceOnUse" x1="315" y1="-304.6812" x2="315" y2="-364.3188" gradientTransform="matrix(1 0 0 -1 -285 -304.5)">
	<stop  offset="0" style="stop-color:#981B1E"/>
	<stop  offset="1" style="stop-color:#EC1E24"/>
</linearGradient>
<path fill="url(#SVGID_1_)" d="M59.82,53.543c0,3.465-2.812,6.275-6.279,6.275H6.458c-3.467,0-6.277-2.812-6.277-6.275V6.458
	c0-3.465,2.811-6.277,6.277-6.277h47.083c3.468,0,6.279,2.812,6.279,6.277V53.543z"/>
<g id="World_Bubble">
	<g>
		<path fill="#FFFFFF" d="M30,11.12c-11.546,0-20.906,7.394-20.906,16.513c0,4.566,2.346,8.699,6.138,11.688
			c0.608,0.479,1.254,0.93,1.934,1.348c1.01,0.622-1.225,5.986-3.3,8.212c7.061-1.126,9.222-5.612,10.666-5.305
			c0.854,0.182,1.728,0.323,2.619,0.419c0.932,0.102,1.882,0.152,2.849,0.152c11.544,0,20.904-7.394,20.904-16.514
			C50.904,18.514,41.545,11.12,30,11.12z"/>
	</g>
</g>
<g>
	<path fill="#CA2027" d="M20.371,26.781c2.134,0.526,2.677,1.901,2.677,3.199c0,2.01-1.395,3.506-4.214,3.506
		c-2.961,0-4.285-1.606-4.285-2.812c0-0.618,0.412-1.05,0.982-1.05c1.267,0,0.938,2.009,3.302,2.009
		c1.209,0,1.878-0.727,1.878-1.468c0-0.449-0.199-0.943-0.996-1.16l-2.633-0.726c-2.123-0.587-2.506-1.854-2.506-3.044
		c0-2.473,2.107-3.4,4.086-3.4c1.821,0,3.972,1.113,3.972,2.597c0,0.634-0.497,1.005-1.067,1.005c-1.083,0-0.883-1.654-3.062-1.654
		c-1.08,0-1.678,0.541-1.678,1.314c0,0.772,0.854,1.02,1.594,1.206L20.371,26.781z"/>
	<g>
		<path fill="#CA2027" d="M24.941,23.149c0.027-1.019,0.656-1.251,1.285-1.251c0.147,0,0.294,0,0.441,0
			c0.727,0,1.07,0.309,1.306,1.159c0.656,2.379,1.291,4.767,2.042,7.214c0.01,0,0.021,0,0.031,0
			c0.738-2.448,1.363-4.835,2.009-7.214c0.235-0.85,0.578-1.159,1.303-1.159c0.123,0,0.246,0,0.367,0
			c0.629,0,1.262,0.232,1.289,1.251c0.178,3.009,0.67,6.012,1.064,9.009c0.059,0.629-0.225,1.259-1.107,1.318
			c-0.886,0.057-1.258-0.557-1.298-1.207c-0.151-2.358-0.312-4.671-0.399-6.973c-0.01,0-0.02,0-0.029,0
			c-0.651,2.355-1.314,4.733-2.1,7.196c-0.168,0.55-0.582,0.782-1.145,0.782c-0.564,0-0.976-0.232-1.144-0.782
			c-0.785-2.463-1.449-4.841-2.101-7.196c-0.01,0-0.019,0-0.029,0c-0.089,2.301-0.249,4.614-0.399,6.973
			c-0.041,0.649-0.413,1.264-1.298,1.207c-0.883-0.061-1.168-0.69-1.109-1.319C24.295,29.16,24.774,26.158,24.941,23.149z"/>
	</g>
	<path fill="#CA2027" d="M42.775,26.781c2.135,0.526,2.676,1.901,2.676,3.199c0,2.01-1.396,3.506-4.215,3.506
		c-2.961,0-4.284-1.606-4.284-2.812c0-0.618,0.413-1.05,0.983-1.05c1.266,0,0.938,2.009,3.299,2.009
		c1.211,0,1.882-0.727,1.882-1.468c0-0.449-0.201-0.943-0.997-1.16l-2.635-0.726c-2.121-0.587-2.504-1.854-2.504-3.044
		c0-2.473,2.106-3.4,4.084-3.4c1.822,0,3.972,1.113,3.972,2.597c0,0.634-0.496,1.005-1.065,1.005c-1.084,0-0.883-1.654-3.062-1.654
		c-1.084,0-1.681,0.541-1.681,1.314c0,0.772,0.854,1.02,1.595,1.206L42.775,26.781z"/>
</g>
</svg>
