<?xml version="1.0" encoding="utf-8"?>
<!-- Generator: Adobe Illustrator 16.0.4, SVG Export Plug-In . SVG Version: 6.00 Build 0)  -->
<!DOCTYPE svg PUBLIC "-//W3C//DTD SVG 1.1//EN" "http://www.w3.org/Graphics/SVG/1.1/DTD/svg11.dtd">
<svg version="1.1" id="Layer_1" xmlns="http://www.w3.org/2000/svg" xmlns:xlink="http://www.w3.org/1999/xlink" x="0px" y="0px"
	 width="40px" height="50px" viewBox="0 0 40 50" enable-background="new 0 0 40 50" xml:space="preserve">
<g>
	<g>
		<path fill="#73A592" d="M3.431,21.304V49.39h33.141V21.304H3.431z M25.975,43.817l-6.032-4.391l-6.04,4.391l2.308-7.111
			l-6.049-4.379h7.47l2.312-7.112l2.304,7.112h7.47l-6.047,4.379L25.975,43.817z"/>
	</g>
</g>
<path fill="#73A592" d="M38.931,15.677H22.603c5.768-1.703,18.248-6.335,11.708-13.044c-7.19-7.374-14.52,7.714-14.872,8.505
	C19.084,10.347,9.27-1.55,5.025,7.463c-2.363,5.021,3.402,7.245,8.22,8.214H1.069l2.319,1.281l-2.319,1.438h37.861l-2.316-1.38
	L38.931,15.677z M31.161,5.208c3.987,3.901-10.045,8.25-10.045,8.25S27.285,1.416,31.161,5.208z M7.553,8.823
	c3.452-6.694,10.212,4.609,10.212,4.609S7.01,13.735,7.553,8.823z"/>
</svg>
