<?xml version="1.0" encoding="utf-8"?>
<!-- Generator: Adobe Illustrator 16.0.4, SVG Export Plug-In . SVG Version: 6.00 Build 0)  -->
<!DOCTYPE svg PUBLIC "-//W3C//DTD SVG 1.1//EN" "http://www.w3.org/Graphics/SVG/1.1/DTD/svg11.dtd">
<svg version="1.1" id="Layer_1" xmlns="http://www.w3.org/2000/svg" xmlns:xlink="http://www.w3.org/1999/xlink" x="0px" y="0px"
	 width="20px" height="20px" viewBox="0 0 20 20" enable-background="new 0 0 20 20" xml:space="preserve">
<path fill="#D71E00" d="M16.433,7.925C16.4,7.821,16.304,7.75,16.194,7.75h-4.361l-1.346-3.979c-0.07-0.203-0.404-0.203-0.475,0
	L8.667,7.75H4.306c-0.109,0-0.206,0.071-0.239,0.175s0.006,0.218,0.096,0.28l3.519,2.44l-1.343,3.961
	c-0.035,0.102,0,0.215,0.086,0.28c0.087,0.065,0.204,0.067,0.293,0.005l3.531-2.458l3.531,2.458c0.043,0.03,0.093,0.045,0.143,0.045
	c0.053,0,0.105-0.017,0.15-0.05c0.086-0.065,0.121-0.179,0.086-0.28l-1.343-3.961l3.52-2.44C16.427,8.143,16.466,8.03,16.433,7.925z
	"/>
</svg>
