<?xml version="1.0" encoding="utf-8"?>
<!-- Generator: Adobe Illustrator 16.0.4, SVG Export Plug-In . SVG Version: 6.00 Build 0)  -->
<!DOCTYPE svg PUBLIC "-//W3C//DTD SVG 1.1//EN" "http://www.w3.org/Graphics/SVG/1.1/DTD/svg11.dtd">
<svg version="1.1" id="Layer_1" xmlns="http://www.w3.org/2000/svg" xmlns:xlink="http://www.w3.org/1999/xlink" x="0px" y="0px"
	 width="120px" height="75px" viewBox="0 0 120 75" enable-background="new 0 0 120 75" xml:space="preserve">
<path fill="#ED2224" d="M117.945,69.146c0,2.75-2.229,4.978-4.978,4.978H6.783c-2.747,0-4.977-2.229-4.977-4.978V6.1
	c0-2.747,2.23-4.977,4.977-4.977h106.185c2.749,0,4.978,2.23,4.978,4.977V69.146z"/>
<polygon fill="#FFFFFF" points="59.901,9.005 54.805,24.655 38.217,24.655 51.654,34.38 46.566,50.038 59.877,40.352 73.272,50.083 
	68.153,34.355 81.536,24.655 64.999,24.655 "/>
<g>
	<path fill="#FFFFFF" d="M45.613,56.945L45.613,56.945c-0.166,0.181-0.286,0.353-0.384,0.524c-0.095,0.168-0.166,0.325-0.224,0.466
		l-0.046,0.141l-0.046-0.141c-0.002,0-0.086-0.187-0.201-0.399c-0.114-0.218-0.256-0.466-0.374-0.592
		c-0.281-0.335-0.64-0.592-1.063-0.771c-0.424-0.172-0.903-0.263-1.429-0.263c-0.292,0-0.8,0.039-1.335,0.282
		c-0.537,0.248-1.099,0.693-1.503,1.503l-0.098,0.174v-0.193v-0.745v-0.813h-0.175H38.56v4.248v4.247h0.176h0.175v-2.46v-2.384
		c0-0.567,0.067-1.06,0.198-1.483c0.132-0.42,0.335-0.785,0.61-1.099c0.231-0.299,0.559-0.552,0.932-0.72
		c0.375-0.167,0.791-0.252,1.2-0.236c0.508,0.015,0.959,0.111,1.343,0.282c0.386,0.177,0.707,0.432,0.963,0.754
		c0.196,0.27,0.353,0.543,0.462,0.902c0.109,0.359,0.168,0.805,0.168,1.423c0,0.041-0.002,0.081-0.003,0.127
		c0,0.039,0,0.086,0,0.131v2.345v2.419h0.176h0.176v-2.419v-2.345c0-0.653,0.022-1.12,0.12-1.515
		c0.097-0.394,0.265-0.724,0.556-1.099c0.284-0.369,0.67-0.624,1.074-0.783c0.403-0.158,0.825-0.224,1.185-0.224
		c0.441,0,0.833,0.062,1.175,0.187c0.342,0.123,0.632,0.31,0.871,0.556c0.3,0.299,0.522,0.684,0.671,1.161
		c0.147,0.476,0.22,1.048,0.22,1.718v2.343v2.419h0.175h0.176v-2.419v-2.343c0-0.715-0.081-1.332-0.245-1.844
		c-0.162-0.522-0.405-0.942-0.728-1.256c-0.28-0.277-0.614-0.49-1.001-0.632c-0.388-0.143-0.826-0.207-1.315-0.207
		c-0.476,0-0.944,0.092-1.366,0.273C46.282,56.362,45.906,56.62,45.613,56.945"/>
	<path fill="#FFFFFF" d="M52.197,60.382v-0.007v-0.009c0-1.179,0.443-2.213,1.179-2.953c0.735-0.746,1.767-1.184,2.938-1.184
		c0.862,0,1.668,0.249,2.333,0.688c0.667,0.442,1.19,1.069,1.491,1.839c0.097,0.229,0.173,0.472,0.221,0.73
		c0.048,0.253,0.074,0.516,0.074,0.785c0.008,0.262-0.006,0.525-0.05,0.784c-0.04,0.259-0.109,0.506-0.197,0.739
		c-0.296,0.84-0.808,1.519-1.472,1.985c-0.659,0.466-1.469,0.731-2.352,0.731c-1.356,0-2.392-0.523-3.095-1.298
		C52.57,62.438,52.207,61.41,52.197,60.382 M51.846,60.367c0,1.078,0.39,2.197,1.146,3.043c0.754,0.841,1.871,1.417,3.322,1.417
		c0.891,0,1.688-0.215,2.362-0.624c0.672-0.404,1.223-1.009,1.614-1.782l0.094-0.193l0.002,0.213v1.055v1.123h0.176h0.175v-4.252
		v-4.248h-0.175h-0.176v1.144v1.078v0.228l-0.098-0.213c-0.231-0.607-0.725-1.221-1.409-1.68c-0.686-0.462-1.564-0.764-2.565-0.764
		c-1.452,0-2.568,0.57-3.322,1.417C52.236,58.169,51.846,59.289,51.846,60.367"/>
	<path fill="#FFFFFF" d="M61.132,60.382c0,1.108,0.392,2.218,1.156,3.053c0.766,0.829,1.901,1.393,3.395,1.393
		c0.946,0,1.817-0.279,2.532-0.767c0.712-0.49,1.271-1.193,1.578-2.052h-0.218h-0.175c-0.208,0.596-0.649,1.219-1.291,1.69
		c-0.645,0.476-1.489,0.799-2.501,0.811c-0.552,0-1.083-0.107-1.575-0.3c-0.486-0.191-0.936-0.479-1.316-0.85
		c-0.399-0.38-0.703-0.834-0.914-1.347c-0.21-0.507-0.318-1.063-0.318-1.646c0-0.571,0.117-1.15,0.325-1.666
		c0.211-0.516,0.513-0.976,0.875-1.307c0.463-0.41,0.896-0.698,1.367-0.885c0.472-0.188,0.972-0.274,1.57-0.279
		c0.71-0.01,1.498,0.181,2.188,0.607c0.688,0.42,1.281,1.067,1.605,1.969h0.181h0.213c-0.375-1.068-1.059-1.792-1.826-2.249
		c-0.775-0.461-1.641-0.648-2.375-0.648c-1.275,0-2.394,0.475-3.195,1.275C61.615,57.986,61.132,59.105,61.132,60.382"/>
	<path fill="#FFFFFF" d="M76.38,56.12c-0.009,0.031-0.855,2.014-1.696,3.989c-0.84,1.973-1.676,3.943-1.676,3.943l-0.047,0.126
		l-0.045-0.126c0,0-0.79-1.97-1.575-3.943c-0.79-1.975-1.58-3.959-1.59-3.989h-0.181h-0.214c0.026,0.071,0.871,2.197,1.708,4.309
		c0.837,2.11,1.669,4.202,1.669,4.202l0.006,0.021l-0.011,0.019c0,0-0.354,0.816-0.719,1.652c-0.369,0.835-0.743,1.687-0.77,1.751
		h0.224h0.181c0.016-0.03,1.292-2.986,2.568-5.947c1.28-2.963,2.562-5.935,2.597-6.005h-0.237L76.38,56.12L76.38,56.12z"/>
	<path fill="#FFFFFF" d="M76.822,58.078c0.025,0.714,0.267,1.165,0.667,1.484c0.401,0.319,0.958,0.507,1.612,0.694
		c0.732,0.159,1.255,0.394,1.598,0.733c0.336,0.339,0.497,0.789,0.513,1.371c0,0.01,0,0.026,0,0.037
		c0.006,0.011,0.006,0.019,0.006,0.031c0,0.283-0.051,0.55-0.154,0.798c-0.095,0.249-0.242,0.472-0.424,0.664
		c-0.192,0.198-0.425,0.355-0.689,0.457c-0.257,0.107-0.546,0.163-0.845,0.163c-0.663,0-1.215-0.218-1.604-0.605
		c-0.389-0.378-0.62-0.92-0.635-1.574h-0.175h-0.177c0,0.021-0.006,0.04-0.006,0.061c0,0.016,0,0.036,0,0.055
		c0,0.298,0.054,0.583,0.155,0.847c0.102,0.257,0.255,0.5,0.457,0.712c0.243,0.258,0.547,0.465,0.888,0.607
		c0.339,0.137,0.712,0.215,1.099,0.215c0.354,0,0.694-0.072,1.001-0.198c0.31-0.132,0.588-0.323,0.822-0.568
		c0.22-0.236,0.393-0.51,0.5-0.81c0.111-0.298,0.157-0.621,0.137-0.951c-0.046-0.881-0.364-1.396-0.811-1.737
		c-0.446-0.338-1.027-0.491-1.595-0.648l-0.036-0.011l-0.035-0.01c-0.604-0.168-1.068-0.349-1.387-0.623
		c-0.325-0.279-0.502-0.649-0.527-1.19c-0.015-0.243,0.025-0.481,0.102-0.7c0.076-0.212,0.197-0.411,0.354-0.577
		c0.182-0.188,0.4-0.328,0.649-0.429c0.249-0.098,0.525-0.147,0.825-0.147c0.268-0.006,0.525,0.035,0.755,0.117
		c0.231,0.086,0.434,0.212,0.602,0.374c0.162,0.156,0.283,0.353,0.369,0.577c0.086,0.224,0.132,0.472,0.137,0.749h0.178h0.175
		c-0.016-0.642-0.232-1.175-0.624-1.544c-0.378-0.374-0.93-0.585-1.594-0.598c-0.567,0-1.141,0.172-1.571,0.527
		C77.111,56.786,76.822,57.329,76.822,58.078"/>
	<path fill="#FFFFFF" stroke="#FFFFFF" stroke-width="0.0402" d="M45.613,56.945L45.613,56.945
		c-0.166,0.181-0.286,0.353-0.384,0.524c-0.095,0.168-0.166,0.325-0.224,0.466l-0.046,0.141l-0.046-0.141
		c-0.002,0-0.086-0.187-0.201-0.399c-0.114-0.218-0.256-0.466-0.374-0.592c-0.281-0.335-0.64-0.592-1.063-0.771
		c-0.424-0.172-0.903-0.263-1.429-0.263c-0.292,0-0.8,0.039-1.335,0.282c-0.537,0.248-1.099,0.693-1.503,1.503l-0.098,0.174v-0.193
		v-0.745v-0.813h-0.175H38.56v4.248v4.247h0.176h0.175v-2.46v-2.384c0-0.567,0.067-1.06,0.198-1.483
		c0.132-0.42,0.335-0.785,0.61-1.099c0.231-0.299,0.559-0.552,0.932-0.72c0.375-0.167,0.791-0.252,1.2-0.236
		c0.508,0.015,0.959,0.111,1.343,0.282c0.386,0.177,0.707,0.432,0.963,0.754c0.196,0.27,0.353,0.543,0.462,0.902
		c0.109,0.359,0.168,0.805,0.168,1.423c0,0.041-0.002,0.081-0.003,0.127c0,0.039,0,0.086,0,0.131v2.345v2.419h0.176h0.176v-2.419
		v-2.345c0-0.653,0.022-1.12,0.12-1.515c0.097-0.394,0.265-0.724,0.556-1.099c0.284-0.369,0.67-0.624,1.074-0.783
		c0.403-0.158,0.825-0.224,1.185-0.224c0.441,0,0.833,0.062,1.175,0.187c0.342,0.123,0.632,0.31,0.871,0.556
		c0.3,0.299,0.522,0.684,0.671,1.161c0.147,0.476,0.22,1.048,0.22,1.718v2.343v2.419h0.175h0.176v-2.419v-2.343
		c0-0.715-0.081-1.332-0.245-1.844c-0.162-0.522-0.405-0.942-0.728-1.256c-0.28-0.277-0.614-0.49-1.001-0.632
		c-0.388-0.143-0.826-0.207-1.315-0.207c-0.476,0-0.944,0.092-1.366,0.273C46.282,56.362,45.906,56.62,45.613,56.945"/>
	<path fill="#FFFFFF" stroke="#FFFFFF" stroke-width="0.0402" d="M52.197,60.382v-0.007v-0.009c0-1.179,0.443-2.213,1.179-2.953
		c0.735-0.746,1.767-1.184,2.938-1.184c0.862,0,1.668,0.249,2.333,0.688c0.667,0.442,1.19,1.069,1.491,1.839
		c0.097,0.229,0.173,0.472,0.221,0.73c0.048,0.253,0.074,0.516,0.074,0.785c0.008,0.262-0.006,0.525-0.05,0.784
		c-0.04,0.259-0.109,0.506-0.197,0.739c-0.296,0.84-0.808,1.519-1.472,1.985c-0.659,0.466-1.469,0.731-2.352,0.731
		c-1.356,0-2.392-0.523-3.095-1.298C52.57,62.438,52.207,61.41,52.197,60.382 M51.846,60.367c0,1.078,0.39,2.197,1.146,3.043
		c0.754,0.841,1.871,1.417,3.322,1.417c0.891,0,1.688-0.215,2.362-0.624c0.672-0.404,1.223-1.009,1.614-1.782l0.094-0.193
		l0.002,0.213v1.055v1.123h0.176h0.175v-4.252v-4.248h-0.175h-0.176v1.144v1.078v0.228l-0.098-0.213
		c-0.231-0.607-0.725-1.221-1.409-1.68c-0.686-0.462-1.564-0.764-2.565-0.764c-1.452,0-2.568,0.57-3.322,1.417
		C52.236,58.169,51.846,59.289,51.846,60.367"/>
	<path fill="#FFFFFF" stroke="#FFFFFF" stroke-width="0.0402" d="M61.132,60.382c0,1.108,0.392,2.218,1.156,3.053
		c0.766,0.829,1.901,1.393,3.395,1.393c0.946,0,1.817-0.279,2.532-0.767c0.712-0.49,1.271-1.193,1.578-2.052h-0.218h-0.175
		c-0.208,0.596-0.649,1.219-1.291,1.69c-0.645,0.476-1.489,0.799-2.501,0.811c-0.552,0-1.083-0.107-1.575-0.3
		c-0.486-0.191-0.936-0.479-1.316-0.85c-0.399-0.38-0.703-0.834-0.914-1.347c-0.21-0.507-0.318-1.063-0.318-1.646
		c0-0.571,0.117-1.15,0.325-1.666c0.211-0.516,0.513-0.976,0.875-1.307c0.463-0.41,0.896-0.698,1.367-0.885
		c0.472-0.188,0.972-0.274,1.57-0.279c0.71-0.01,1.498,0.181,2.188,0.607c0.688,0.42,1.281,1.067,1.605,1.969h0.181h0.213
		c-0.375-1.068-1.059-1.792-1.826-2.249c-0.775-0.461-1.641-0.648-2.375-0.648c-1.275,0-2.394,0.475-3.195,1.275
		C61.615,57.986,61.132,59.105,61.132,60.382"/>
	<path fill="#FFFFFF" stroke="#FFFFFF" stroke-width="0.0402" d="M76.38,56.12c-0.009,0.031-0.855,2.014-1.696,3.989
		c-0.84,1.973-1.676,3.943-1.676,3.943l-0.047,0.126l-0.045-0.126c0,0-0.79-1.97-1.575-3.943c-0.79-1.975-1.58-3.959-1.59-3.989
		h-0.181h-0.214c0.026,0.071,0.871,2.197,1.708,4.309c0.837,2.11,1.669,4.202,1.669,4.202l0.006,0.021l-0.011,0.019
		c0,0-0.354,0.816-0.719,1.652c-0.369,0.835-0.743,1.687-0.77,1.751h0.224h0.181c0.016-0.03,1.292-2.986,2.568-5.947
		c1.28-2.963,2.562-5.935,2.597-6.005h-0.237L76.38,56.12L76.38,56.12z"/>
	<path fill="#FFFFFF" stroke="#FFFFFF" stroke-width="0.0402" d="M76.822,58.078c0.025,0.714,0.267,1.165,0.667,1.484
		c0.401,0.319,0.958,0.507,1.612,0.694c0.732,0.159,1.255,0.394,1.598,0.733c0.336,0.339,0.497,0.789,0.513,1.371
		c0,0.01,0,0.026,0,0.037c0.006,0.011,0.006,0.019,0.006,0.031c0,0.283-0.051,0.55-0.154,0.798
		c-0.095,0.249-0.242,0.472-0.424,0.664c-0.192,0.198-0.425,0.355-0.689,0.457c-0.257,0.107-0.546,0.163-0.845,0.163
		c-0.663,0-1.215-0.218-1.604-0.605c-0.389-0.378-0.62-0.92-0.635-1.574h-0.175h-0.177c0,0.021-0.006,0.04-0.006,0.061
		c0,0.016,0,0.036,0,0.055c0,0.298,0.054,0.583,0.155,0.847c0.102,0.257,0.255,0.5,0.457,0.712c0.243,0.258,0.547,0.465,0.888,0.607
		c0.339,0.137,0.712,0.215,1.099,0.215c0.354,0,0.694-0.072,1.001-0.198c0.31-0.132,0.588-0.323,0.822-0.568
		c0.22-0.236,0.393-0.51,0.5-0.81c0.111-0.298,0.157-0.621,0.137-0.951c-0.046-0.881-0.364-1.396-0.811-1.737
		c-0.446-0.338-1.027-0.491-1.595-0.648l-0.036-0.011l-0.035-0.01c-0.604-0.168-1.068-0.349-1.387-0.623
		c-0.325-0.279-0.502-0.649-0.527-1.19c-0.015-0.243,0.025-0.481,0.102-0.7c0.076-0.212,0.197-0.411,0.354-0.577
		c0.182-0.188,0.4-0.328,0.649-0.429c0.249-0.098,0.525-0.147,0.825-0.147c0.268-0.006,0.525,0.035,0.755,0.117
		c0.231,0.086,0.434,0.212,0.602,0.374c0.162,0.156,0.283,0.353,0.369,0.577c0.086,0.224,0.132,0.472,0.137,0.749h0.178h0.175
		c-0.016-0.642-0.232-1.175-0.624-1.544c-0.378-0.374-0.93-0.585-1.594-0.598c-0.567,0-1.141,0.172-1.571,0.527
		C77.111,56.786,76.822,57.329,76.822,58.078"/>
	<polygon fill="#FFFFFF" points="77.445,54.307 77.221,53.628 76.998,54.307 76.279,54.307 76.862,54.732 76.644,55.411 
		77.221,54.99 77.797,55.414 77.581,54.732 78.158,54.307 	"/>
</g>
</svg>
