<?xml version="1.0" encoding="utf-8"?>
<!DOCTYPE svg PUBLIC "-//W3C//DTD SVG 1.1//EN" "http://www.w3.org/Graphics/SVG/1.1/DTD/svg11.dtd">
<svg version="1.1" id="Layer_1" xmlns="http://www.w3.org/2000/svg" xmlns:xlink="http://www.w3.org/1999/xlink" x="0px" y="0px"
	 width="60px" height="113px" viewBox="0 0 60 113" enable-background="new 0 0 60 113" xml:space="preserve">
<path fill="#020202" d="M49.876,0.135H10.124c-4.88,0-8.835,3.955-8.835,8.834v95.063c0,4.879,3.955,8.832,8.835,8.832h39.752
	c4.879,0,8.835-3.953,8.835-8.832V8.97C58.711,4.09,54.755,0.135,49.876,0.135 M25.655,9.509h8.688c0.649,0,1.177,0.526,1.177,1.176
	c0,0.651-0.526,1.177-1.177,1.177h-8.688c-0.65,0-1.178-0.526-1.178-1.177C24.478,10.035,25.005,9.509,25.655,9.509 M20.592,9.058
	c0.773,0,1.402,0.628,1.402,1.403c0,0.774-0.629,1.402-1.402,1.402c-0.775,0-1.403-0.627-1.403-1.402
	C19.188,9.686,19.817,9.058,20.592,9.058 M30,108.1c-3.05,0-5.522-2.471-5.522-5.52c0-3.051,2.473-5.521,5.522-5.521
	s5.521,2.471,5.521,5.521C35.521,105.629,33.049,108.1,30,108.1 M54.292,93.127H5.706V19.875h48.586V93.127z"/>
<polygon fill="#CC0000" points="30.019,38.296 25.646,51.736 11.399,51.736 22.94,60.092 18.571,73.537 30.005,65.221 
	41.505,73.576 37.109,60.068 48.6,51.736 34.398,51.736 "/>
</svg>
