<?xml version="1.0" encoding="utf-8"?>
<!-- Generator: Adobe Illustrator 16.0.4, SVG Export Plug-In . SVG Version: 6.00 Build 0)  -->
<!DOCTYPE svg PUBLIC "-//W3C//DTD SVG 1.1//EN" "http://www.w3.org/Graphics/SVG/1.1/DTD/svg11.dtd">
<svg version="1.1" id="Layer_1" xmlns="http://www.w3.org/2000/svg" xmlns:xlink="http://www.w3.org/1999/xlink" x="0px" y="0px"
	 width="46px" height="61.239px" viewBox="0 0 46 61.239" enable-background="new 0 0 46 61.239" xml:space="preserve">
<g>
	<rect x="4.467" y="20.754" fill="#CB2027" width="37.066" height="37.066"/>
	<path fill="#FFFFFF" stroke="#4F4F4F" stroke-width="1.5" stroke-miterlimit="10" d="M32.354,12.787
		c0.501,2.435,0.132,5.226,0.132,7.698c0,1.908,2.952,1.908,2.952,0c0-3.154,0.352-6.564-0.51-9.635
		c-1.489-5.281-6.54-8.771-11.911-8.869c-5.36-0.099-10.011,3.579-11.789,8.498c-1.108,3.062-0.637,6.805-0.637,10.006
		c0,1.908,2.96,1.908,2.96,0c0-2.419-0.157-4.888,0.068-7.302c0.436-4.733,4.833-8.161,9.397-8.244
		C27.657,4.852,31.452,8.373,32.354,12.787z"/>
	
		<rect x="1.341" y="15.945" fill="#FFFFFF" stroke="#4F4F4F" stroke-width="1.5" stroke-miterlimit="10" width="43.317" height="43.315"/>
	<polygon fill="#CB2027" stroke="#CB2027" stroke-width="2" stroke-miterlimit="10" points="23,25.833 25.672,34.048 34.311,34.048 
		27.319,39.127 29.986,47.343 23,42.266 16.012,47.343 18.683,39.127 11.69,34.048 20.332,34.048 	"/>
</g>
</svg>
