<?xml version="1.0" encoding="utf-8"?>
<!-- Generator: Adobe Illustrator 16.0.4, SVG Export Plug-In . SVG Version: 6.00 Build 0)  -->
<!DOCTYPE svg PUBLIC "-//W3C//DTD SVG 1.1//EN" "http://www.w3.org/Graphics/SVG/1.1/DTD/svg11.dtd">
<svg version="1.1" id="Layer_1" xmlns="http://www.w3.org/2000/svg" xmlns:xlink="http://www.w3.org/1999/xlink" x="0px" y="0px"
	 width="25px" height="30px" viewBox="0 0 25 30" enable-background="new 0 0 25 30" xml:space="preserve">
<path fill="#CC0000" d="M0.345,14.643c0,0,4.552,2.115,7.15,9.021c0,0,0.729,1.219,0.242,5.201c0,0,2.032,2.764,4.472-0.975
	c2.439-3.74,0.08-10.078,0.08-10.078h9.104c0,0,4.633-1.543,2.275-5.363c0,0,1.217-2.926-0.896-4.145c0,0,0.653-3.492-1.461-4.307
	c0,0,0.896-3.17-2.926-3.82H4.651c0,0-3.228-0.508-4.282,2.988L0.345,14.643z"/>
</svg>
