<?xml version="1.0" encoding="utf-8"?>
<!-- Generator: Adobe Illustrator 17.1.0, SVG Export Plug-In . SVG Version: 6.00 Build 0)  -->
<!DOCTYPE svg PUBLIC "-//W3C//DTD SVG 1.1//EN" "http://www.w3.org/Graphics/SVG/1.1/DTD/svg11.dtd">
<svg version="1.1" id="Layer_1" xmlns="http://www.w3.org/2000/svg" xmlns:xlink="http://www.w3.org/1999/xlink" x="0px" y="0px"
   viewBox="42 -87.5 156 325" enable-background="new 42 -87.5 156 325" xml:space="preserve">
<path fill="#ED2224" d="M197.1,108.9c0,3.7-3,6.6-6.6,6.6H49.2c-3.7,0-6.6-3-6.6-6.6V25.1c0-3.7,3-6.6,6.6-6.6h141.3
  c3.7,0,6.6,3,6.6,6.6V108.9z"/>
<polygon fill="#FFFFFF" points="119.9,28.9 113.1,49.7 91.1,49.7 108.9,62.7 102.2,83.5 119.9,70.6 137.7,83.6 130.9,62.7
  148.7,49.7 126.7,49.7 "/>
<g>
  <path fill="#FFFFFF" d="M100.9,92.7L100.9,92.7c-0.2,0.2-0.4,0.5-0.5,0.7c-0.1,0.2-0.2,0.4-0.3,0.6l-0.1,0.2L100,94
    c0,0-0.1-0.2-0.3-0.5c-0.2-0.3-0.3-0.6-0.5-0.8c-0.4-0.4-0.9-0.8-1.4-1c-0.6-0.2-1.2-0.4-1.9-0.4c-0.4,0-1.1,0.1-1.8,0.4
    c-0.7,0.3-1.5,0.9-2,2L92,93.9v-0.3v-1v-1.1h-0.2h-0.2v5.7v5.7h0.2H92v-3.3v-3.2c0-0.8,0.1-1.4,0.3-2c0.2-0.6,0.4-1,0.8-1.5
    c0.3-0.4,0.7-0.7,1.2-1c0.5-0.2,1.1-0.3,1.6-0.3c0.7,0,1.3,0.1,1.8,0.4c0.5,0.2,0.9,0.6,1.3,1c0.3,0.4,0.5,0.7,0.6,1.2
    c0.1,0.5,0.2,1.1,0.2,1.9c0,0.1,0,0.1,0,0.2c0,0.1,0,0.1,0,0.2v3.1v3.2h0.2h0.2v-3.2v-3.1c0-0.9,0-1.5,0.2-2c0.1-0.5,0.4-1,0.7-1.5
    c0.4-0.5,0.9-0.8,1.4-1c0.5-0.2,1.1-0.3,1.6-0.3c0.6,0,1.1,0.1,1.6,0.2c0.5,0.2,0.8,0.4,1.2,0.7c0.4,0.4,0.7,0.9,0.9,1.5
    c0.2,0.6,0.3,1.4,0.3,2.3v3.1v3.2h0.2h0.2v-3.2v-3.1c0-1-0.1-1.8-0.3-2.5c-0.2-0.7-0.5-1.3-1-1.7c-0.4-0.4-0.8-0.7-1.3-0.8
    c-0.5-0.2-1.1-0.3-1.7-0.3c-0.6,0-1.3,0.1-1.8,0.4C101.8,91.9,101.3,92.3,100.9,92.7"/>
  <path fill="#FFFFFF" d="M109.7,97.3L109.7,97.3L109.7,97.3c0-1.6,0.6-3,1.6-3.9c1-1,2.4-1.6,3.9-1.6c1.1,0,2.2,0.3,3.1,0.9
    c0.9,0.6,1.6,1.4,2,2.4c0.1,0.3,0.2,0.6,0.3,1c0.1,0.3,0.1,0.7,0.1,1c0,0.3,0,0.7-0.1,1c-0.1,0.3-0.1,0.7-0.3,1
    c-0.4,1.1-1.1,2-2,2.6c-0.9,0.6-2,1-3.1,1c-1.8,0-3.2-0.7-4.1-1.7C110.2,100,109.7,98.6,109.7,97.3 M109.2,97.3
    c0,1.4,0.5,2.9,1.5,4c1,1.1,2.5,1.9,4.4,1.9c1.2,0,2.2-0.3,3.1-0.8c0.9-0.5,1.6-1.3,2.1-2.4l0.1-0.3l0,0.3v1.4v1.5h0.2h0.2v-5.7
    v-5.7h-0.2h-0.2v1.5v1.4v0.3l-0.1-0.3c-0.3-0.8-1-1.6-1.9-2.2c-0.9-0.6-2.1-1-3.4-1c-1.9,0-3.4,0.8-4.4,1.9
    C109.7,94.3,109.2,95.8,109.2,97.3"/>
  <path fill="#FFFFFF" d="M121.5,97.3c0,1.5,0.5,3,1.5,4.1c1,1.1,2.5,1.9,4.5,1.9c1.3,0,2.4-0.4,3.4-1c0.9-0.7,1.7-1.6,2.1-2.7h-0.3
    h-0.2c-0.3,0.8-0.9,1.6-1.7,2.2c-0.9,0.6-2,1.1-3.3,1.1c-0.7,0-1.4-0.1-2.1-0.4c-0.6-0.3-1.2-0.6-1.8-1.1c-0.5-0.5-0.9-1.1-1.2-1.8
    c-0.3-0.7-0.4-1.4-0.4-2.2c0-0.8,0.2-1.5,0.4-2.2c0.3-0.7,0.7-1.3,1.2-1.7c0.6-0.5,1.2-0.9,1.8-1.2c0.6-0.2,1.3-0.4,2.1-0.4
    c0.9,0,2,0.2,2.9,0.8c0.9,0.6,1.7,1.4,2.1,2.6h0.2h0.3c-0.5-1.4-1.4-2.4-2.4-3c-1-0.6-2.2-0.9-3.2-0.9c-1.7,0-3.2,0.6-4.2,1.7
    C122.2,94.1,121.5,95.6,121.5,97.3"/>
  <path fill="#FFFFFF" d="M141.8,91.6c0,0-1.1,2.7-2.3,5.3c-1.1,2.6-2.2,5.2-2.2,5.2l-0.1,0.2l-0.1-0.2c0,0-1.1-2.6-2.1-5.2
    c-1.1-2.6-2.1-5.3-2.1-5.3h-0.2h-0.3c0,0.1,1.2,2.9,2.3,5.7c1.1,2.8,2.2,5.6,2.2,5.6l0,0l0,0c0,0-0.5,1.1-1,2.2
    c-0.5,1.1-1,2.2-1,2.3h0.3h0.2c0,0,1.7-4,3.4-7.9c1.7-3.9,3.4-7.9,3.5-8h-0.3L141.8,91.6L141.8,91.6z"/>
  <path fill="#FFFFFF" d="M142.4,94.2c0,0.9,0.4,1.5,0.9,2c0.5,0.4,1.3,0.7,2.1,0.9c1,0.2,1.7,0.5,2.1,1c0.4,0.5,0.7,1.1,0.7,1.8
    c0,0,0,0,0,0c0,0,0,0,0,0c0,0.4-0.1,0.7-0.2,1.1c-0.1,0.3-0.3,0.6-0.6,0.9c-0.3,0.3-0.6,0.5-0.9,0.6c-0.3,0.1-0.7,0.2-1.1,0.2
    c-0.9,0-1.6-0.3-2.1-0.8c-0.5-0.5-0.8-1.2-0.8-2.1h-0.2H142c0,0,0,0.1,0,0.1c0,0,0,0,0,0.1c0,0.4,0.1,0.8,0.2,1.1
    c0.1,0.3,0.3,0.7,0.6,0.9c0.3,0.3,0.7,0.6,1.2,0.8c0.5,0.2,0.9,0.3,1.5,0.3c0.5,0,0.9-0.1,1.3-0.3c0.4-0.2,0.8-0.4,1.1-0.8
    c0.3-0.3,0.5-0.7,0.7-1.1c0.1-0.4,0.2-0.8,0.2-1.3c-0.1-1.2-0.5-1.9-1.1-2.3c-0.6-0.5-1.4-0.7-2.1-0.9l0,0l0,0
    c-0.8-0.2-1.4-0.5-1.8-0.8c-0.4-0.4-0.7-0.9-0.7-1.6c0-0.3,0-0.6,0.1-0.9c0.1-0.3,0.3-0.5,0.5-0.8c0.2-0.2,0.5-0.4,0.9-0.6
    c0.3-0.1,0.7-0.2,1.1-0.2c0.4,0,0.7,0,1,0.2c0.3,0.1,0.6,0.3,0.8,0.5c0.2,0.2,0.4,0.5,0.5,0.8c0.1,0.3,0.2,0.6,0.2,1h0.2h0.2
    c0-0.9-0.3-1.6-0.8-2.1c-0.5-0.5-1.2-0.8-2.1-0.8c-0.8,0-1.5,0.2-2.1,0.7C142.8,92.5,142.4,93.2,142.4,94.2"/>
  <path fill="#FFFFFF" stroke="#FFFFFF" stroke-width="8.130000e-02" d="M100.9,92.7L100.9,92.7c-0.2,0.2-0.4,0.5-0.5,0.7
    c-0.1,0.2-0.2,0.4-0.3,0.6l-0.1,0.2L100,94c0,0-0.1-0.2-0.3-0.5c-0.2-0.3-0.3-0.6-0.5-0.8c-0.4-0.4-0.9-0.8-1.4-1
    c-0.6-0.2-1.2-0.4-1.9-0.4c-0.4,0-1.1,0.1-1.8,0.4c-0.7,0.3-1.5,0.9-2,2L92,93.9v-0.3v-1v-1.1h-0.2h-0.2v5.7v5.7h0.2H92v-3.3v-3.2
    c0-0.8,0.1-1.4,0.3-2c0.2-0.6,0.4-1,0.8-1.5c0.3-0.4,0.7-0.7,1.2-1c0.5-0.2,1.1-0.3,1.6-0.3c0.7,0,1.3,0.1,1.8,0.4
    c0.5,0.2,0.9,0.6,1.3,1c0.3,0.4,0.5,0.7,0.6,1.2c0.1,0.5,0.2,1.1,0.2,1.9c0,0.1,0,0.1,0,0.2c0,0.1,0,0.1,0,0.2v3.1v3.2h0.2h0.2
    v-3.2v-3.1c0-0.9,0-1.5,0.2-2c0.1-0.5,0.4-1,0.7-1.5c0.4-0.5,0.9-0.8,1.4-1c0.5-0.2,1.1-0.3,1.6-0.3c0.6,0,1.1,0.1,1.6,0.2
    c0.5,0.2,0.8,0.4,1.2,0.7c0.4,0.4,0.7,0.9,0.9,1.5c0.2,0.6,0.3,1.4,0.3,2.3v3.1v3.2h0.2h0.2v-3.2v-3.1c0-1-0.1-1.8-0.3-2.5
    c-0.2-0.7-0.5-1.3-1-1.7c-0.4-0.4-0.8-0.7-1.3-0.8c-0.5-0.2-1.1-0.3-1.7-0.3c-0.6,0-1.3,0.1-1.8,0.4
    C101.8,91.9,101.3,92.3,100.9,92.7"/>
  <path fill="#FFFFFF" stroke="#FFFFFF" stroke-width="8.130000e-02" d="M109.7,97.3L109.7,97.3L109.7,97.3c0-1.6,0.6-3,1.6-3.9
    c1-1,2.4-1.6,3.9-1.6c1.1,0,2.2,0.3,3.1,0.9c0.9,0.6,1.6,1.4,2,2.4c0.1,0.3,0.2,0.6,0.3,1c0.1,0.3,0.1,0.7,0.1,1c0,0.3,0,0.7-0.1,1
    c-0.1,0.3-0.1,0.7-0.3,1c-0.4,1.1-1.1,2-2,2.6c-0.9,0.6-2,1-3.1,1c-1.8,0-3.2-0.7-4.1-1.7C110.2,100,109.7,98.6,109.7,97.3
     M109.2,97.3c0,1.4,0.5,2.9,1.5,4c1,1.1,2.5,1.9,4.4,1.9c1.2,0,2.2-0.3,3.1-0.8c0.9-0.5,1.6-1.3,2.1-2.4l0.1-0.3l0,0.3v1.4v1.5h0.2
    h0.2v-5.7v-5.7h-0.2h-0.2v1.5v1.4v0.3l-0.1-0.3c-0.3-0.8-1-1.6-1.9-2.2c-0.9-0.6-2.1-1-3.4-1c-1.9,0-3.4,0.8-4.4,1.9
    C109.7,94.3,109.2,95.8,109.2,97.3"/>
  <path fill="#FFFFFF" stroke="#FFFFFF" stroke-width="8.130000e-02" d="M121.5,97.3c0,1.5,0.5,3,1.5,4.1c1,1.1,2.5,1.9,4.5,1.9
    c1.3,0,2.4-0.4,3.4-1c0.9-0.7,1.7-1.6,2.1-2.7h-0.3h-0.2c-0.3,0.8-0.9,1.6-1.7,2.2c-0.9,0.6-2,1.1-3.3,1.1c-0.7,0-1.4-0.1-2.1-0.4
    c-0.6-0.3-1.2-0.6-1.8-1.1c-0.5-0.5-0.9-1.1-1.2-1.8c-0.3-0.7-0.4-1.4-0.4-2.2c0-0.8,0.2-1.5,0.4-2.2c0.3-0.7,0.7-1.3,1.2-1.7
    c0.6-0.5,1.2-0.9,1.8-1.2c0.6-0.2,1.3-0.4,2.1-0.4c0.9,0,2,0.2,2.9,0.8c0.9,0.6,1.7,1.4,2.1,2.6h0.2h0.3c-0.5-1.4-1.4-2.4-2.4-3
    c-1-0.6-2.2-0.9-3.2-0.9c-1.7,0-3.2,0.6-4.2,1.7C122.2,94.1,121.5,95.6,121.5,97.3"/>
  <path fill="#FFFFFF" stroke="#FFFFFF" stroke-width="8.130000e-02" d="M141.8,91.6c0,0-1.1,2.7-2.3,5.3c-1.1,2.6-2.2,5.2-2.2,5.2
    l-0.1,0.2l-0.1-0.2c0,0-1.1-2.6-2.1-5.2c-1.1-2.6-2.1-5.3-2.1-5.3h-0.2h-0.3c0,0.1,1.2,2.9,2.3,5.7c1.1,2.8,2.2,5.6,2.2,5.6l0,0
    l0,0c0,0-0.5,1.1-1,2.2c-0.5,1.1-1,2.2-1,2.3h0.3h0.2c0,0,1.7-4,3.4-7.9c1.7-3.9,3.4-7.9,3.5-8h-0.3L141.8,91.6L141.8,91.6z"/>
  <path fill="#FFFFFF" stroke="#FFFFFF" stroke-width="8.130000e-02" d="M142.4,94.2c0,0.9,0.4,1.5,0.9,2c0.5,0.4,1.3,0.7,2.1,0.9
    c1,0.2,1.7,0.5,2.1,1c0.4,0.5,0.7,1.1,0.7,1.8c0,0,0,0,0,0c0,0,0,0,0,0c0,0.4-0.1,0.7-0.2,1.1c-0.1,0.3-0.3,0.6-0.6,0.9
    c-0.3,0.3-0.6,0.5-0.9,0.6c-0.3,0.1-0.7,0.2-1.1,0.2c-0.9,0-1.6-0.3-2.1-0.8c-0.5-0.5-0.8-1.2-0.8-2.1h-0.2H142c0,0,0,0.1,0,0.1
    c0,0,0,0,0,0.1c0,0.4,0.1,0.8,0.2,1.1c0.1,0.3,0.3,0.7,0.6,0.9c0.3,0.3,0.7,0.6,1.2,0.8c0.5,0.2,0.9,0.3,1.5,0.3
    c0.5,0,0.9-0.1,1.3-0.3c0.4-0.2,0.8-0.4,1.1-0.8c0.3-0.3,0.5-0.7,0.7-1.1c0.1-0.4,0.2-0.8,0.2-1.3c-0.1-1.2-0.5-1.9-1.1-2.3
    c-0.6-0.5-1.4-0.7-2.1-0.9l0,0l0,0c-0.8-0.2-1.4-0.5-1.8-0.8c-0.4-0.4-0.7-0.9-0.7-1.6c0-0.3,0-0.6,0.1-0.9
    c0.1-0.3,0.3-0.5,0.5-0.8c0.2-0.2,0.5-0.4,0.9-0.6c0.3-0.1,0.7-0.2,1.1-0.2c0.4,0,0.7,0,1,0.2c0.3,0.1,0.6,0.3,0.8,0.5
    c0.2,0.2,0.4,0.5,0.5,0.8c0.1,0.3,0.2,0.6,0.2,1h0.2h0.2c0-0.9-0.3-1.6-0.8-2.1c-0.5-0.5-1.2-0.8-2.1-0.8c-0.8,0-1.5,0.2-2.1,0.7
    C142.8,92.5,142.4,93.2,142.4,94.2"/>
  <polygon fill="#FFFFFF" points="143.2,89.2 142.9,88.3 142.7,89.2 141.7,89.2 142.5,89.8 142.2,90.7 142.9,90.1 143.7,90.7
    143.4,89.8 144.2,89.2   "/>
</g>
<rect x="41.8" y="-87.5" fill="none" width="156.1" height="325"/>
</svg>