<?xml version="1.0" encoding="utf-8"?>
<!-- Generator: Adobe Illustrator 16.0.4, SVG Export Plug-In . SVG Version: 6.00 Build 0)  -->
<!DOCTYPE svg PUBLIC "-//W3C//DTD SVG 1.1//EN" "http://www.w3.org/Graphics/SVG/1.1/DTD/svg11.dtd">
<svg version="1.1" id="Video_Icon_v1_1_" xmlns="http://www.w3.org/2000/svg" xmlns:xlink="http://www.w3.org/1999/xlink" x="0px"
	 y="0px" width="50px" height="50px" viewBox="0 0 50 50" enable-background="new 0 0 50 50" xml:space="preserve">
<g id="Rounded_Rectangle_1_copy">
	<g>
		<path fill="#666666" d="M46.672,0H2.829C1.267,0,0,1.267,0,2.829v43.843C0,48.234,1.267,49.5,2.829,49.5h43.843
			c1.562,0,2.828-1.268,2.828-2.828V2.829C49.5,1.267,48.232,0,46.672,0z"/>
	</g>
</g>
<g id="Rounded_Rectangle_1_copy_2">
	<g>
		<path fill="#FFFFFF" d="M42.782,10.607H6.983c-1.562,0-2.121,0.742-2.121,1.657v24.972c0,0.916,0.559,1.656,2.121,1.656h35.799
			c1.562,0,2.12-0.74,2.12-1.656V12.264C44.902,11.349,44.344,10.607,42.782,10.607z"/>
	</g>
</g>
<g id="_x34__xA0_Image_1_">
	<polyline fill="#666666" points="34.341,17.883 24.973,34.324 15.426,17.706 	"/>
</g>
<g id="Rectangle_1">
	<g>
		<rect x="4.862" y="3.536" fill="#FFFFFF" width="3.536" height="3.536"/>
	</g>
</g>
<g id="Rectangle_1_copy">
	<g>
		<rect x="13.988" y="3.536" fill="#FFFFFF" width="3.536" height="3.536"/>
	</g>
</g>
<g id="Rectangle_1_copy_2">
	<g>
		<rect x="23.115" y="3.536" fill="#FFFFFF" width="3.535" height="3.536"/>
	</g>
</g>
<g id="Rectangle_1_copy_3">
	<g>
		<rect x="32.241" y="3.536" fill="#FFFFFF" width="3.536" height="3.536"/>
	</g>
</g>
<g id="Rectangle_1_copy_4">
	<g>
		<rect x="41.368" y="3.536" fill="#FFFFFF" width="3.534" height="3.536"/>
	</g>
</g>
<g id="Rectangle_1_copy_6">
	<g>
		<rect x="4.862" y="42.43" fill="#FFFFFF" width="3.536" height="3.534"/>
	</g>
</g>
<g id="Rectangle_1_copy_6_1_">
	<g>
		<rect x="13.988" y="42.43" fill="#FFFFFF" width="3.536" height="3.534"/>
	</g>
</g>
<g id="Rectangle_1_copy_6_2_">
	<g>
		<rect x="23.115" y="42.43" fill="#FFFFFF" width="3.535" height="3.534"/>
	</g>
</g>
<g id="Rectangle_1_copy_6_3_">
	<g>
		<rect x="32.241" y="42.43" fill="#FFFFFF" width="3.536" height="3.534"/>
	</g>
</g>
<g id="Rectangle_1_copy_6_4_">
	<g>
		<rect x="41.368" y="42.43" fill="#FFFFFF" width="3.534" height="3.534"/>
	</g>
</g>
</svg>
