<?xml version="1.0" encoding="utf-8"?>
<!-- Generator: Adobe Illustrator 16.0.4, SVG Export Plug-In . SVG Version: 6.00 Build 0)  -->
<!DOCTYPE svg PUBLIC "-//W3C//DTD SVG 1.1//EN" "http://www.w3.org/Graphics/SVG/1.1/DTD/svg11.dtd">
<svg version="1.1" id="Layer_1" xmlns="http://www.w3.org/2000/svg" xmlns:xlink="http://www.w3.org/1999/xlink" x="0px" y="0px"
	 width="30px" height="30px" viewBox="0 0 30 30" enable-background="new 0 0 30 30" xml:space="preserve">
<path fill="#D71E00" d="M27.096,21.388l-0.125-0.266c-0.473-1.108-5.289-2.433-5.739-2.458c-0.102,0-0.205,0.012-0.305,0.032
	c-0.695,0.142-1.418,0.755-2.782,1.963c-1.596-0.804-3.709-2.722-4.702-3.843c-1.073-1.208-2.433-3.25-2.983-4.822
	c1.629-1.447,2.312-2.088,2.362-2.91c0.022-0.368-0.717-5.31-1.745-5.901l-0.254-0.16c-0.473-0.306-1.187-0.767-2.022-0.767
	c-0.147,0-0.293,0.015-0.434,0.043C8.115,2.351,7.871,2.449,7.639,2.593C6.322,3.42,5.282,4.461,4.785,5.45
	C4.532,5.958,3.738,13.65,9.916,20.62c5.649,6.373,12.389,6.558,13.139,6.558c0.217,0,0.521-0.01,0.771-0.062
	c0.015-0.004,0.121-0.032,0.135-0.037c1.04-0.374,2.198-1.281,3.176-2.49C28.083,23.417,27.414,22.042,27.096,21.388z"/>
</svg>
