<?xml version="1.0" encoding="utf-8"?>
<!-- Generator: Adobe Illustrator 16.0.4, SVG Export Plug-In . SVG Version: 6.00 Build 0)  -->
<!DOCTYPE svg PUBLIC "-//W3C//DTD SVG 1.1//EN" "http://www.w3.org/Graphics/SVG/1.1/DTD/svg11.dtd">
<svg version="1.1" id="Layer_1" xmlns="http://www.w3.org/2000/svg" xmlns:xlink="http://www.w3.org/1999/xlink" x="0px" y="0px"
	 width="42px" height="63px" viewBox="0 0 42 63" enable-background="new 0 0 42 63" xml:space="preserve">
<g>
	<path fill-rule="evenodd" clip-rule="evenodd" fill="#42403F" d="M15.975,20.783c-0.116,0.516,0.933,0.674,1.117,0.058
		c0.099-0.331-0.042-0.942,0.009-1.569c0.479-5.811-2.653-16.964,2.264-17.588c5.689-0.723,9.425,8.399,9.748,14.624
		c0.084,1.625-0.016,3.288-0.125,3.643c-0.187,0.606,0.723,0.795,0.908,0.173c0.215-0.725,0.163-2.352,0.083-3.832
		C29.59,9.157,25.484-0.309,19.066,0.873c-2.672,0.492-3.414,3.128-3.606,6.856c-0.213,4.131,1.01,8.368,0.617,11.539
		C15.999,19.901,16.03,20.537,15.975,20.783L15.975,20.783z"/>
	<path fill-rule="evenodd" clip-rule="evenodd" fill="#B23539" d="M41.636,15.909l-4.446,38.624l-30.837-1.19l0.29-40.501
		C6.642,12.84,41.474,15.756,41.636,15.909L41.636,15.909z"/>
	<polygon fill-rule="evenodd" clip-rule="evenodd" fill="#801517" points="32.729,17.414 33.568,51.862 41.43,55.343 41.649,15.973 
		32.729,17.414 	"/>
	<path fill-rule="evenodd" clip-rule="evenodd" fill="#461213" d="M32.729,17.414l-0.578,14.468l2.917-0.05l0.512-12.259
		C35.58,19.572,32.595,17.288,32.729,17.414L32.729,17.414z"/>
	<path fill-rule="evenodd" clip-rule="evenodd" fill="#461213" d="M34.887,49.828l0.03,12.854l0.385,0.279l6.128-7.619
		c0,0-6.678-5.941-6.543-5.927V49.828z"/>
	<polygon fill-rule="evenodd" clip-rule="evenodd" fill="#801517" points="6.427,41.8 6.642,12.84 7.851,15.022 	"/>
	<polygon fill-rule="evenodd" clip-rule="evenodd" fill="#461213" points="6.892,48.516 0.585,16.503 7.851,15.022 	"/>
	<path fill-rule="evenodd" clip-rule="evenodd" fill="#D43538" d="M35.58,19.572l-0.278,43.39L0.295,57.004l0.29-40.5
		C0.585,16.503,35.417,19.419,35.58,19.572L35.58,19.572z"/>
	<circle fill-rule="evenodd" clip-rule="evenodd" fill="#0B0B0B" cx="10.922" cy="21.391" r="0.617"/>
	<circle fill-rule="evenodd" clip-rule="evenodd" fill="#0B0B0B" cx="23.813" cy="22.214" r="0.617"/>
	<path fill-rule="evenodd" clip-rule="evenodd" fill="#333231" d="M24.299,22.057c0.115,0.517-0.934,0.674-1.118,0.058
		c-0.098-0.332-0.228-1.018-0.278-1.645c-0.479-5.811,2.219-17.767-2.699-18.391c-5.689-0.722-8.99,9.202-9.312,15.427
		c-0.084,1.626,0.285,3.364,0.395,3.719c0.186,0.606-0.724,0.795-0.909,0.173c-0.215-0.724-0.433-2.427-0.353-3.908
		c0.389-7.134,4.061-17.402,10.479-16.221c2.672,0.492,3.413,3.128,3.605,6.855c0.214,4.132-0.575,9.171-0.183,12.342
		C24.005,21.1,24.243,21.811,24.299,22.057L24.299,22.057z"/>
	<polygon fill="#FFFFFF" points="17.206,26.714 14.1,35.948 4.047,34.892 12.18,41.715 9.073,50.979 17.206,45.94 25.339,52.711 
		22.232,42.768 30.364,37.658 20.312,36.601 	"/>
</g>
</svg>
