<?xml version="1.0" encoding="utf-8"?>
<!-- Generator: Adobe Illustrator 16.0.4, SVG Export Plug-In . SVG Version: 6.00 Build 0)  -->
<!DOCTYPE svg PUBLIC "-//W3C//DTD SVG 1.1//EN" "http://www.w3.org/Graphics/SVG/1.1/DTD/svg11.dtd">
<svg version="1.1" id="Layer_1" xmlns="http://www.w3.org/2000/svg" xmlns:xlink="http://www.w3.org/1999/xlink" x="0px" y="0px"
	 width="160px" height="40px" viewBox="0 0 160 40" enable-background="new 0 0 160 40" xml:space="preserve">
<g>
	<path d="M1.744,22.191c0-1.87,0.683-3.585,1.921-4.835c1.241-1.249,2.941-1.934,4.777-1.934c3.826,0,6.705,2.909,6.705,6.77
		s-2.879,6.771-6.705,6.771C4.628,28.963,1.744,26.053,1.744,22.191z M0.946,22.191c0,2.637,1.322,5.147,3.616,6.483
		c2.299,1.339,5.32,1.365,7.646,0.076c2.312-1.28,3.698-3.754,3.745-6.394c0.067-3.257-1.906-6.257-5.015-7.284
		c-2.291-0.755-4.927-0.426-6.903,0.969C2.053,17.445,0.946,19.778,0.946,22.191"/>
	<path d="M17.586,17.813v-2.781h-0.801v14.315h0.801v-8.236c0-0.883,0.133-1.682,0.391-2.389c0.266-0.688,0.647-1.288,1.14-1.777
		c0.989-0.97,2.443-1.494,4.198-1.522c0.771,0,1.486,0.093,2.125,0.298c0.728,0.224,1.354,0.576,1.872,1.041
		c0.545,0.504,0.972,1.157,1.255,1.949c0.315,0.851,0.472,1.883,0.472,3.072v7.564h0.797v-7.564c0-2.582-0.697-4.494-2.074-5.667
		c-1.129-0.953-2.628-1.432-4.446-1.432c-1.162-0.033-2.354,0.236-3.373,0.748C18.827,15.995,18.001,16.84,17.586,17.813z"/>
	<rect x="31.113" y="9.383" width="0.911" height="19.965"/>
	<polygon points="38.842,28.238 33.611,15.032 32.73,15.032 38.377,29.299 35.845,35.102 36.744,35.102 45.362,15.032 
		44.432,15.032 	"/>
	<path d="M88.421,15.02h0.876v2.583h0.064c0.662-1.861,2.361-2.9,4.565-2.9c2.544,0,4.339,1.391,5.058,3.352
		c0.724-1.961,2.519-3.352,5.065-3.352c3.394,0,5.501,2.461,5.501,5.496v8.978h-0.882v-8.724c0-2.939-2.047-4.936-4.619-4.936
		c-2.579,0-4.623,1.997-4.623,4.936v8.724H98.55v-8.724c0-2.939-2.045-4.936-4.623-4.936c-2.581,0-4.631,1.997-4.631,4.936v8.724
		H88.42L88.421,15.02L88.421,15.02z M117.475,28.672c3.586,0,6.518-2.945,6.518-6.576c0-3.635-2.932-6.58-6.518-6.58
		c-3.576,0-6.508,2.945-6.508,6.58C110.967,25.727,113.898,28.672,117.475,28.672z M124.871,29.176h-0.88v-3.732h-0.069
		c-1.102,2.406-3.586,4.048-6.447,4.048c-4.086,0-7.39-3.32-7.39-7.396c0-4.075,3.304-7.394,7.39-7.394
		c2.861,0,5.379,1.641,6.447,4.076h0.069V15.02h0.88V29.176z"/>
	<path d="M144.141,30.244c0.217-0.533,0.346-0.91,0.346-0.977c0-0.093-0.027-0.156-0.062-0.218l-5.634-14.03h0.886l5.281,13.205
		l5.312-13.205h0.875l-7.756,19.396h-0.883L144.141,30.244z M138.662,19.378c-1.032-2.308-3.291-3.862-5.873-3.862
		c-3.592,0-6.512,2.945-6.512,6.58c0,3.631,2.92,6.576,6.512,6.576c2.582,0,4.841-1.557,5.873-3.863h0.884
		c-0.718,2.246-3.176,4.683-6.757,4.683c-4.092,0-7.393-3.32-7.393-7.396c0-4.075,3.301-7.394,7.393-7.394
		c3.581,0,6.039,2.435,6.757,4.676H138.662z M153.58,13.913l-1.105-0.757l-1.103,0.757l0.41-1.268l-1.071-0.82h1.325l0.438-1.262
		l0.44,1.262h1.317l-1.062,0.82L153.58,13.913z M157.537,18.24c0-1.578-1.227-2.725-2.702-2.725c-1.515,0-2.739,1.146-2.739,2.725
		c0,3.795,6.891,2.149,6.891,7.33c0,1.863-1.547,3.92-4.215,3.92c-2.676,0-4.595-2.311-4.595-4.74h0.874
		c0,2.121,1.645,3.922,3.536,3.922c2.384,0,3.509-1.646,3.509-3.229c0-4.236-6.888-2.625-6.888-7.203
		c0-1.957,1.612-3.538,3.627-3.538c1.974,0,3.517,1.581,3.585,3.538H157.537z"/>
	<polygon fill="#FF0000" points="62.154,15.062 47.448,15.062 59.339,23.75 54.8,37.809 66.702,29.115 78.602,37.809 74.06,23.75 
		85.953,15.062 71.245,15.062 66.701,1 	"/>
</g>
</svg>
