<?xml version="1.0" encoding="utf-8"?>
<!-- Generator: Adobe Illustrator 16.0.4, SVG Export Plug-In . SVG Version: 6.00 Build 0)  -->
<!DOCTYPE svg PUBLIC "-//W3C//DTD SVG 1.1//EN" "http://www.w3.org/Graphics/SVG/1.1/DTD/svg11.dtd">
<svg version="1.1" id="_x31_" xmlns="http://www.w3.org/2000/svg" xmlns:xlink="http://www.w3.org/1999/xlink" x="0px" y="0px"
	 width="40px" height="40px" viewBox="0 0 40 40" enable-background="new 0 0 40 40" xml:space="preserve">
<path fill="#999999" d="M38.657,34.997l-11.55-11.551c1.638-2.354,2.6-5.213,2.6-8.299c0-8.042-6.519-14.559-14.559-14.559
	c-8.041,0-14.559,6.518-14.559,14.559c0,8.041,6.518,14.559,14.559,14.559c3.086,0,5.945-0.962,8.299-2.6l11.551,11.551
	c1.006,1.006,2.653,1.006,3.659,0C39.664,37.65,39.664,36.002,38.657,34.997z M5.442,15.147c0-5.36,4.345-9.706,9.706-9.706
	c5.36,0,9.707,4.345,9.707,9.706s-4.347,9.706-9.707,9.706C9.787,24.853,5.442,20.507,5.442,15.147z"/>
</svg>
