<?xml version="1.0" encoding="utf-8"?>
<!-- Generator: Adobe Illustrator 16.0.0, SVG Export Plug-In . SVG Version: 6.00 Build 0)  -->
<!DOCTYPE svg PUBLIC "-//W3C//DTD SVG 1.1//EN" "http://www.w3.org/Graphics/SVG/1.1/DTD/svg11.dtd">
<svg version="1.1" id="Layer_1" xmlns="http://www.w3.org/2000/svg" xmlns:xlink="http://www.w3.org/1999/xlink" x="0px" y="0px"
	 width="75px" height="26px" viewBox="0 0 75 26" enable-background="new 0 0 75 26" xml:space="preserve">
<g>
	<path fill="#FFFFFF" d="M5.798,6.948H5.222V1.812H3.326V1.284h4.368v0.528H5.798V6.948z"/>
	<path fill="#FFFFFF" d="M10.782,4.652V4.556c0-0.645-0.32-0.968-0.96-0.968c-0.438,0-0.819,0.146-1.144,0.44l-0.32-0.376
		c0.352-0.363,0.88-0.544,1.584-0.544c0.181,0,0.356,0.026,0.524,0.08c0.168,0.053,0.313,0.134,0.436,0.244
		c0.123,0.109,0.221,0.247,0.296,0.412c0.075,0.166,0.112,0.363,0.112,0.592v1.672c0,0.144,0.007,0.294,0.02,0.452
		c0.013,0.158,0.028,0.287,0.044,0.388h-0.512c-0.016-0.091-0.028-0.189-0.036-0.296c-0.008-0.107-0.012-0.211-0.012-0.312h-0.016
		c-0.155,0.25-0.337,0.431-0.548,0.54c-0.21,0.109-0.468,0.164-0.772,0.164c-0.165,0-0.325-0.023-0.48-0.068
		C8.843,6.931,8.706,6.862,8.585,6.768C8.466,6.675,8.37,6.56,8.298,6.424C8.226,6.288,8.189,6.129,8.189,5.948
		c0-0.304,0.079-0.542,0.236-0.716C8.583,5.059,8.78,4.93,9.018,4.844s0.491-0.139,0.76-0.16c0.269-0.021,0.516-0.032,0.74-0.032
		H10.782z M10.51,5.084c-0.133,0-0.3,0.006-0.5,0.02C9.81,5.118,9.618,5.149,9.434,5.2S9.092,5.33,8.961,5.436
		c-0.13,0.107-0.196,0.253-0.196,0.44c0,0.123,0.025,0.228,0.076,0.316c0.05,0.088,0.119,0.16,0.204,0.216
		c0.085,0.056,0.18,0.096,0.284,0.12s0.209,0.036,0.316,0.036c0.192,0,0.359-0.032,0.5-0.096c0.142-0.064,0.26-0.151,0.356-0.26
		c0.096-0.109,0.167-0.237,0.212-0.384c0.045-0.146,0.068-0.303,0.068-0.468V5.084H10.51z"/>
	<path fill="#FFFFFF" d="M12.534,3.204h0.528v0.624h0.016C13.163,3.7,13.265,3.591,13.382,3.5c0.117-0.09,0.24-0.165,0.368-0.224
		s0.26-0.102,0.396-0.128c0.136-0.027,0.265-0.04,0.388-0.04c0.293,0,0.561,0.049,0.804,0.148s0.452,0.236,0.628,0.412
		c0.176,0.176,0.313,0.384,0.412,0.624c0.099,0.24,0.148,0.501,0.148,0.784S16.477,5.62,16.378,5.86
		c-0.099,0.24-0.236,0.448-0.412,0.624c-0.176,0.176-0.385,0.313-0.628,0.412c-0.243,0.098-0.511,0.148-0.804,0.148
		c-0.123,0-0.252-0.014-0.388-0.04c-0.136-0.027-0.268-0.069-0.396-0.128c-0.128-0.059-0.251-0.133-0.368-0.224
		s-0.219-0.2-0.304-0.328h-0.016v2.928h-0.528V3.204z M15.95,5.076c0-0.208-0.034-0.402-0.1-0.584
		c-0.067-0.181-0.162-0.338-0.284-0.472c-0.123-0.133-0.271-0.238-0.444-0.316c-0.173-0.077-0.37-0.116-0.588-0.116
		c-0.219,0-0.419,0.039-0.6,0.116c-0.182,0.078-0.339,0.183-0.472,0.316c-0.133,0.134-0.237,0.291-0.312,0.472
		c-0.075,0.182-0.112,0.376-0.112,0.584s0.037,0.403,0.112,0.584c0.075,0.182,0.179,0.339,0.312,0.472s0.291,0.239,0.472,0.316
		c0.181,0.077,0.381,0.116,0.6,0.116c0.218,0,0.415-0.039,0.588-0.116s0.321-0.183,0.444-0.316s0.217-0.291,0.284-0.472
		C15.917,5.479,15.95,5.284,15.95,5.076z"/>
	<path fill="#FFFFFF" d="M21.582,3.684h-1.08v2.208c0,0.139,0.013,0.252,0.04,0.34c0.026,0.088,0.064,0.156,0.112,0.204
		c0.048,0.048,0.105,0.082,0.172,0.1c0.067,0.019,0.14,0.028,0.22,0.028c0.09,0,0.184-0.014,0.28-0.04
		c0.096-0.027,0.184-0.062,0.264-0.104l0.024,0.488c-0.197,0.091-0.435,0.136-0.712,0.136c-0.102,0-0.207-0.014-0.316-0.04
		c-0.109-0.027-0.209-0.078-0.3-0.152c-0.09-0.074-0.165-0.176-0.224-0.304c-0.059-0.128-0.088-0.296-0.088-0.504v-2.36h-0.792
		v-0.48h0.792V2.148h0.528v1.056h1.08V3.684z"/>
	<path fill="#FFFFFF" d="M22.302,0.9h0.528v2.904h0.016c0.059-0.101,0.133-0.195,0.224-0.28c0.09-0.085,0.192-0.159,0.304-0.22
		c0.112-0.061,0.23-0.109,0.356-0.144s0.25-0.052,0.372-0.052c0.48,0,0.834,0.126,1.064,0.38s0.344,0.615,0.344,1.084v2.376h-0.528
		V4.876c0-0.416-0.072-0.735-0.216-0.956s-0.411-0.332-0.8-0.332c-0.027,0-0.102,0.011-0.224,0.032
		c-0.123,0.021-0.252,0.08-0.388,0.176c-0.136,0.096-0.257,0.24-0.364,0.432c-0.107,0.192-0.16,0.459-0.16,0.8v1.92h-0.528V0.9z"/>
	<path fill="#FFFFFF" d="M27.518,1.764c0,0.112-0.04,0.204-0.12,0.276c-0.08,0.072-0.168,0.108-0.264,0.108S26.95,2.112,26.87,2.04
		c-0.08-0.072-0.12-0.164-0.12-0.276c0-0.112,0.04-0.204,0.12-0.276c0.08-0.072,0.168-0.108,0.264-0.108s0.184,0.036,0.264,0.108
		C27.478,1.56,27.518,1.652,27.518,1.764z M27.398,6.948H26.87V3.204h0.528V6.948z"/>
	<path fill="#FFFFFF" d="M30.654,4.092c-0.08-0.155-0.187-0.277-0.32-0.368c-0.134-0.09-0.296-0.136-0.488-0.136
		c-0.091,0-0.183,0.011-0.276,0.032c-0.093,0.021-0.177,0.055-0.252,0.1s-0.135,0.103-0.18,0.172S29.07,4.047,29.07,4.148
		c0,0.176,0.061,0.304,0.184,0.384c0.123,0.08,0.307,0.149,0.552,0.208l0.536,0.128c0.261,0.059,0.479,0.177,0.652,0.356
		s0.26,0.401,0.26,0.668c0,0.203-0.042,0.377-0.124,0.524c-0.083,0.147-0.192,0.267-0.328,0.36S30.51,6.938,30.334,6.98
		c-0.176,0.042-0.355,0.064-0.536,0.064c-0.288,0-0.556-0.055-0.804-0.164c-0.248-0.109-0.46-0.297-0.636-0.564l0.456-0.312
		c0.106,0.17,0.241,0.307,0.404,0.408c0.163,0.102,0.356,0.152,0.58,0.152c0.106,0,0.213-0.012,0.32-0.036
		c0.107-0.024,0.201-0.062,0.284-0.112c0.083-0.05,0.149-0.116,0.2-0.196s0.076-0.173,0.076-0.28c0-0.187-0.069-0.321-0.208-0.404
		c-0.139-0.083-0.307-0.148-0.504-0.196l-0.512-0.12c-0.064-0.016-0.15-0.042-0.26-0.08c-0.109-0.037-0.216-0.093-0.32-0.168
		S28.68,4.8,28.606,4.68c-0.075-0.12-0.112-0.268-0.112-0.444c0-0.192,0.039-0.36,0.116-0.504c0.077-0.144,0.181-0.261,0.312-0.352
		c0.13-0.091,0.278-0.159,0.444-0.204c0.165-0.045,0.336-0.068,0.512-0.068c0.261,0,0.504,0.051,0.728,0.152
		c0.224,0.102,0.397,0.275,0.52,0.52L30.654,4.092z"/>
	<path fill="#FFFFFF" d="M34.302,4.036c0-0.139-0.004-0.277-0.012-0.416s-0.018-0.277-0.028-0.416h0.568v0.568h0.016
		c0.128-0.219,0.305-0.384,0.532-0.496c0.227-0.112,0.452-0.168,0.676-0.168c0.101,0,0.209,0.011,0.324,0.032
		c0.115,0.021,0.226,0.06,0.332,0.116c0.107,0.056,0.207,0.135,0.3,0.236c0.094,0.102,0.172,0.232,0.236,0.392
		c0.105-0.24,0.275-0.429,0.508-0.568c0.231-0.139,0.473-0.208,0.724-0.208c0.48,0,0.835,0.126,1.064,0.38
		c0.229,0.253,0.344,0.615,0.344,1.084v2.376h-0.528V4.764c0-0.378-0.066-0.669-0.2-0.872c-0.133-0.203-0.381-0.304-0.743-0.304
		c-0.198,0-0.363,0.039-0.496,0.116c-0.134,0.078-0.242,0.18-0.324,0.308c-0.083,0.128-0.143,0.273-0.18,0.436
		c-0.038,0.163-0.057,0.332-0.057,0.508v1.992H36.83V4.764c0-0.378-0.067-0.669-0.201-0.872c-0.133-0.203-0.381-0.304-0.744-0.304
		c-0.032,0-0.105,0.011-0.22,0.032c-0.115,0.021-0.233,0.08-0.356,0.176c-0.123,0.096-0.233,0.24-0.332,0.432
		c-0.099,0.192-0.148,0.459-0.148,0.8v1.92h-0.528V4.036z"/>
	<path fill="#FFFFFF" d="M41.485,5.22c0.016,0.187,0.061,0.363,0.136,0.528c0.074,0.166,0.173,0.308,0.296,0.428
		s0.264,0.215,0.424,0.284s0.333,0.104,0.521,0.104c0.282,0,0.526-0.065,0.731-0.196c0.205-0.13,0.361-0.281,0.468-0.452
		l0.408,0.336c-0.224,0.283-0.471,0.485-0.739,0.608c-0.27,0.123-0.56,0.184-0.868,0.184c-0.277,0-0.535-0.05-0.772-0.148
		c-0.237-0.099-0.441-0.236-0.612-0.412c-0.17-0.176-0.305-0.384-0.403-0.624c-0.099-0.24-0.148-0.501-0.148-0.784
		s0.048-0.544,0.145-0.784c0.096-0.24,0.229-0.448,0.399-0.624c0.171-0.176,0.371-0.313,0.601-0.412
		c0.229-0.099,0.477-0.148,0.744-0.148c0.282,0,0.535,0.051,0.76,0.152c0.224,0.102,0.412,0.236,0.563,0.404
		c0.152,0.168,0.269,0.366,0.349,0.592s0.12,0.468,0.12,0.724v0.24H41.485z M44.029,4.788c0-0.357-0.107-0.646-0.32-0.868
		s-0.512-0.332-0.896-0.332c-0.171,0-0.337,0.033-0.496,0.1c-0.16,0.066-0.301,0.156-0.42,0.268c-0.12,0.112-0.217,0.24-0.288,0.384
		c-0.072,0.144-0.108,0.293-0.108,0.448H44.029z"/>
	<path fill="#FFFFFF" d="M46.069,3.204c0.011,0.102,0.018,0.202,0.02,0.3c0.003,0.099,0.004,0.199,0.004,0.3h0.017
		c0.059-0.101,0.133-0.195,0.224-0.28c0.091-0.085,0.192-0.159,0.305-0.22c0.111-0.061,0.23-0.109,0.355-0.144
		s0.249-0.052,0.372-0.052c0.48,0,0.835,0.126,1.064,0.38c0.229,0.253,0.344,0.615,0.344,1.084v2.376h-0.528V4.876
		c0-0.416-0.072-0.735-0.216-0.956s-0.411-0.332-0.8-0.332c-0.027,0-0.102,0.011-0.225,0.032c-0.122,0.021-0.252,0.08-0.388,0.176
		c-0.136,0.096-0.257,0.24-0.364,0.432c-0.106,0.192-0.16,0.459-0.16,0.8v1.92h-0.527v-2.92c0-0.102-0.004-0.229-0.012-0.384
		c-0.009-0.154-0.018-0.301-0.028-0.44H46.069z"/>
	<path fill="#FFFFFF" d="M52.718,6.948c-0.011-0.101-0.018-0.201-0.021-0.3s-0.004-0.199-0.004-0.3h-0.016
		c-0.059,0.102-0.134,0.195-0.225,0.28c-0.091,0.085-0.191,0.159-0.304,0.22c-0.112,0.062-0.23,0.109-0.355,0.144
		c-0.126,0.035-0.25,0.052-0.372,0.052c-0.48,0-0.835-0.127-1.064-0.38c-0.229-0.253-0.344-0.614-0.344-1.084V3.204h0.527v2.072
		c0,0.208,0.017,0.392,0.049,0.552c0.031,0.16,0.086,0.295,0.164,0.404c0.077,0.109,0.181,0.192,0.312,0.248
		c0.131,0.056,0.295,0.084,0.492,0.084c0.026,0,0.102-0.011,0.224-0.032c0.123-0.021,0.252-0.08,0.389-0.176
		c0.136-0.096,0.257-0.24,0.363-0.432s0.16-0.458,0.16-0.8v-1.92h0.528v2.92c0,0.102,0.004,0.229,0.012,0.384
		s0.018,0.301,0.028,0.44H52.718z"/>
	<path fill="#FFFFFF" d="M57.453,1.764c0,0.112-0.04,0.204-0.12,0.276c-0.08,0.072-0.168,0.108-0.264,0.108
		s-0.184-0.036-0.264-0.108c-0.08-0.072-0.12-0.164-0.12-0.276c0-0.112,0.04-0.204,0.12-0.276c0.08-0.072,0.168-0.108,0.264-0.108
		s0.184,0.036,0.264,0.108C57.413,1.56,57.453,1.652,57.453,1.764z M57.333,6.948h-0.527V3.204h0.527V6.948z"/>
	<path fill="#FFFFFF" d="M61.333,4.084c-0.091-0.139-0.217-0.256-0.38-0.352c-0.162-0.096-0.348-0.144-0.556-0.144
		c-0.219-0.005-0.415,0.029-0.588,0.104c-0.174,0.075-0.321,0.179-0.444,0.312s-0.216,0.292-0.28,0.476
		c-0.063,0.184-0.096,0.382-0.096,0.596s0.032,0.412,0.096,0.596c0.064,0.184,0.157,0.343,0.28,0.476s0.271,0.237,0.444,0.312
		c0.173,0.075,0.369,0.109,0.588,0.104c0.208,0,0.394-0.048,0.556-0.144c0.163-0.096,0.289-0.213,0.38-0.352l0.433,0.328
		c-0.188,0.219-0.397,0.38-0.633,0.484c-0.234,0.104-0.479,0.159-0.735,0.164c-0.304,0.005-0.579-0.042-0.824-0.14
		s-0.455-0.236-0.628-0.412c-0.174-0.176-0.306-0.385-0.396-0.628c-0.09-0.243-0.136-0.505-0.136-0.788s0.046-0.545,0.136-0.788
		c0.091-0.243,0.223-0.452,0.396-0.628c0.173-0.176,0.383-0.313,0.628-0.412c0.245-0.099,0.521-0.145,0.824-0.14
		c0.256,0.005,0.501,0.06,0.735,0.164c0.235,0.104,0.445,0.265,0.633,0.484L61.333,4.084z"/>
	<path fill="#FFFFFF" d="M66.245,5.076c0,0.283-0.05,0.544-0.148,0.784c-0.099,0.24-0.236,0.448-0.412,0.624
		C65.509,6.66,65.3,6.798,65.057,6.896c-0.242,0.098-0.511,0.148-0.804,0.148c-0.288,0-0.554-0.05-0.796-0.148
		c-0.243-0.099-0.452-0.236-0.628-0.412C62.652,6.308,62.516,6.1,62.417,5.86c-0.099-0.24-0.148-0.501-0.148-0.784
		s0.05-0.544,0.148-0.784c0.099-0.24,0.235-0.448,0.412-0.624c0.176-0.176,0.385-0.313,0.628-0.412
		c0.242-0.099,0.508-0.148,0.796-0.148c0.293,0,0.562,0.049,0.804,0.148c0.243,0.099,0.452,0.236,0.628,0.412
		c0.176,0.176,0.313,0.384,0.412,0.624C66.195,4.532,66.245,4.793,66.245,5.076z M65.669,5.076c0-0.208-0.033-0.402-0.101-0.584
		c-0.066-0.181-0.161-0.338-0.283-0.472c-0.123-0.133-0.271-0.238-0.444-0.316c-0.174-0.077-0.369-0.116-0.588-0.116
		s-0.415,0.039-0.588,0.116c-0.174,0.078-0.32,0.183-0.44,0.316c-0.12,0.134-0.213,0.291-0.28,0.472
		c-0.066,0.182-0.1,0.376-0.1,0.584s0.033,0.403,0.1,0.584c0.067,0.182,0.16,0.339,0.28,0.472s0.267,0.239,0.44,0.316
		c0.173,0.077,0.369,0.116,0.588,0.116s0.414-0.039,0.588-0.116c0.173-0.077,0.321-0.183,0.444-0.316
		c0.122-0.133,0.217-0.291,0.283-0.472C65.636,5.479,65.669,5.284,65.669,5.076z"/>
	<path fill="#FFFFFF" d="M67.709,3.204c0.011,0.102,0.018,0.202,0.02,0.3c0.003,0.099,0.004,0.199,0.004,0.3h0.017
		c0.059-0.101,0.133-0.195,0.224-0.28c0.091-0.085,0.192-0.159,0.305-0.22c0.111-0.061,0.23-0.109,0.355-0.144
		s0.249-0.052,0.372-0.052c0.48,0,0.835,0.126,1.064,0.38c0.229,0.253,0.344,0.615,0.344,1.084v2.376h-0.528V4.876
		c0-0.416-0.072-0.735-0.216-0.956s-0.411-0.332-0.8-0.332c-0.027,0-0.102,0.011-0.225,0.032c-0.122,0.021-0.252,0.08-0.388,0.176
		C68.121,3.892,68,4.036,67.893,4.228c-0.106,0.192-0.16,0.459-0.16,0.8v1.92h-0.527v-2.92c0-0.102-0.004-0.229-0.012-0.384
		c-0.009-0.154-0.018-0.301-0.028-0.44H67.709z"/>
	<path fill="#FFFFFF" d="M12.922,11.684h-1.08v2.208c0,0.139,0.013,0.252,0.04,0.34c0.026,0.088,0.064,0.156,0.112,0.203
		c0.048,0.049,0.105,0.082,0.172,0.101c0.067,0.019,0.14,0.028,0.22,0.028c0.09,0,0.184-0.014,0.28-0.04
		c0.096-0.026,0.184-0.062,0.264-0.104l0.024,0.488c-0.197,0.091-0.435,0.137-0.712,0.137c-0.102,0-0.207-0.014-0.316-0.041
		c-0.109-0.026-0.209-0.077-0.3-0.152c-0.09-0.074-0.165-0.176-0.224-0.303c-0.059-0.129-0.088-0.297-0.088-0.504v-2.361h-0.792
		v-0.48h0.792v-1.056h0.528v1.056h1.08V11.684z"/>
	<path fill="#FFFFFF" d="M17.426,13.076c0,0.283-0.049,0.544-0.148,0.784c-0.099,0.239-0.236,0.448-0.412,0.624
		c-0.176,0.176-0.385,0.313-0.628,0.412c-0.243,0.098-0.511,0.148-0.804,0.148c-0.288,0-0.554-0.051-0.796-0.148
		c-0.243-0.099-0.452-0.236-0.628-0.412c-0.176-0.176-0.313-0.385-0.412-0.624c-0.099-0.24-0.148-0.501-0.148-0.784
		c0-0.283,0.049-0.544,0.148-0.784c0.099-0.24,0.236-0.448,0.412-0.624c0.176-0.176,0.385-0.313,0.628-0.412
		s0.508-0.148,0.796-0.148c0.293,0,0.561,0.049,0.804,0.148s0.452,0.236,0.628,0.412c0.176,0.176,0.313,0.384,0.412,0.624
		C17.376,12.532,17.426,12.793,17.426,13.076z M16.85,13.076c0-0.208-0.034-0.402-0.1-0.584c-0.067-0.181-0.162-0.338-0.284-0.472
		c-0.123-0.133-0.271-0.238-0.444-0.316c-0.173-0.077-0.37-0.116-0.588-0.116c-0.219,0-0.415,0.039-0.588,0.116
		c-0.173,0.078-0.32,0.183-0.44,0.316c-0.12,0.134-0.213,0.291-0.28,0.472c-0.067,0.182-0.1,0.376-0.1,0.584s0.033,0.402,0.1,0.584
		c0.066,0.182,0.16,0.339,0.28,0.473c0.12,0.133,0.267,0.238,0.44,0.315s0.37,0.116,0.588,0.116c0.218,0,0.415-0.039,0.588-0.116
		s0.321-0.183,0.444-0.315c0.123-0.134,0.217-0.291,0.284-0.473C16.816,13.479,16.85,13.284,16.85,13.076z"/>
	<path fill="#FFFFFF" d="M22.354,11.684h-0.888v3.264h-0.528v-3.264h-0.792v-0.48h0.792V10.18c0-0.496,0.115-0.849,0.344-1.06
		c0.229-0.21,0.533-0.316,0.912-0.316c0.075,0,0.15,0.005,0.228,0.016c0.077,0.011,0.153,0.024,0.228,0.04l-0.096,0.48
		c-0.064-0.016-0.131-0.029-0.2-0.04s-0.139-0.016-0.208-0.016c-0.144,0-0.261,0.024-0.352,0.072
		c-0.09,0.048-0.16,0.116-0.208,0.204c-0.048,0.088-0.08,0.191-0.096,0.308c-0.016,0.118-0.024,0.243-0.024,0.376v0.96h0.888V11.684
		z"/>
	<path fill="#FFFFFF" d="M23.746,9.764c0,0.112-0.04,0.204-0.12,0.276c-0.08,0.072-0.168,0.108-0.264,0.108
		s-0.184-0.036-0.264-0.108c-0.08-0.072-0.12-0.164-0.12-0.276c0-0.112,0.04-0.204,0.12-0.276c0.08-0.072,0.168-0.108,0.264-0.108
		s0.184,0.036,0.264,0.108C23.706,9.56,23.746,9.652,23.746,9.764z M23.626,14.948h-0.528v-3.744h0.528V14.948z"/>
	<path fill="#FFFFFF" d="M25.402,11.204c0.011,0.102,0.017,0.202,0.02,0.3c0.002,0.099,0.004,0.199,0.004,0.3h0.016
		c0.059-0.101,0.133-0.195,0.224-0.28c0.09-0.085,0.192-0.159,0.304-0.22c0.112-0.061,0.23-0.109,0.356-0.144
		s0.25-0.052,0.372-0.052c0.48,0,0.834,0.126,1.064,0.38s0.344,0.615,0.344,1.084v2.376h-0.528v-2.072
		c0-0.416-0.072-0.735-0.216-0.956s-0.411-0.332-0.8-0.332c-0.027,0-0.102,0.011-0.224,0.032c-0.123,0.021-0.252,0.08-0.388,0.176
		c-0.136,0.096-0.257,0.24-0.364,0.432c-0.107,0.192-0.16,0.459-0.16,0.8v1.92h-0.528v-2.92c0-0.102-0.004-0.229-0.012-0.384
		c-0.008-0.154-0.018-0.301-0.028-0.44H25.402z"/>
	<path fill="#FFFFFF" d="M33.082,14.948h-0.528v-0.624h-0.016c-0.085,0.128-0.187,0.237-0.304,0.328s-0.24,0.165-0.368,0.225
		c-0.128,0.059-0.26,0.101-0.396,0.127c-0.136,0.027-0.266,0.041-0.388,0.041c-0.293,0-0.562-0.051-0.804-0.148
		c-0.243-0.099-0.452-0.236-0.628-0.412c-0.176-0.176-0.313-0.385-0.412-0.624c-0.099-0.24-0.148-0.501-0.148-0.784
		c0-0.283,0.049-0.544,0.148-0.784c0.099-0.24,0.236-0.448,0.412-0.624c0.176-0.176,0.385-0.313,0.628-0.412
		s0.511-0.148,0.804-0.148c0.123,0,0.252,0.013,0.388,0.04c0.136,0.026,0.268,0.069,0.396,0.128c0.128,0.059,0.25,0.133,0.368,0.224
		c0.117,0.091,0.219,0.2,0.304,0.328h0.016V8.9h0.528V14.948z M29.666,13.076c0,0.208,0.033,0.402,0.1,0.584
		c0.066,0.182,0.161,0.339,0.284,0.473c0.123,0.133,0.271,0.238,0.444,0.315s0.369,0.116,0.588,0.116
		c0.213,0,0.412-0.039,0.596-0.116c0.184-0.077,0.342-0.183,0.476-0.315c0.133-0.134,0.237-0.291,0.312-0.473
		s0.112-0.376,0.112-0.584s-0.038-0.402-0.112-0.584c-0.075-0.181-0.179-0.338-0.312-0.472c-0.133-0.133-0.292-0.238-0.476-0.316
		c-0.184-0.077-0.383-0.116-0.596-0.116c-0.219,0-0.415,0.039-0.588,0.116c-0.173,0.078-0.321,0.183-0.444,0.316
		c-0.123,0.134-0.217,0.291-0.284,0.472C29.699,12.674,29.666,12.868,29.666,13.076z"/>
	<path fill="#FFFFFF" d="M36.458,12.036c0-0.139-0.004-0.277-0.012-0.416s-0.018-0.277-0.028-0.416h0.567v0.568h0.017
		c0.128-0.219,0.305-0.384,0.532-0.496c0.227-0.112,0.451-0.168,0.676-0.168c0.102,0,0.209,0.011,0.324,0.032
		c0.114,0.021,0.225,0.06,0.332,0.116c0.106,0.056,0.206,0.135,0.3,0.236c0.093,0.102,0.172,0.232,0.235,0.392
		c0.107-0.24,0.276-0.429,0.509-0.568c0.231-0.139,0.473-0.208,0.724-0.208c0.48,0,0.835,0.126,1.064,0.38
		c0.229,0.253,0.344,0.615,0.344,1.084v2.376h-0.528v-2.184c0-0.378-0.066-0.669-0.2-0.872c-0.133-0.203-0.381-0.304-0.743-0.304
		c-0.198,0-0.363,0.039-0.496,0.116c-0.134,0.078-0.242,0.18-0.324,0.308c-0.083,0.128-0.143,0.273-0.18,0.436
		c-0.038,0.163-0.057,0.332-0.057,0.508v1.992h-0.528v-2.184c0-0.378-0.066-0.669-0.199-0.872c-0.134-0.203-0.382-0.304-0.744-0.304
		c-0.032,0-0.105,0.011-0.22,0.032c-0.115,0.021-0.233,0.08-0.356,0.176c-0.123,0.096-0.233,0.24-0.332,0.432
		c-0.099,0.192-0.148,0.459-0.148,0.8v1.92h-0.527V12.036z"/>
	<path fill="#FFFFFF" d="M47.058,13.076c0,0.283-0.05,0.544-0.148,0.784c-0.099,0.239-0.236,0.448-0.412,0.624
		s-0.385,0.313-0.628,0.412c-0.242,0.098-0.511,0.148-0.804,0.148c-0.288,0-0.554-0.051-0.796-0.148
		c-0.243-0.099-0.452-0.236-0.628-0.412c-0.177-0.176-0.313-0.385-0.412-0.624c-0.099-0.24-0.148-0.501-0.148-0.784
		c0-0.283,0.05-0.544,0.148-0.784c0.099-0.24,0.235-0.448,0.412-0.624c0.176-0.176,0.385-0.313,0.628-0.412
		c0.242-0.099,0.508-0.148,0.796-0.148c0.293,0,0.562,0.049,0.804,0.148c0.243,0.099,0.452,0.236,0.628,0.412
		c0.176,0.176,0.313,0.384,0.412,0.624C47.008,12.532,47.058,12.793,47.058,13.076z M46.481,13.076c0-0.208-0.033-0.402-0.101-0.584
		c-0.066-0.181-0.161-0.338-0.283-0.472c-0.123-0.133-0.271-0.238-0.444-0.316c-0.174-0.077-0.369-0.116-0.588-0.116
		s-0.415,0.039-0.588,0.116c-0.174,0.078-0.32,0.183-0.44,0.316c-0.12,0.134-0.213,0.291-0.28,0.472
		c-0.066,0.182-0.1,0.376-0.1,0.584s0.033,0.402,0.1,0.584c0.067,0.182,0.16,0.339,0.28,0.473c0.12,0.133,0.267,0.238,0.44,0.315
		c0.173,0.077,0.369,0.116,0.588,0.116s0.414-0.039,0.588-0.116c0.173-0.077,0.321-0.183,0.444-0.315
		c0.122-0.134,0.217-0.291,0.283-0.473C46.448,13.479,46.481,13.284,46.481,13.076z"/>
	<path fill="#FFFFFF" d="M48.073,12.372c0-0.165-0.004-0.333-0.012-0.504c-0.008-0.17-0.015-0.392-0.021-0.664h0.521V11.9h0.016
		c0.037-0.102,0.091-0.199,0.16-0.292s0.153-0.177,0.252-0.252s0.214-0.135,0.344-0.18c0.131-0.045,0.279-0.068,0.444-0.068
		c0.149,0,0.28,0.016,0.392,0.048l-0.104,0.52c-0.069-0.027-0.171-0.04-0.304-0.04c-0.203,0-0.376,0.039-0.521,0.116
		c-0.144,0.077-0.264,0.176-0.359,0.296c-0.097,0.12-0.167,0.25-0.213,0.388c-0.045,0.139-0.067,0.272-0.067,0.4v2.112h-0.528
		V12.372z"/>
	<path fill="#FFFFFF" d="M51.042,13.221c0.016,0.187,0.061,0.362,0.136,0.527c0.074,0.166,0.173,0.309,0.296,0.428
		c0.123,0.121,0.264,0.215,0.424,0.285c0.16,0.068,0.333,0.104,0.521,0.104c0.282,0,0.526-0.065,0.731-0.196
		c0.205-0.13,0.361-0.281,0.468-0.452l0.408,0.336c-0.224,0.283-0.471,0.486-0.739,0.608c-0.27,0.122-0.56,0.185-0.868,0.185
		c-0.277,0-0.535-0.051-0.772-0.148c-0.237-0.099-0.441-0.236-0.612-0.412c-0.17-0.176-0.305-0.385-0.403-0.624
		c-0.099-0.24-0.148-0.501-0.148-0.784c0-0.283,0.048-0.544,0.145-0.784c0.096-0.24,0.229-0.448,0.399-0.624
		c0.171-0.176,0.371-0.313,0.601-0.412c0.229-0.099,0.477-0.148,0.744-0.148c0.282,0,0.535,0.051,0.76,0.152
		c0.224,0.102,0.412,0.236,0.563,0.404c0.152,0.168,0.269,0.366,0.349,0.592s0.12,0.468,0.12,0.724v0.24H51.042z M53.586,12.788
		c0-0.357-0.107-0.646-0.32-0.868s-0.512-0.332-0.896-0.332c-0.171,0-0.337,0.033-0.496,0.1c-0.16,0.066-0.301,0.156-0.42,0.268
		c-0.12,0.112-0.217,0.24-0.288,0.384c-0.072,0.144-0.108,0.293-0.108,0.448H53.586z"/>
	<path fill="#FFFFFF" d="M61.13,13.076c0,0.283-0.05,0.544-0.148,0.784c-0.099,0.239-0.236,0.448-0.412,0.624
		s-0.385,0.313-0.628,0.412c-0.242,0.098-0.511,0.148-0.804,0.148c-0.288,0-0.554-0.051-0.796-0.148
		c-0.243-0.099-0.452-0.236-0.628-0.412c-0.177-0.176-0.313-0.385-0.412-0.624c-0.099-0.24-0.148-0.501-0.148-0.784
		c0-0.283,0.05-0.544,0.148-0.784c0.099-0.24,0.235-0.448,0.412-0.624c0.176-0.176,0.385-0.313,0.628-0.412
		c0.242-0.099,0.508-0.148,0.796-0.148c0.293,0,0.562,0.049,0.804,0.148c0.243,0.099,0.452,0.236,0.628,0.412
		c0.176,0.176,0.313,0.384,0.412,0.624C61.08,12.532,61.13,12.793,61.13,13.076z M60.554,13.076c0-0.208-0.033-0.402-0.101-0.584
		c-0.066-0.181-0.161-0.338-0.283-0.472c-0.123-0.133-0.271-0.238-0.444-0.316c-0.174-0.077-0.369-0.116-0.588-0.116
		s-0.415,0.039-0.588,0.116c-0.174,0.078-0.32,0.183-0.44,0.316c-0.12,0.134-0.213,0.291-0.28,0.472
		c-0.066,0.182-0.1,0.376-0.1,0.584s0.033,0.402,0.1,0.584c0.067,0.182,0.16,0.339,0.28,0.473c0.12,0.133,0.267,0.238,0.44,0.315
		c0.173,0.077,0.369,0.116,0.588,0.116s0.414-0.039,0.588-0.116c0.173-0.077,0.321-0.183,0.444-0.315
		c0.122-0.134,0.217-0.291,0.283-0.473C60.521,13.479,60.554,13.284,60.554,13.076z"/>
	<path fill="#FFFFFF" d="M63.834,11.684h-0.889v3.264h-0.527v-3.264h-0.792v-0.48h0.792V10.18c0-0.496,0.114-0.849,0.344-1.06
		c0.229-0.21,0.533-0.316,0.912-0.316c0.074,0,0.15,0.005,0.228,0.016s0.153,0.024,0.229,0.04l-0.097,0.48
		c-0.063-0.016-0.13-0.029-0.199-0.04s-0.139-0.016-0.208-0.016c-0.145,0-0.262,0.024-0.353,0.072
		c-0.091,0.048-0.16,0.116-0.208,0.204c-0.048,0.088-0.08,0.191-0.096,0.308c-0.016,0.118-0.024,0.243-0.024,0.376v0.96h0.889
		V11.684z"/>
	<path fill="#FFFFFF" d="M2.178,19.204l0.864,3.04h0.016l1-3.04h0.544l1,3.04h0.016l0.864-3.04h0.624l-1.184,3.744H5.33
		l-0.992-3.071H4.322L3.33,22.948H2.738l-1.184-3.744H2.178z"/>
	<path fill="#FFFFFF" d="M7.794,16.9h0.528v2.904h0.016c0.059-0.102,0.133-0.195,0.224-0.28c0.09-0.085,0.192-0.159,0.304-0.22
		c0.112-0.062,0.23-0.109,0.356-0.145s0.25-0.052,0.372-0.052c0.48,0,0.834,0.126,1.064,0.38s0.344,0.615,0.344,1.084v2.376h-0.528
		v-2.071c0-0.416-0.072-0.735-0.216-0.957c-0.144-0.221-0.411-0.332-0.8-0.332c-0.027,0-0.102,0.012-0.224,0.032
		c-0.123,0.021-0.252,0.08-0.388,0.177c-0.136,0.096-0.257,0.239-0.364,0.432c-0.107,0.191-0.16,0.459-0.16,0.8v1.92H7.794V16.9z"/>
	<path fill="#FFFFFF" d="M14.642,20.652v-0.096c0-0.646-0.32-0.969-0.96-0.969c-0.438,0-0.819,0.146-1.144,0.44l-0.32-0.376
		c0.352-0.363,0.88-0.544,1.584-0.544c0.181,0,0.356,0.026,0.524,0.08s0.313,0.134,0.436,0.243c0.123,0.109,0.221,0.248,0.296,0.412
		c0.075,0.166,0.112,0.363,0.112,0.592v1.673c0,0.144,0.007,0.294,0.02,0.452c0.013,0.157,0.028,0.287,0.044,0.388h-0.512
		c-0.016-0.091-0.028-0.189-0.036-0.296c-0.008-0.107-0.012-0.211-0.012-0.312h-0.016c-0.155,0.251-0.337,0.432-0.548,0.541
		c-0.21,0.108-0.468,0.164-0.772,0.164c-0.165,0-0.325-0.023-0.48-0.068s-0.292-0.115-0.412-0.209
		c-0.12-0.093-0.216-0.207-0.288-0.344c-0.072-0.136-0.108-0.295-0.108-0.476c0-0.304,0.079-0.542,0.236-0.716
		c0.157-0.174,0.354-0.303,0.592-0.389c0.237-0.085,0.491-0.139,0.76-0.16c0.269-0.021,0.516-0.031,0.74-0.031H14.642z
		 M14.37,21.084c-0.133,0-0.3,0.007-0.5,0.02c-0.2,0.014-0.392,0.046-0.576,0.097s-0.341,0.13-0.472,0.235
		c-0.13,0.107-0.196,0.254-0.196,0.441c0,0.122,0.025,0.227,0.076,0.315c0.05,0.088,0.119,0.159,0.204,0.216
		c0.085,0.057,0.18,0.096,0.284,0.12s0.209,0.036,0.316,0.036c0.192,0,0.359-0.032,0.5-0.096c0.142-0.064,0.26-0.151,0.356-0.261
		c0.096-0.108,0.167-0.237,0.212-0.384c0.045-0.146,0.068-0.303,0.068-0.468v-0.272H14.37z"/>
	<path fill="#FFFFFF" d="M18.33,19.684h-1.08v2.209c0,0.139,0.013,0.252,0.04,0.34c0.026,0.088,0.064,0.156,0.112,0.203
		c0.048,0.049,0.105,0.082,0.172,0.101c0.067,0.019,0.14,0.028,0.22,0.028c0.09,0,0.184-0.014,0.28-0.04
		c0.096-0.026,0.184-0.062,0.264-0.104l0.024,0.488c-0.197,0.091-0.435,0.137-0.712,0.137c-0.102,0-0.207-0.014-0.316-0.041
		c-0.109-0.026-0.209-0.077-0.3-0.152c-0.09-0.074-0.165-0.176-0.224-0.303c-0.059-0.129-0.088-0.297-0.088-0.504v-2.361H15.93
		v-0.479h0.792v-1.056h0.528v1.056h1.08V19.684z"/>
	<path fill="#FFFFFF" d="M22.666,22.301l1.144-3.097h0.64l-1.872,4.72c-0.112,0.289-0.254,0.518-0.428,0.688
		s-0.423,0.256-0.748,0.256c-0.08,0-0.162-0.003-0.244-0.008s-0.164-0.021-0.244-0.048l0.056-0.512
		c0.112,0.059,0.245,0.088,0.4,0.088c0.187,0,0.333-0.059,0.44-0.176c0.107-0.118,0.2-0.283,0.28-0.496l0.272-0.721l-1.536-3.792
		h0.664L22.666,22.301z"/>
	<path fill="#FFFFFF" d="M28.914,21.076c0,0.283-0.049,0.544-0.148,0.784c-0.099,0.239-0.236,0.448-0.412,0.624
		c-0.176,0.176-0.385,0.313-0.628,0.412c-0.243,0.098-0.511,0.148-0.804,0.148c-0.288,0-0.554-0.051-0.796-0.148
		c-0.243-0.099-0.452-0.236-0.628-0.412c-0.176-0.176-0.313-0.385-0.412-0.624c-0.099-0.24-0.148-0.501-0.148-0.784
		s0.049-0.544,0.148-0.783c0.099-0.24,0.236-0.449,0.412-0.625c0.176-0.176,0.385-0.312,0.628-0.412
		c0.243-0.098,0.508-0.147,0.796-0.147c0.293,0,0.561,0.05,0.804,0.147c0.243,0.1,0.452,0.236,0.628,0.412
		c0.176,0.176,0.313,0.385,0.412,0.625C28.864,20.532,28.914,20.793,28.914,21.076z M28.338,21.076c0-0.208-0.034-0.402-0.1-0.584
		c-0.067-0.182-0.162-0.338-0.284-0.473c-0.123-0.133-0.271-0.238-0.444-0.315s-0.37-0.116-0.588-0.116
		c-0.219,0-0.415,0.039-0.588,0.116s-0.32,0.183-0.44,0.315c-0.12,0.135-0.213,0.291-0.28,0.473c-0.067,0.182-0.1,0.376-0.1,0.584
		s0.033,0.402,0.1,0.584c0.066,0.182,0.16,0.339,0.28,0.473c0.12,0.133,0.267,0.238,0.44,0.315s0.37,0.116,0.588,0.116
		c0.218,0,0.415-0.039,0.588-0.116s0.321-0.183,0.444-0.315c0.123-0.134,0.217-0.291,0.284-0.473
		C28.304,21.479,28.338,21.284,28.338,21.076z"/>
	<path fill="#FFFFFF" d="M32.577,22.948c-0.011-0.101-0.017-0.201-0.02-0.3c-0.002-0.099-0.004-0.199-0.004-0.301h-0.016
		c-0.059,0.102-0.134,0.195-0.224,0.281c-0.091,0.084-0.192,0.158-0.304,0.219c-0.112,0.062-0.23,0.109-0.356,0.145
		s-0.25,0.053-0.372,0.053c-0.48,0-0.834-0.127-1.064-0.381c-0.229-0.253-0.344-0.614-0.344-1.084v-2.376h0.528v2.072
		c0,0.208,0.016,0.392,0.048,0.552c0.032,0.16,0.087,0.295,0.164,0.404s0.181,0.191,0.312,0.248
		c0.131,0.056,0.295,0.084,0.492,0.084c0.026,0,0.101-0.011,0.224-0.032c0.123-0.021,0.252-0.08,0.388-0.176
		c0.136-0.097,0.257-0.24,0.364-0.433c0.106-0.191,0.16-0.458,0.16-0.8v-1.92h0.528v2.92c0,0.102,0.004,0.229,0.012,0.384
		c0.008,0.155,0.018,0.302,0.028,0.44H32.577z"/>
	<path fill="#FFFFFF" d="M37.193,22.948h-0.528V16.9h0.528V22.948z"/>
	<path fill="#FFFFFF" d="M42.25,21.076c0,0.283-0.05,0.544-0.148,0.784c-0.099,0.239-0.236,0.448-0.412,0.624
		s-0.385,0.313-0.628,0.412c-0.242,0.098-0.511,0.148-0.804,0.148c-0.288,0-0.554-0.051-0.796-0.148
		c-0.243-0.099-0.452-0.236-0.628-0.412c-0.177-0.176-0.313-0.385-0.412-0.624c-0.099-0.24-0.148-0.501-0.148-0.784
		s0.05-0.544,0.148-0.783c0.099-0.24,0.235-0.449,0.412-0.625c0.176-0.176,0.385-0.312,0.628-0.412
		c0.242-0.098,0.508-0.147,0.796-0.147c0.293,0,0.562,0.05,0.804,0.147c0.243,0.1,0.452,0.236,0.628,0.412s0.313,0.385,0.412,0.625
		C42.2,20.532,42.25,20.793,42.25,21.076z M41.674,21.076c0-0.208-0.033-0.402-0.101-0.584c-0.066-0.182-0.161-0.338-0.283-0.473
		c-0.123-0.133-0.271-0.238-0.444-0.315c-0.174-0.077-0.369-0.116-0.588-0.116s-0.415,0.039-0.588,0.116
		c-0.174,0.077-0.32,0.183-0.44,0.315c-0.12,0.135-0.213,0.291-0.28,0.473c-0.066,0.182-0.1,0.376-0.1,0.584s0.033,0.402,0.1,0.584
		c0.067,0.182,0.16,0.339,0.28,0.473c0.12,0.133,0.267,0.238,0.44,0.315c0.173,0.077,0.369,0.116,0.588,0.116
		s0.414-0.039,0.588-0.116c0.173-0.077,0.321-0.183,0.444-0.315c0.122-0.134,0.217-0.291,0.283-0.473
		C41.641,21.479,41.674,21.284,41.674,21.076z"/>
	<path fill="#FFFFFF" d="M44.856,22.948h-0.592l-1.52-3.744h0.624l1.199,3.152h0.017l1.191-3.152h0.601L44.856,22.948z"/>
	<path fill="#FFFFFF" d="M47.434,21.221c0.016,0.187,0.061,0.362,0.136,0.527c0.074,0.166,0.173,0.309,0.296,0.428
		c0.123,0.121,0.264,0.215,0.424,0.285c0.16,0.068,0.333,0.104,0.521,0.104c0.282,0,0.526-0.065,0.731-0.196
		c0.205-0.13,0.361-0.281,0.468-0.452l0.408,0.336c-0.224,0.283-0.471,0.486-0.739,0.608c-0.27,0.122-0.56,0.185-0.868,0.185
		c-0.277,0-0.535-0.051-0.772-0.148c-0.237-0.099-0.441-0.236-0.612-0.412c-0.17-0.176-0.305-0.385-0.403-0.624
		c-0.099-0.24-0.148-0.501-0.148-0.784s0.048-0.544,0.145-0.783c0.096-0.24,0.229-0.449,0.399-0.625s0.371-0.312,0.601-0.412
		c0.229-0.098,0.477-0.147,0.744-0.147c0.282,0,0.535,0.051,0.76,0.151c0.224,0.102,0.412,0.236,0.563,0.404
		c0.152,0.168,0.269,0.365,0.349,0.592s0.12,0.469,0.12,0.725v0.24H47.434z M49.978,20.788c0-0.356-0.107-0.646-0.32-0.868
		c-0.213-0.221-0.512-0.332-0.896-0.332c-0.171,0-0.337,0.033-0.496,0.101c-0.16,0.066-0.301,0.155-0.42,0.268
		c-0.12,0.112-0.217,0.24-0.288,0.384c-0.072,0.145-0.108,0.294-0.108,0.448H49.978z"/>
	<path fill="#FFFFFF" d="M55.481,19.684h-0.889v3.265h-0.527v-3.265h-0.792v-0.479h0.792V18.18c0-0.496,0.114-0.849,0.344-1.06
		c0.229-0.21,0.533-0.315,0.912-0.315c0.074,0,0.15,0.005,0.228,0.016s0.153,0.023,0.229,0.04l-0.097,0.479
		c-0.063-0.016-0.13-0.029-0.199-0.039c-0.069-0.012-0.139-0.017-0.208-0.017c-0.145,0-0.262,0.024-0.353,0.072
		s-0.16,0.116-0.208,0.204s-0.08,0.19-0.096,0.308c-0.016,0.118-0.024,0.243-0.024,0.376v0.96h0.889V19.684z"/>
	<path fill="#FFFFFF" d="M58.505,20.652v-0.096c0-0.646-0.319-0.969-0.96-0.969c-0.437,0-0.818,0.146-1.144,0.44l-0.32-0.376
		c0.353-0.363,0.88-0.544,1.584-0.544c0.182,0,0.356,0.026,0.524,0.08s0.313,0.134,0.436,0.243c0.123,0.109,0.222,0.248,0.296,0.412
		c0.075,0.166,0.112,0.363,0.112,0.592v1.673c0,0.144,0.007,0.294,0.021,0.452c0.013,0.157,0.027,0.287,0.044,0.388h-0.513
		c-0.016-0.091-0.027-0.189-0.036-0.296c-0.008-0.107-0.012-0.211-0.012-0.312h-0.016c-0.155,0.251-0.338,0.432-0.548,0.541
		c-0.211,0.108-0.469,0.164-0.772,0.164c-0.165,0-0.325-0.023-0.479-0.068c-0.155-0.045-0.292-0.115-0.412-0.209
		c-0.12-0.093-0.216-0.207-0.288-0.344c-0.072-0.136-0.108-0.295-0.108-0.476c0-0.304,0.079-0.542,0.236-0.716
		s0.354-0.303,0.592-0.389c0.237-0.085,0.49-0.139,0.76-0.16c0.27-0.021,0.517-0.031,0.74-0.031H58.505z M58.233,21.084
		c-0.134,0-0.3,0.007-0.5,0.02c-0.2,0.014-0.393,0.046-0.576,0.097s-0.341,0.13-0.472,0.235c-0.131,0.107-0.196,0.254-0.196,0.441
		c0,0.122,0.025,0.227,0.076,0.315c0.051,0.088,0.118,0.159,0.204,0.216c0.085,0.057,0.18,0.096,0.284,0.12
		c0.104,0.024,0.209,0.036,0.315,0.036c0.192,0,0.358-0.032,0.5-0.096c0.142-0.064,0.26-0.151,0.356-0.261
		c0.096-0.108,0.166-0.237,0.212-0.384c0.045-0.146,0.067-0.303,0.067-0.468v-0.272H58.233z"/>
	<path fill="#FFFFFF" d="M62.241,20.092c-0.079-0.154-0.187-0.277-0.319-0.367c-0.134-0.091-0.296-0.137-0.488-0.137
		c-0.091,0-0.183,0.012-0.276,0.032c-0.093,0.021-0.177,0.055-0.252,0.101c-0.074,0.045-0.135,0.102-0.18,0.172
		c-0.045,0.068-0.068,0.154-0.068,0.256c0,0.176,0.062,0.304,0.185,0.384c0.122,0.08,0.307,0.149,0.552,0.208l0.536,0.128
		c0.261,0.059,0.479,0.177,0.652,0.356c0.173,0.178,0.26,0.4,0.26,0.668c0,0.203-0.042,0.377-0.124,0.523
		c-0.083,0.146-0.192,0.268-0.328,0.36s-0.292,0.161-0.468,0.204s-0.355,0.064-0.536,0.064c-0.288,0-0.556-0.056-0.804-0.164
		c-0.248-0.109-0.46-0.298-0.637-0.564l0.456-0.312c0.106,0.171,0.241,0.307,0.404,0.408s0.356,0.152,0.58,0.152
		c0.106,0,0.213-0.012,0.32-0.036c0.106-0.024,0.201-0.062,0.283-0.112c0.083-0.051,0.149-0.115,0.2-0.195s0.076-0.174,0.076-0.28
		c0-0.187-0.069-0.321-0.208-0.404s-0.307-0.147-0.504-0.196l-0.512-0.119c-0.064-0.017-0.151-0.043-0.261-0.08
		s-0.216-0.094-0.319-0.168c-0.104-0.075-0.193-0.172-0.269-0.293c-0.074-0.119-0.111-0.268-0.111-0.443
		c0-0.191,0.038-0.359,0.115-0.504s0.182-0.262,0.312-0.352c0.131-0.092,0.278-0.159,0.444-0.205
		c0.165-0.045,0.336-0.067,0.512-0.067c0.261,0,0.504,0.051,0.728,0.151c0.225,0.102,0.397,0.275,0.521,0.521L62.241,20.092z"/>
	<path fill="#FFFFFF" d="M65.601,19.684h-1.08v2.209c0,0.139,0.014,0.252,0.04,0.34c0.027,0.088,0.064,0.156,0.112,0.203
		c0.048,0.049,0.105,0.082,0.172,0.101s0.141,0.028,0.22,0.028c0.091,0,0.185-0.014,0.28-0.04s0.185-0.062,0.264-0.104l0.024,0.488
		c-0.197,0.091-0.435,0.137-0.712,0.137c-0.102,0-0.207-0.014-0.316-0.041c-0.109-0.026-0.209-0.077-0.3-0.152
		c-0.091-0.074-0.165-0.176-0.224-0.303c-0.059-0.129-0.088-0.297-0.088-0.504v-2.361h-0.792v-0.479h0.792v-1.056h0.527v1.056h1.08
		V19.684z"/>
	<path fill="#FFFFFF" d="M66.689,21.221c0.016,0.187,0.061,0.362,0.136,0.527c0.074,0.166,0.173,0.309,0.296,0.428
		c0.123,0.121,0.264,0.215,0.424,0.285c0.16,0.068,0.333,0.104,0.521,0.104c0.282,0,0.526-0.065,0.731-0.196
		c0.205-0.13,0.361-0.281,0.468-0.452l0.408,0.336c-0.224,0.283-0.471,0.486-0.739,0.608c-0.27,0.122-0.56,0.185-0.868,0.185
		c-0.277,0-0.535-0.051-0.772-0.148c-0.237-0.099-0.441-0.236-0.612-0.412c-0.17-0.176-0.305-0.385-0.403-0.624
		c-0.099-0.24-0.148-0.501-0.148-0.784s0.048-0.544,0.145-0.783c0.096-0.24,0.229-0.449,0.399-0.625s0.371-0.312,0.601-0.412
		c0.229-0.098,0.477-0.147,0.744-0.147c0.282,0,0.535,0.051,0.76,0.151c0.224,0.102,0.412,0.236,0.563,0.404
		c0.152,0.168,0.269,0.365,0.349,0.592s0.12,0.469,0.12,0.725v0.24H66.689z M69.233,20.788c0-0.356-0.107-0.646-0.32-0.868
		c-0.213-0.221-0.512-0.332-0.896-0.332c-0.171,0-0.337,0.033-0.496,0.101c-0.16,0.066-0.301,0.155-0.42,0.268
		c-0.12,0.112-0.217,0.24-0.288,0.384c-0.072,0.145-0.108,0.294-0.108,0.448H69.233z"/>
	<path fill="#FFFFFF" d="M70.825,20.372c0-0.165-0.004-0.333-0.012-0.504s-0.015-0.392-0.021-0.664h0.521V19.9h0.016
		c0.037-0.102,0.091-0.199,0.16-0.292s0.153-0.177,0.252-0.252s0.214-0.135,0.344-0.181c0.131-0.045,0.279-0.067,0.444-0.067
		c0.149,0,0.28,0.016,0.392,0.048l-0.104,0.52c-0.069-0.026-0.171-0.039-0.304-0.039c-0.203,0-0.376,0.038-0.521,0.115
		c-0.144,0.078-0.264,0.176-0.359,0.297c-0.097,0.119-0.167,0.249-0.213,0.387c-0.045,0.14-0.067,0.272-0.067,0.4v2.112h-0.528
		V20.372z"/>
</g>
</svg>
