<?xml version="1.0" encoding="utf-8"?>
<!-- Generator: Adobe Illustrator 16.0.0, SVG Export Plug-In . SVG Version: 6.00 Build 0)  -->
<!DOCTYPE svg PUBLIC "-//W3C//DTD SVG 1.1//EN" "http://www.w3.org/Graphics/SVG/1.1/DTD/svg11.dtd">
<svg version="1.1" id="Layer_1" xmlns="http://www.w3.org/2000/svg" xmlns:xlink="http://www.w3.org/1999/xlink" x="0px" y="0px"
	 width="30.125px" height="8.25px" viewBox="0 0 30.125 8.25" enable-background="new 0 0 30.125 8.25" xml:space="preserve">
<g>
	<g>
		<path fill="#FFFFFF" d="M3.922,5.018l0.691,0.09c-0.075,0.477-0.269,0.849-0.58,1.119S3.34,6.631,2.887,6.631
			c-0.567,0-1.024-0.186-1.369-0.557C1.173,5.704,1,5.171,1,4.479c0-0.448,0.074-0.84,0.223-1.176S1.597,2.715,1.9,2.547
			c0.304-0.168,0.634-0.252,0.99-0.252c0.45,0,0.819,0.114,1.105,0.342c0.286,0.228,0.47,0.551,0.551,0.971L3.863,3.713
			C3.798,3.434,3.683,3.225,3.518,3.084s-0.365-0.211-0.6-0.211C2.563,2.874,2.276,3,2.055,3.254S1.723,3.91,1.723,4.459
			c0,0.557,0.106,0.962,0.32,1.215c0.214,0.251,0.492,0.378,0.836,0.378c0.276,0,0.507-0.084,0.691-0.253
			C3.755,5.629,3.872,5.37,3.922,5.018z"/>
		<path fill="#FFFFFF" d="M5.199,6.537V0.811h0.703v5.727H5.199z"/>
		<path fill="#FFFFFF" d="M6.73,4.463c0-0.769,0.214-1.338,0.641-1.707c0.356-0.308,0.792-0.461,1.305-0.461
			c0.57,0,1.036,0.187,1.398,0.561c0.362,0.373,0.543,0.89,0.543,1.549c0,0.533-0.08,0.953-0.24,1.26
			c-0.16,0.306-0.394,0.542-0.699,0.712s-0.64,0.254-1.002,0.254c-0.581,0-1.05-0.186-1.408-0.559C6.909,5.7,6.73,5.164,6.73,4.463z
			 M7.453,4.463c0,0.531,0.116,0.929,0.348,1.193C8.032,5.92,8.324,6.053,8.676,6.053c0.349,0,0.64-0.133,0.871-0.398
			C9.778,5.389,9.895,4.984,9.895,4.44c0-0.514-0.116-0.902-0.35-1.166C9.312,3.009,9.022,2.877,8.676,2.877
			c-0.352,0-0.644,0.131-0.875,0.395C7.569,3.535,7.453,3.932,7.453,4.463z"/>
		<path fill="#FFFFFF" d="M11.16,5.299l0.695-0.109c0.039,0.278,0.147,0.492,0.326,0.64c0.179,0.148,0.428,0.223,0.748,0.223
			c0.323,0,0.562-0.066,0.719-0.197c0.156-0.131,0.234-0.286,0.234-0.462c0-0.159-0.069-0.284-0.207-0.375
			c-0.097-0.062-0.336-0.143-0.719-0.238c-0.516-0.131-0.873-0.243-1.072-0.338c-0.199-0.096-0.351-0.227-0.453-0.395
			s-0.154-0.354-0.154-0.557c0-0.186,0.042-0.356,0.127-0.514c0.085-0.158,0.2-0.289,0.346-0.393
			c0.109-0.081,0.259-0.149,0.447-0.206s0.392-0.084,0.607-0.084c0.325,0,0.611,0.047,0.857,0.141
			c0.246,0.094,0.428,0.221,0.545,0.381s0.198,0.374,0.242,0.643l-0.688,0.094c-0.031-0.214-0.122-0.381-0.271-0.5
			c-0.149-0.12-0.361-0.18-0.635-0.18c-0.323,0-0.554,0.053-0.691,0.16c-0.138,0.106-0.207,0.231-0.207,0.375
			c0,0.091,0.028,0.173,0.086,0.246c0.058,0.075,0.147,0.138,0.27,0.188c0.07,0.025,0.277,0.086,0.621,0.18
			c0.497,0.133,0.845,0.241,1.041,0.326c0.196,0.084,0.351,0.207,0.463,0.369c0.112,0.161,0.168,0.361,0.168,0.602
			c0,0.234-0.068,0.455-0.205,0.662c-0.137,0.207-0.334,0.367-0.592,0.48s-0.55,0.17-0.875,0.17c-0.539,0-0.95-0.111-1.232-0.336
			S11.238,5.739,11.16,5.299z"/>
		<path fill="#FFFFFF" d="M18.281,5.202l0.727,0.09c-0.114,0.424-0.327,0.753-0.637,0.988s-0.706,0.352-1.188,0.352
			c-0.606,0-1.088-0.188-1.443-0.561c-0.355-0.374-0.533-0.898-0.533-1.572c0-0.698,0.18-1.24,0.539-1.625
			c0.359-0.386,0.825-0.579,1.398-0.579c0.555,0,1.008,0.189,1.359,0.567c0.352,0.377,0.527,0.908,0.527,1.594
			c0,0.041-0.001,0.104-0.004,0.188h-3.094c0.026,0.455,0.155,0.805,0.387,1.047c0.231,0.242,0.521,0.363,0.867,0.363
			c0.258,0,0.478-0.068,0.66-0.203C18.03,5.714,18.175,5.499,18.281,5.202z M15.973,4.065h2.316c-0.031-0.35-0.12-0.611-0.266-0.785
			c-0.224-0.271-0.515-0.406-0.871-0.406c-0.323,0-0.595,0.107-0.814,0.324C16.118,3.414,15.996,3.703,15.973,4.065z"/>
		<path fill="#FFFFFF" d="M0.688,7.678V7.092h18.676v0.586H0.688z"/>
	</g>
	<g id="Rectangle_1">
		<g>
			
				<rect x="23.06" y="3.511" transform="matrix(0.7071 -0.7071 0.7071 0.7071 4.8578 19.9622)" fill="#FFFFFF" width="6.93" height="1.213"/>
		</g>
	</g>
	<g id="Rectangle_1_copy">
		<g>
			
				<rect x="25.919" y="0.529" transform="matrix(0.7071 -0.7071 0.7071 0.7071 4.9447 19.9262)" fill="#FFFFFF" width="1.213" height="6.93"/>
		</g>
	</g>
</g>
</svg>
