<?xml version="1.0" encoding="utf-8"?>
<!-- Generator: Adobe Illustrator 16.0.0, SVG Export Plug-In . SVG Version: 6.00 Build 0)  -->
<!DOCTYPE svg PUBLIC "-//W3C//DTD SVG 1.1//EN" "http://www.w3.org/Graphics/SVG/1.1/DTD/svg11.dtd">
<svg version="1.1" id="Layer_1" xmlns="http://www.w3.org/2000/svg" xmlns:xlink="http://www.w3.org/1999/xlink" x="0px" y="0px"
	 width="123px" height="30px" viewBox="0 0 123 30" enable-background="new 0 0 123 30" xml:space="preserve">
<g>
	<path fill="#FFFFFF" d="M1.689,2.823h1.3l2.034,7.358H5.05l2.165-7.358h1.43l2.165,7.358h0.026l2.035-7.358h1.3l-2.678,9.204
		h-1.326L7.942,4.513H7.917l-2.21,7.514H4.38L1.689,2.823z"/>
	<path fill="#FFFFFF" d="M15.82,9.375c0,0.269,0.059,0.513,0.175,0.734c0.117,0.221,0.271,0.41,0.461,0.565
		c0.191,0.156,0.412,0.277,0.663,0.364c0.251,0.086,0.511,0.13,0.78,0.13c0.364,0,0.68-0.084,0.949-0.253s0.516-0.392,0.741-0.669
		l0.884,0.676c-0.65,0.841-1.56,1.261-2.73,1.261c-0.485,0-0.925-0.082-1.319-0.247c-0.395-0.165-0.728-0.392-1.001-0.683
		s-0.483-0.633-0.63-1.027c-0.147-0.395-0.221-0.821-0.221-1.281c0-0.459,0.08-0.886,0.241-1.28c0.16-0.395,0.381-0.737,0.663-1.027
		c0.282-0.29,0.618-0.518,1.008-0.682c0.39-0.165,0.814-0.247,1.274-0.247c0.546,0,1.007,0.095,1.384,0.286
		c0.377,0.191,0.687,0.44,0.93,0.748c0.243,0.308,0.418,0.655,0.526,1.04c0.108,0.386,0.163,0.778,0.163,1.177v0.416H15.82z
		 M19.512,8.439c-0.009-0.26-0.05-0.499-0.124-0.715c-0.074-0.216-0.184-0.405-0.332-0.565c-0.147-0.16-0.332-0.286-0.552-0.377
		c-0.221-0.091-0.479-0.136-0.773-0.136c-0.286,0-0.548,0.054-0.787,0.162c-0.239,0.109-0.44,0.25-0.604,0.423
		c-0.165,0.173-0.292,0.366-0.384,0.579c-0.091,0.212-0.136,0.422-0.136,0.63H19.512z"/>
	<path fill="#FFFFFF" d="M22.125,2.199h1.17v9.828h-1.17V2.199z"/>
	<path fill="#FFFFFF" d="M29.431,7.503c-0.217-0.225-0.444-0.396-0.683-0.514c-0.238-0.117-0.522-0.175-0.852-0.175
		c-0.321,0-0.6,0.059-0.838,0.175C26.82,7.106,26.621,7.267,26.46,7.47c-0.16,0.204-0.282,0.438-0.364,0.702
		c-0.083,0.265-0.124,0.54-0.124,0.826c0,0.286,0.047,0.557,0.143,0.812c0.095,0.255,0.229,0.479,0.403,0.669
		s0.381,0.34,0.624,0.448c0.243,0.108,0.516,0.163,0.819,0.163c0.33,0,0.611-0.059,0.845-0.175c0.234-0.117,0.451-0.288,0.65-0.514
		l0.832,0.832c-0.303,0.338-0.656,0.581-1.06,0.728c-0.403,0.147-0.83,0.221-1.28,0.221c-0.477,0-0.912-0.078-1.307-0.234
		c-0.395-0.156-0.734-0.375-1.021-0.656s-0.507-0.62-0.663-1.014c-0.156-0.394-0.234-0.83-0.234-1.307
		c0-0.477,0.078-0.914,0.234-1.313c0.156-0.398,0.375-0.741,0.657-1.027c0.281-0.286,0.62-0.509,1.014-0.669
		c0.395-0.16,0.834-0.241,1.32-0.241c0.451,0,0.882,0.081,1.293,0.241c0.412,0.161,0.769,0.405,1.072,0.734L29.431,7.503z"/>
	<path fill="#FFFFFF" d="M30.861,8.946c0-0.451,0.084-0.871,0.253-1.261c0.169-0.39,0.401-0.732,0.696-1.027
		c0.294-0.294,0.641-0.526,1.04-0.695c0.398-0.169,0.827-0.253,1.287-0.253s0.888,0.084,1.287,0.253
		c0.398,0.169,0.745,0.401,1.04,0.695c0.294,0.295,0.526,0.637,0.695,1.027c0.169,0.39,0.254,0.81,0.254,1.261
		s-0.084,0.873-0.254,1.268c-0.169,0.395-0.401,0.737-0.695,1.027c-0.295,0.291-0.642,0.52-1.04,0.689
		c-0.399,0.169-0.828,0.253-1.287,0.253s-0.888-0.084-1.287-0.253c-0.399-0.169-0.746-0.398-1.04-0.689
		c-0.295-0.29-0.527-0.632-0.696-1.027S30.861,9.396,30.861,8.946z M32.109,8.946c0,0.312,0.047,0.6,0.143,0.865
		c0.095,0.264,0.229,0.49,0.403,0.676c0.173,0.187,0.386,0.334,0.637,0.442c0.251,0.108,0.533,0.163,0.845,0.163
		s0.594-0.054,0.845-0.163c0.251-0.108,0.463-0.255,0.637-0.442c0.173-0.186,0.308-0.412,0.403-0.676
		c0.095-0.265,0.143-0.553,0.143-0.865s-0.048-0.6-0.143-0.864c-0.096-0.265-0.23-0.49-0.403-0.676
		c-0.173-0.186-0.386-0.333-0.637-0.442c-0.251-0.108-0.533-0.163-0.845-0.163s-0.594,0.054-0.845,0.163
		c-0.251,0.108-0.464,0.256-0.637,0.442c-0.173,0.187-0.308,0.412-0.403,0.676C32.156,8.346,32.109,8.634,32.109,8.946z"/>
	<path fill="#FFFFFF" d="M38.751,5.865h1.092v0.962h0.026c0.026-0.086,0.093-0.195,0.202-0.325c0.108-0.13,0.247-0.253,0.416-0.371
		s0.368-0.216,0.598-0.299c0.23-0.083,0.483-0.124,0.761-0.124c0.459,0,0.845,0.095,1.157,0.286
		c0.312,0.191,0.568,0.477,0.767,0.858c0.199-0.381,0.481-0.667,0.845-0.858c0.364-0.19,0.732-0.286,1.105-0.286
		c0.477,0,0.867,0.078,1.17,0.234c0.303,0.156,0.542,0.362,0.715,0.618c0.173,0.255,0.292,0.546,0.358,0.871
		c0.065,0.325,0.097,0.661,0.097,1.008v3.588h-1.17V8.595c0-0.234-0.015-0.459-0.045-0.676c-0.031-0.217-0.093-0.407-0.188-0.572
		c-0.096-0.165-0.23-0.296-0.403-0.396c-0.173-0.1-0.403-0.149-0.689-0.149c-0.563,0-0.966,0.173-1.209,0.52
		s-0.364,0.793-0.364,1.339v3.367h-1.17V8.803c0-0.294-0.015-0.563-0.045-0.806c-0.031-0.243-0.091-0.453-0.182-0.631
		c-0.091-0.177-0.221-0.316-0.39-0.416c-0.169-0.1-0.396-0.149-0.683-0.149c-0.208,0-0.409,0.042-0.604,0.124
		c-0.195,0.083-0.366,0.206-0.513,0.371c-0.147,0.165-0.265,0.375-0.351,0.63c-0.087,0.256-0.13,0.557-0.13,0.903v3.198h-1.17V5.865
		z"/>
	<path fill="#FFFFFF" d="M50.582,9.375c0,0.269,0.059,0.513,0.175,0.734c0.117,0.221,0.271,0.41,0.461,0.565
		c0.191,0.156,0.412,0.277,0.663,0.364c0.251,0.086,0.511,0.13,0.78,0.13c0.364,0,0.68-0.084,0.949-0.253s0.516-0.392,0.741-0.669
		l0.884,0.676c-0.65,0.841-1.56,1.261-2.73,1.261c-0.485,0-0.925-0.082-1.319-0.247c-0.395-0.165-0.728-0.392-1.001-0.683
		s-0.483-0.633-0.63-1.027c-0.147-0.395-0.221-0.821-0.221-1.281c0-0.459,0.08-0.886,0.241-1.28c0.16-0.395,0.381-0.737,0.663-1.027
		c0.282-0.29,0.618-0.518,1.008-0.682c0.39-0.165,0.814-0.247,1.274-0.247c0.546,0,1.007,0.095,1.384,0.286
		c0.377,0.191,0.687,0.44,0.93,0.748c0.243,0.308,0.418,0.655,0.526,1.04c0.108,0.386,0.163,0.778,0.163,1.177v0.416H50.582z
		 M54.274,8.439c-0.009-0.26-0.05-0.499-0.124-0.715c-0.074-0.216-0.184-0.405-0.332-0.565c-0.147-0.16-0.332-0.286-0.552-0.377
		c-0.221-0.091-0.479-0.136-0.773-0.136c-0.286,0-0.548,0.054-0.787,0.162c-0.239,0.109-0.44,0.25-0.604,0.423
		c-0.165,0.173-0.292,0.366-0.384,0.579c-0.091,0.212-0.136,0.422-0.136,0.63H54.274z"/>
	<path fill="#FFFFFF" d="M63.581,6.879h-1.676v2.795c0,0.173,0.004,0.345,0.012,0.514c0.01,0.169,0.041,0.321,0.098,0.455
		s0.145,0.243,0.26,0.325c0.117,0.083,0.289,0.124,0.514,0.124c0.139,0,0.283-0.013,0.43-0.039c0.148-0.026,0.281-0.073,0.402-0.143
		v1.066c-0.139,0.078-0.318,0.132-0.539,0.162s-0.393,0.045-0.514,0.045c-0.451,0-0.799-0.062-1.046-0.188
		c-0.247-0.125-0.429-0.288-0.546-0.487c-0.117-0.199-0.187-0.422-0.208-0.669c-0.022-0.247-0.033-0.496-0.033-0.748V6.879h-1.352
		V5.865h1.352V4.136h1.171v1.729h1.676V6.879z"/>
	<path fill="#FFFFFF" d="M64.661,8.946c0-0.451,0.084-0.871,0.254-1.261c0.168-0.39,0.4-0.732,0.695-1.027
		c0.293-0.294,0.641-0.526,1.039-0.695s0.828-0.253,1.287-0.253s0.889,0.084,1.287,0.253s0.746,0.401,1.041,0.695
		c0.293,0.295,0.525,0.637,0.695,1.027c0.168,0.39,0.252,0.81,0.252,1.261s-0.084,0.873-0.252,1.268
		c-0.17,0.395-0.402,0.737-0.695,1.027c-0.295,0.291-0.643,0.52-1.041,0.689s-0.828,0.253-1.287,0.253s-0.889-0.084-1.287-0.253
		s-0.746-0.398-1.039-0.689c-0.295-0.29-0.527-0.632-0.695-1.027C64.745,9.819,64.661,9.396,64.661,8.946z M65.909,8.946
		c0,0.312,0.047,0.6,0.143,0.865c0.096,0.264,0.229,0.49,0.402,0.676c0.174,0.187,0.387,0.334,0.637,0.442
		c0.252,0.108,0.533,0.163,0.846,0.163s0.594-0.054,0.846-0.163c0.25-0.108,0.463-0.255,0.637-0.442
		c0.174-0.186,0.307-0.412,0.402-0.676c0.096-0.265,0.143-0.553,0.143-0.865s-0.047-0.6-0.143-0.864
		c-0.096-0.265-0.229-0.49-0.402-0.676c-0.174-0.186-0.387-0.333-0.637-0.442c-0.252-0.108-0.533-0.163-0.846-0.163
		s-0.594,0.054-0.846,0.163c-0.25,0.108-0.463,0.256-0.637,0.442c-0.174,0.187-0.307,0.412-0.402,0.676
		C65.956,8.346,65.909,8.634,65.909,8.946z"/>
	<path fill="#FFFFFF" d="M79.337,6.879h-1.676v2.795c0,0.173,0.004,0.345,0.014,0.514c0.008,0.169,0.041,0.321,0.096,0.455
		c0.057,0.134,0.145,0.243,0.262,0.325c0.115,0.083,0.287,0.124,0.512,0.124c0.139,0,0.283-0.013,0.43-0.039
		c0.148-0.026,0.281-0.073,0.402-0.143v1.066c-0.139,0.078-0.318,0.132-0.539,0.162s-0.393,0.045-0.514,0.045
		c-0.449,0-0.799-0.062-1.045-0.188c-0.248-0.125-0.43-0.288-0.547-0.487c-0.117-0.199-0.188-0.422-0.209-0.669
		s-0.031-0.496-0.031-0.748V6.879H75.14V5.865h1.352V4.136h1.17v1.729h1.676V6.879z"/>
	<path fill="#FFFFFF" d="M80.716,2.199h1.17v4.615h0.025c0.148-0.33,0.404-0.596,0.768-0.8c0.363-0.203,0.783-0.305,1.262-0.305
		c0.293,0,0.578,0.045,0.852,0.136c0.271,0.091,0.51,0.232,0.715,0.423c0.203,0.19,0.365,0.435,0.486,0.734
		c0.121,0.299,0.182,0.652,0.182,1.06v3.965h-1.17v-3.64c0-0.286-0.039-0.531-0.117-0.734s-0.182-0.368-0.311-0.494
		c-0.131-0.125-0.279-0.216-0.449-0.273c-0.168-0.056-0.344-0.084-0.527-0.084c-0.242,0-0.467,0.039-0.676,0.117
		c-0.207,0.078-0.389,0.201-0.545,0.371c-0.156,0.169-0.277,0.383-0.365,0.643c-0.086,0.26-0.129,0.568-0.129,0.923v3.172h-1.17
		V2.199z"/>
	<path fill="#FFFFFF" d="M88.696,9.375c0,0.269,0.059,0.513,0.176,0.734s0.271,0.41,0.463,0.565c0.189,0.156,0.41,0.277,0.662,0.364
		c0.252,0.086,0.512,0.13,0.779,0.13c0.365,0,0.682-0.084,0.949-0.253c0.27-0.169,0.516-0.392,0.742-0.669l0.883,0.676
		c-0.648,0.841-1.559,1.261-2.729,1.261c-0.486,0-0.926-0.082-1.32-0.247s-0.729-0.392-1.002-0.683
		c-0.271-0.291-0.482-0.633-0.629-1.027c-0.148-0.395-0.223-0.821-0.223-1.281c0-0.459,0.08-0.886,0.242-1.28
		c0.16-0.395,0.381-0.737,0.662-1.027c0.281-0.29,0.617-0.518,1.008-0.682s0.814-0.247,1.273-0.247c0.547,0,1.008,0.095,1.385,0.286
		c0.377,0.191,0.688,0.44,0.93,0.748c0.242,0.308,0.418,0.655,0.527,1.04c0.107,0.386,0.162,0.778,0.162,1.177v0.416H88.696z
		 M92.39,8.439c-0.01-0.26-0.051-0.499-0.123-0.715c-0.074-0.216-0.186-0.405-0.332-0.565c-0.148-0.16-0.332-0.286-0.553-0.377
		c-0.221-0.091-0.479-0.136-0.773-0.136c-0.287,0-0.549,0.054-0.787,0.162c-0.238,0.109-0.439,0.25-0.604,0.423
		c-0.166,0.173-0.293,0.366-0.385,0.579c-0.09,0.212-0.137,0.422-0.137,0.63H92.39z"/>
	<path fill="#FFFFFF" d="M98.396,5.865h1.17v0.949h0.025c0.148-0.33,0.404-0.596,0.768-0.8c0.363-0.203,0.783-0.305,1.262-0.305
		c0.293,0,0.578,0.045,0.852,0.136c0.271,0.091,0.51,0.232,0.715,0.423c0.203,0.19,0.365,0.435,0.486,0.734
		c0.121,0.299,0.182,0.652,0.182,1.06v3.965h-1.17v-3.64c0-0.286-0.039-0.531-0.117-0.734s-0.182-0.368-0.311-0.494
		c-0.131-0.125-0.279-0.216-0.449-0.273c-0.168-0.056-0.344-0.084-0.527-0.084c-0.242,0-0.467,0.039-0.676,0.117
		c-0.207,0.078-0.389,0.201-0.545,0.371c-0.156,0.169-0.277,0.383-0.365,0.643c-0.086,0.26-0.129,0.568-0.129,0.923v3.172h-1.17
		V5.865z"/>
	<path fill="#FFFFFF" d="M106.378,9.375c0,0.269,0.059,0.513,0.176,0.734s0.27,0.41,0.461,0.565
		c0.191,0.156,0.412,0.277,0.664,0.364c0.25,0.086,0.51,0.13,0.779,0.13c0.363,0,0.68-0.084,0.949-0.253
		c0.268-0.169,0.516-0.392,0.74-0.669l0.885,0.676c-0.65,0.841-1.561,1.261-2.73,1.261c-0.486,0-0.926-0.082-1.32-0.247
		c-0.393-0.165-0.727-0.392-1-0.683s-0.482-0.633-0.631-1.027c-0.146-0.395-0.221-0.821-0.221-1.281c0-0.459,0.08-0.886,0.24-1.28
		s0.381-0.737,0.664-1.027c0.281-0.29,0.617-0.518,1.006-0.682c0.391-0.165,0.814-0.247,1.275-0.247
		c0.545,0,1.008,0.095,1.385,0.286c0.377,0.191,0.686,0.44,0.928,0.748c0.244,0.308,0.42,0.655,0.527,1.04
		c0.107,0.386,0.162,0.778,0.162,1.177v0.416H106.378z M110.069,8.439c-0.008-0.26-0.049-0.499-0.123-0.715
		c-0.074-0.216-0.184-0.405-0.332-0.565c-0.146-0.16-0.33-0.286-0.553-0.377c-0.221-0.091-0.479-0.136-0.773-0.136
		c-0.285,0-0.547,0.054-0.785,0.162c-0.238,0.109-0.441,0.25-0.605,0.423s-0.293,0.366-0.383,0.579
		c-0.092,0.212-0.137,0.422-0.137,0.63H110.069z"/>
	<path fill="#FFFFFF" d="M111.851,5.865h1.312l1.385,4.602h0.025l1.477-4.602h1.248l1.561,4.602h0.025l1.312-4.602h1.248
		l-1.988,6.162h-1.184l-1.633-4.602h-0.025l-1.488,4.602h-1.248L111.851,5.865z"/>
	<path fill="#FFFFFF" d="M19.896,15.823h1.859l2.925,6.968h0.052l2.899-6.968h1.859v9.204h-1.248V17.46h-0.026l-3.107,7.566h-0.832
		L21.17,17.46h-0.026v7.566h-1.248V15.823z"/>
	<path fill="#FFFFFF" d="M31.362,19.619c0.329-0.303,0.71-0.531,1.144-0.682c0.433-0.152,0.866-0.229,1.3-0.229
		c0.451,0,0.838,0.057,1.164,0.17c0.325,0.112,0.591,0.264,0.799,0.455c0.208,0.189,0.362,0.408,0.461,0.656
		c0.1,0.246,0.15,0.504,0.15,0.773v3.146c0,0.217,0.004,0.416,0.013,0.599c0.009,0.182,0.021,0.355,0.039,0.52h-1.04
		c-0.026-0.312-0.039-0.624-0.039-0.936h-0.026c-0.26,0.398-0.568,0.68-0.923,0.845c-0.355,0.165-0.767,0.247-1.235,0.247
		c-0.286,0-0.559-0.039-0.819-0.117c-0.26-0.078-0.487-0.195-0.683-0.352c-0.195-0.155-0.349-0.348-0.461-0.578
		c-0.113-0.229-0.169-0.496-0.169-0.799c0-0.398,0.089-0.732,0.267-1.002c0.177-0.268,0.42-0.487,0.728-0.656
		s0.667-0.29,1.079-0.363c0.411-0.074,0.851-0.111,1.319-0.111h0.858v-0.26c0-0.156-0.03-0.312-0.091-0.468
		c-0.061-0.156-0.152-0.297-0.273-0.423c-0.122-0.125-0.273-0.225-0.455-0.299s-0.399-0.11-0.65-0.11
		c-0.226,0-0.423,0.021-0.592,0.065c-0.169,0.043-0.323,0.097-0.461,0.162c-0.139,0.064-0.265,0.141-0.377,0.228
		c-0.113,0.087-0.221,0.169-0.325,0.247L31.362,19.619z M34.664,22.063c-0.277,0-0.561,0.015-0.852,0.046
		c-0.291,0.029-0.555,0.088-0.793,0.175s-0.434,0.208-0.585,0.364c-0.152,0.156-0.228,0.355-0.228,0.598
		c0,0.355,0.119,0.611,0.357,0.768s0.561,0.234,0.969,0.234c0.32,0,0.593-0.055,0.819-0.163s0.407-0.249,0.546-0.423
		c0.139-0.173,0.238-0.365,0.299-0.578c0.061-0.213,0.091-0.423,0.091-0.631v-0.39H34.664z"/>
	<path fill="#FFFFFF" d="M42.36,20.503c-0.217-0.226-0.444-0.396-0.683-0.514s-0.522-0.176-0.852-0.176
		c-0.321,0-0.6,0.059-0.838,0.176s-0.438,0.277-0.598,0.48c-0.16,0.204-0.282,0.438-0.364,0.702
		c-0.083,0.265-0.124,0.54-0.124,0.825c0,0.286,0.047,0.557,0.143,0.812c0.095,0.256,0.229,0.479,0.403,0.67s0.381,0.34,0.624,0.448
		s0.516,0.163,0.819,0.163c0.33,0,0.611-0.059,0.845-0.176s0.451-0.288,0.65-0.514l0.832,0.832c-0.303,0.338-0.656,0.58-1.06,0.729
		c-0.403,0.146-0.83,0.221-1.28,0.221c-0.477,0-0.912-0.078-1.307-0.234s-0.734-0.375-1.021-0.656s-0.507-0.619-0.663-1.014
		c-0.156-0.395-0.234-0.83-0.234-1.307s0.078-0.914,0.234-1.313c0.156-0.398,0.375-0.741,0.657-1.026
		c0.281-0.287,0.62-0.51,1.014-0.67c0.395-0.16,0.834-0.24,1.32-0.24c0.451,0,0.882,0.08,1.293,0.24s0.769,0.405,1.072,0.734
		L42.36,20.503z"/>
	<path fill="#FFFFFF" d="M43.361,18.865h1.352l1.825,4.811h0.026l1.75-4.811h1.248l-2.925,7.488
		c-0.104,0.269-0.212,0.514-0.324,0.734c-0.112,0.221-0.246,0.41-0.401,0.565c-0.155,0.156-0.343,0.277-0.563,0.364
		c-0.22,0.086-0.49,0.13-0.809,0.13c-0.173,0-0.348-0.011-0.525-0.032c-0.177-0.021-0.347-0.067-0.511-0.137l0.143-1.066
		c0.232,0.096,0.465,0.143,0.697,0.143c0.181,0,0.333-0.023,0.458-0.07c0.125-0.049,0.232-0.117,0.323-0.209
		c0.091-0.09,0.166-0.197,0.226-0.318c0.061-0.121,0.121-0.26,0.181-0.416l0.379-0.975L43.361,18.865z"/>
	<path fill="#FFFFFF" d="M51.889,19.021h-1.066l0.897-3.198h1.248L51.889,19.021z"/>
	<path fill="#FFFFFF" d="M56.439,20.412c-0.139-0.173-0.31-0.318-0.514-0.436S55.472,19.8,55.178,19.8
		c-0.277,0-0.518,0.059-0.721,0.176c-0.204,0.117-0.306,0.289-0.306,0.514c0,0.182,0.059,0.33,0.175,0.441
		c0.117,0.113,0.256,0.205,0.416,0.273c0.16,0.07,0.332,0.121,0.514,0.156s0.338,0.064,0.468,0.091
		c0.251,0.062,0.488,0.135,0.708,0.222c0.221,0.086,0.412,0.199,0.572,0.338c0.16,0.139,0.286,0.307,0.377,0.507
		c0.091,0.199,0.136,0.442,0.136,0.728c0,0.348-0.074,0.644-0.221,0.891c-0.147,0.247-0.338,0.449-0.572,0.604
		c-0.234,0.156-0.5,0.269-0.799,0.338s-0.6,0.104-0.903,0.104c-0.512,0-0.96-0.078-1.346-0.234s-0.73-0.441-1.034-0.857l0.884-0.729
		c0.19,0.191,0.403,0.359,0.637,0.507c0.234,0.147,0.52,0.222,0.858,0.222c0.147,0,0.296-0.016,0.448-0.046s0.286-0.078,0.403-0.144
		c0.117-0.064,0.212-0.146,0.286-0.246s0.111-0.215,0.111-0.345c0-0.173-0.055-0.316-0.163-0.429
		c-0.108-0.113-0.239-0.202-0.39-0.268c-0.152-0.064-0.312-0.116-0.481-0.155s-0.318-0.071-0.449-0.098
		c-0.251-0.061-0.49-0.13-0.715-0.208c-0.226-0.078-0.425-0.182-0.598-0.312c-0.173-0.129-0.312-0.294-0.416-0.494
		c-0.104-0.199-0.156-0.445-0.156-0.74c0-0.32,0.067-0.6,0.202-0.838c0.134-0.238,0.312-0.436,0.533-0.592
		c0.221-0.156,0.472-0.273,0.754-0.352s0.566-0.117,0.852-0.117c0.416,0,0.814,0.078,1.196,0.234
		c0.381,0.156,0.685,0.416,0.91,0.779L56.439,20.412z"/>
	<path fill="#FFFFFF" d="M62.288,18.865h1.092v0.962h0.027c0.025-0.087,0.092-0.194,0.201-0.325c0.107-0.129,0.246-0.253,0.416-0.37
		c0.168-0.117,0.367-0.216,0.598-0.299s0.482-0.124,0.76-0.124c0.461,0,0.846,0.096,1.158,0.286s0.566,0.478,0.768,0.858
		c0.199-0.381,0.48-0.668,0.844-0.858c0.365-0.19,0.732-0.286,1.105-0.286c0.477,0,0.867,0.078,1.17,0.234s0.541,0.361,0.715,0.617
		s0.293,0.547,0.357,0.871c0.064,0.325,0.098,0.661,0.098,1.008v3.588h-1.17v-3.432c0-0.234-0.016-0.459-0.045-0.676
		c-0.031-0.217-0.094-0.408-0.189-0.572c-0.096-0.165-0.229-0.297-0.402-0.396s-0.402-0.15-0.689-0.15
		c-0.562,0-0.967,0.174-1.209,0.521s-0.363,0.793-0.363,1.339v3.367h-1.17v-3.225c0-0.294-0.016-0.562-0.047-0.805
		c-0.029-0.243-0.09-0.453-0.182-0.631c-0.09-0.178-0.221-0.316-0.389-0.416c-0.17-0.1-0.396-0.15-0.684-0.15
		c-0.207,0-0.41,0.042-0.604,0.124c-0.195,0.083-0.367,0.206-0.514,0.37c-0.148,0.165-0.266,0.375-0.352,0.631
		s-0.131,0.557-0.131,0.903v3.198h-1.17V18.865z"/>
	<path fill="#FFFFFF" d="M72.937,21.946c0-0.45,0.084-0.871,0.254-1.261c0.168-0.391,0.4-0.732,0.695-1.027
		c0.293-0.295,0.641-0.526,1.039-0.695s0.828-0.254,1.287-0.254s0.889,0.085,1.287,0.254s0.746,0.4,1.041,0.695
		c0.293,0.295,0.525,0.637,0.695,1.027c0.168,0.39,0.252,0.811,0.252,1.261s-0.084,0.873-0.252,1.268
		c-0.17,0.395-0.402,0.737-0.695,1.026c-0.295,0.291-0.643,0.521-1.041,0.689s-0.828,0.254-1.287,0.254s-0.889-0.085-1.287-0.254
		s-0.746-0.398-1.039-0.689c-0.295-0.289-0.527-0.632-0.695-1.026C73.021,22.819,72.937,22.396,72.937,21.946z M74.185,21.946
		c0,0.312,0.047,0.601,0.143,0.864c0.096,0.265,0.229,0.49,0.402,0.676c0.174,0.188,0.387,0.334,0.637,0.442
		c0.252,0.108,0.533,0.163,0.846,0.163s0.594-0.055,0.846-0.163c0.25-0.108,0.463-0.255,0.637-0.442
		c0.174-0.186,0.307-0.411,0.402-0.676c0.096-0.264,0.143-0.553,0.143-0.864s-0.047-0.601-0.143-0.864
		c-0.096-0.265-0.229-0.49-0.402-0.676c-0.174-0.187-0.387-0.334-0.637-0.442c-0.252-0.108-0.533-0.163-0.846-0.163
		s-0.594,0.055-0.846,0.163c-0.25,0.108-0.463,0.256-0.637,0.442c-0.174,0.186-0.307,0.411-0.402,0.676
		C74.231,21.345,74.185,21.634,74.185,21.946z"/>
	<path fill="#FFFFFF" d="M80.827,15.199h1.17v4.551h0.025c0.209-0.321,0.508-0.574,0.896-0.762c0.391-0.186,0.807-0.279,1.248-0.279
		c0.477,0,0.908,0.083,1.295,0.248c0.385,0.164,0.715,0.392,0.988,0.682c0.271,0.291,0.482,0.633,0.629,1.027
		c0.148,0.395,0.223,0.821,0.223,1.28c0,0.46-0.074,0.884-0.223,1.274c-0.146,0.39-0.357,0.732-0.629,1.027
		c-0.273,0.294-0.604,0.523-0.988,0.688c-0.387,0.165-0.818,0.247-1.295,0.247c-0.416,0-0.82-0.092-1.215-0.273
		s-0.703-0.438-0.93-0.767h-0.025v0.884h-1.17V15.199z M84.024,24.091c0.312,0,0.594-0.055,0.846-0.163s0.463-0.255,0.637-0.442
		c0.174-0.186,0.307-0.411,0.402-0.676c0.096-0.264,0.145-0.553,0.145-0.864s-0.049-0.601-0.145-0.864
		c-0.096-0.265-0.229-0.49-0.402-0.676c-0.174-0.187-0.385-0.334-0.637-0.442S84.337,19.8,84.024,19.8s-0.594,0.055-0.844,0.163
		c-0.252,0.108-0.465,0.256-0.639,0.442c-0.172,0.186-0.307,0.411-0.402,0.676c-0.096,0.264-0.143,0.553-0.143,0.864
		s0.047,0.601,0.143,0.864c0.096,0.265,0.23,0.49,0.402,0.676c0.174,0.188,0.387,0.334,0.639,0.442
		C83.431,24.037,83.712,24.091,84.024,24.091z"/>
	<path fill="#FFFFFF" d="M88.458,16.655c0-0.233,0.084-0.436,0.252-0.604c0.17-0.169,0.371-0.254,0.605-0.254
		s0.436,0.085,0.604,0.254c0.17,0.169,0.254,0.371,0.254,0.604s-0.084,0.436-0.254,0.604c-0.168,0.169-0.369,0.254-0.604,0.254
		s-0.436-0.085-0.605-0.254C88.542,17.09,88.458,16.888,88.458,16.655z M88.729,18.865h1.17v6.162h-1.17V18.865z"/>
	<path fill="#FFFFFF" d="M91.72,15.199h1.17v9.828h-1.17V15.199z"/>
	<path fill="#FFFFFF" d="M95.503,22.375c0,0.27,0.059,0.514,0.176,0.734c0.117,0.222,0.27,0.41,0.461,0.566s0.412,0.277,0.664,0.363
		c0.25,0.087,0.51,0.131,0.779,0.131c0.363,0,0.68-0.085,0.949-0.254c0.268-0.169,0.516-0.393,0.74-0.67l0.885,0.676
		c-0.65,0.842-1.561,1.262-2.73,1.262c-0.486,0-0.926-0.082-1.32-0.247c-0.393-0.165-0.727-0.392-1-0.683s-0.482-0.633-0.631-1.027
		c-0.146-0.395-0.221-0.82-0.221-1.28c0-0.459,0.08-0.886,0.24-1.28s0.381-0.736,0.664-1.027c0.281-0.29,0.617-0.518,1.006-0.682
		c0.391-0.165,0.814-0.248,1.275-0.248c0.545,0,1.008,0.096,1.385,0.286s0.686,0.44,0.928,0.747c0.244,0.309,0.42,0.655,0.527,1.041
		c0.107,0.385,0.162,0.777,0.162,1.176v0.416H95.503z M99.194,21.439c-0.008-0.26-0.049-0.498-0.123-0.715s-0.184-0.405-0.332-0.566
		c-0.146-0.16-0.33-0.285-0.553-0.377c-0.221-0.09-0.479-0.136-0.773-0.136c-0.285,0-0.547,0.054-0.785,0.162
		s-0.441,0.249-0.605,0.423s-0.293,0.366-0.383,0.578c-0.092,0.213-0.137,0.423-0.137,0.631H99.194z"/>
	<path fill="#FFFFFF" d="M101.782,24.248c0-0.234,0.084-0.436,0.254-0.605c0.168-0.169,0.371-0.254,0.604-0.254
		c0.234,0,0.436,0.085,0.605,0.254c0.168,0.17,0.254,0.371,0.254,0.605c0,0.233-0.086,0.435-0.254,0.604
		c-0.17,0.17-0.371,0.254-0.605,0.254c-0.232,0-0.436-0.084-0.604-0.254C101.866,24.682,101.782,24.481,101.782,24.248z
		 M103.239,22.375h-1.248v-6.552h1.248V22.375z"/>
</g>
</svg>
