<?xml version="1.0" encoding="utf-8"?>
<!-- Generator: Adobe Illustrator 16.0.4, SVG Export Plug-In . SVG Version: 6.00 Build 0)  -->
<!DOCTYPE svg PUBLIC "-//W3C//DTD SVG 1.1//EN" "http://www.w3.org/Graphics/SVG/1.1/DTD/svg11.dtd">
<svg version="1.1" id="Layer_1" xmlns="http://www.w3.org/2000/svg" xmlns:xlink="http://www.w3.org/1999/xlink" x="0px" y="0px"
	 width="40px" height="40px" viewBox="0 0 40 40" enable-background="new 0 0 40 40" xml:space="preserve">
<path id="Blue_1_" fill="#3D5A98" d="M37.531,39.773c1.203,0,2.18-0.977,2.18-2.179V2.469c0-1.204-0.977-2.18-2.18-2.18H2.406
	c-1.205,0-2.18,0.976-2.18,2.18v35.126c0,1.202,0.975,2.179,2.18,2.179H37.531z"/>
<path id="f" fill="#FFFFFF" d="M27.47,39.69V24.4h5.133l0.768-5.959h-5.9v-3.805c0-1.725,0.479-2.901,2.953-2.901l3.156-0.001V6.404
	c-0.547-0.073-2.42-0.234-4.599-0.234c-4.549,0-7.664,2.777-7.664,7.876v4.395h-5.146V24.4h5.146v15.29H27.47z"/>
</svg>
