<?xml version="1.0" encoding="utf-8"?>
<!-- Generator: Adobe Illustrator 16.0.4, SVG Export Plug-In . SVG Version: 6.00 Build 0)  -->
<!DOCTYPE svg PUBLIC "-//W3C//DTD SVG 1.1//EN" "http://www.w3.org/Graphics/SVG/1.1/DTD/svg11.dtd">
<svg version="1.1" id="Layer_1" xmlns="http://www.w3.org/2000/svg" xmlns:xlink="http://www.w3.org/1999/xlink" x="0px" y="0px"
	 width="40px" height="40px" viewBox="0 0 40 40" enable-background="new 0 0 40 40" xml:space="preserve">
<path id="Blue_1_" fill="#DD4B39" d="M37.646,39.836c1.209,0,2.19-0.981,2.19-2.189V2.354c0-1.21-0.981-2.19-2.19-2.19H2.354
	c-1.21,0-2.19,0.98-2.19,2.19v35.292c0,1.208,0.979,2.189,2.19,2.189H37.646z"/>
<g id="Rectangle_1_copy">
	<g>
		<path fill="#FFFFFF" d="M22.951,6.827H16.06c-0.914,0-1.895,0.107-2.94,0.321c-1.057,0.248-2.073,0.776-3.054,1.586
			c-1.426,1.384-2.139,2.926-2.139,4.624c0,1.406,0.502,2.638,1.509,3.695c0.962,1.137,2.361,1.716,4.194,1.738
			c0.347,0,0.716-0.022,1.108-0.068c-0.064,0.182-0.135,0.38-0.21,0.594c-0.087,0.204-0.131,0.459-0.131,0.764
			c0,0.509,0.114,0.944,0.341,1.307c0.193,0.375,0.416,0.724,0.664,1.052c-0.804,0.023-1.814,0.123-3.031,0.304
			c-1.228,0.214-2.401,0.64-3.516,1.281c-0.994,0.594-1.681,1.285-2.061,2.072c-0.391,0.786-0.586,1.498-0.586,2.14
			c0,1.312,0.601,2.442,1.803,3.385c1.189,1.011,2.992,1.528,5.406,1.551c2.884-0.045,5.09-0.736,6.619-2.077
			c1.473-1.293,2.21-2.778,2.21-4.455c-0.02-1.181-0.289-2.138-0.803-2.869c-0.55-0.722-1.187-1.377-1.914-1.976l-1.169-0.961
			c-0.169-0.169-0.342-0.365-0.521-0.59c-0.211-0.237-0.316-0.534-0.316-0.896c0-0.37,0.103-0.698,0.308-0.979
			c0.175-0.27,0.364-0.511,0.57-0.726c0.359-0.314,0.698-0.625,1.016-0.928c0.288-0.303,0.559-0.635,0.816-0.995
			c0.523-0.742,0.795-1.732,0.815-2.971c0-0.676-0.076-1.266-0.227-1.772c-0.183-0.506-0.395-0.945-0.632-1.316
			c-0.249-0.394-0.504-0.726-0.764-0.997c-0.27-0.258-0.513-0.455-0.729-0.589h2.125L22.951,6.827z M19.173,25.697
			c0.57,0.653,0.856,1.418,0.856,2.295c0,1.08-0.417,1.966-1.251,2.651c-0.855,0.698-2.095,1.058-3.72,1.08
			c-1.811-0.022-3.237-0.428-4.279-1.215c-1.098-0.788-1.646-1.789-1.646-3.004c0-0.62,0.127-1.149,0.378-1.587
			c0.22-0.416,0.489-0.767,0.807-1.047c0.33-0.271,0.653-0.479,0.971-0.625c0.318-0.136,0.565-0.237,0.741-0.304
			c0.746-0.226,1.476-0.389,2.189-0.489c0.724-0.069,1.173-0.092,1.349-0.069c0.296,0,0.554,0.012,0.773,0.035
			C17.627,24.318,18.569,25.078,19.173,25.697z M18.055,15.517c-0.083,0.461-0.271,0.912-0.563,1.352
			c-0.604,0.62-1.36,0.947-2.267,0.981c-0.719,0-1.357-0.219-1.916-0.66c-0.558-0.439-1.015-0.975-1.367-1.606
			c-0.73-1.353-1.095-2.655-1.095-3.907c-0.022-0.946,0.227-1.803,0.75-2.57c0.618-0.733,1.396-1.111,2.329-1.134
			c0.707,0.023,1.331,0.231,1.874,0.626c0.532,0.417,0.961,0.958,1.288,1.624c0.695,1.387,1.042,2.763,1.042,4.127
			C18.13,14.666,18.104,15.054,18.055,15.517z M33.704,17.614v-0.019h-3.626V13.9h-2.12v3.695H24.31v2.062h0.022v0.078h3.626v3.624
			h2.12v-3.624h3.713v-2.121H33.704z"/>
	</g>
</g>
</svg>
