<?xml version="1.0" encoding="utf-8"?>
<!-- Generator: Adobe Illustrator 16.0.4, SVG Export Plug-In . SVG Version: 6.00 Build 0)  -->
<!DOCTYPE svg PUBLIC "-//W3C//DTD SVG 1.1//EN" "http://www.w3.org/Graphics/SVG/1.1/DTD/svg11.dtd">
<svg version="1.1" id="Layer_1" xmlns="http://www.w3.org/2000/svg" xmlns:xlink="http://www.w3.org/1999/xlink" x="0px" y="0px"
	 width="50px" height="50px" viewBox="0 0 50 50" enable-background="new 0 0 50 50" xml:space="preserve">
<g>
	<path fill="#CB2027" d="M24.946,0.082c-13.716,0-24.835,11.12-24.835,24.836c0,10.168,6.115,18.904,14.865,22.744
		c-0.07-1.733-0.013-3.814,0.432-5.701c0.477-2.018,3.196-13.533,3.196-13.533s-0.793-1.585-0.793-3.929
		c0-3.681,2.133-6.43,4.79-6.43c2.258,0,3.35,1.697,3.35,3.729c0,2.27-1.449,5.668-2.193,8.812
		c-0.623,2.635,1.321,4.783,3.919,4.783c4.705,0,7.875-6.044,7.875-13.203c0-5.443-3.666-9.517-10.333-9.517
		c-7.534,0-12.227,5.617-12.227,11.893c0,2.164,0.638,3.689,1.637,4.871c0.459,0.542,0.523,0.76,0.356,1.385
		c-0.119,0.456-0.392,1.557-0.506,1.992c-0.165,0.63-0.674,0.854-1.243,0.622c-3.47-1.417-5.085-5.217-5.085-9.487
		c0-7.057,5.949-15.516,17.749-15.516c9.481,0,15.722,6.862,15.722,14.228c0,9.742-5.417,17.021-13.4,17.021
		c-2.681,0-5.203-1.45-6.067-3.097c0,0-1.441,5.723-1.748,6.828c-0.525,1.914-1.556,3.827-2.499,5.32
		c2.233,0.658,4.593,1.018,7.039,1.018c13.714,0,24.833-11.12,24.833-24.834C49.779,11.202,38.66,0.082,24.946,0.082z"/>
</g>
</svg>
