<?xml version="1.0" encoding="utf-8"?>
<!-- Generator: Adobe Illustrator 16.0.4, SVG Export Plug-In . SVG Version: 6.00 Build 0)  -->
<!DOCTYPE svg PUBLIC "-//W3C//DTD SVG 1.1//EN" "http://www.w3.org/Graphics/SVG/1.1/DTD/svg11.dtd">
<svg version="1.1" id="Layer_1" xmlns="http://www.w3.org/2000/svg" xmlns:xlink="http://www.w3.org/1999/xlink" x="0px" y="0px"
	 width="40px" height="40px" viewBox="0 0 40 40" enable-background="new 0 0 40 40" xml:space="preserve">
<path id="Blue_1_" fill="#6699CC" d="M37.722,39.878c1.213,0,2.197-0.984,2.197-2.196V2.278c0-1.213-0.984-2.197-2.197-2.197H2.319
	c-1.214,0-2.197,0.983-2.197,2.197v35.404c0,1.212,0.983,2.196,2.197,2.196H37.722z"/>
<path fill="#FFFFFF" d="M32.801,12.053c-0.94,0.417-1.95,0.699-3.012,0.826c1.082-0.649,1.913-1.677,2.306-2.901
	c-1.014,0.601-2.137,1.038-3.33,1.272c-0.957-1.019-2.319-1.656-3.827-1.656c-2.896,0-5.246,2.348-5.246,5.244
	c0,0.411,0.047,0.812,0.137,1.195c-4.358-0.219-8.223-2.306-10.81-5.479c-0.451,0.774-0.71,1.676-0.71,2.636
	c0,1.819,0.926,3.424,2.333,4.365c-0.859-0.027-1.668-0.263-2.375-0.656c0,0.022,0,0.044,0,0.066c0,2.541,1.808,4.661,4.207,5.142
	c-0.44,0.12-0.904,0.184-1.382,0.184c-0.338,0-0.666-0.032-0.987-0.094c0.668,2.083,2.605,3.599,4.899,3.643
	c-1.795,1.406-4.056,2.244-6.513,2.244c-0.423,0-0.84-0.024-1.251-0.072c2.321,1.487,5.078,2.355,8.038,2.355
	c9.646,0,14.92-7.991,14.92-14.921c0-0.227-0.005-0.453-0.016-0.678C31.208,14.028,32.098,13.104,32.801,12.053z"/>
</svg>
